<?xml version="1.0" encoding="UTF-8"?>
<svg xmlns="http://www.w3.org/2000/svg" width="140" height="54" viewBox="0 0 140 54" fill="none">
  <g clip-path="url(#clip0_6990_11009)">
    <path d="M119.819 16.0844C119.47 15.5783 119.072 15.241 117.362 15.1085C116.916 15.0723 115.434 15.0241 112.952 15.0241C106.422 15.0241 101.988 17.0121 99.723 20.9398C100.35 16.988 96.5062 15.0121 88.217 15.0121C78.47 15.0121 72.3857 18.9518 69.964 26.8314C69.0724 29.1326 68.9761 31.6747 69.6869 34.0362L67.3857 34.1928C65.5905 34.3253 63.217 34.4579 61.7712 34.4579C58.205 34.4579 55.9881 33.8555 55.1327 32.6506C54.3616 31.5663 54.4459 29.5663 55.3375 26.6506C56.8194 21.8073 60.5062 19.6386 66.3977 19.6386C69.4459 19.6386 72.4218 19.9639 72.4218 19.9639C72.7833 19.9036 73.0363 19.5663 72.9761 19.1928C72.9761 19.1808 72.9761 19.1687 72.964 19.1567L72.9038 18.6988L72.6989 17.0723C72.5664 16 71.7712 15.3735 70.3254 15.1808C69.0001 15.0964 68.0242 15.0241 66.5664 15.0241H66.4821C58.7833 15.0362 53.4218 17.5783 50.3857 22.6386C51.4941 17.5663 47.9279 15.0241 39.6989 15.0241C36.4098 14.9639 33.1206 15.0964 29.8435 15.4217C28.6026 15.3856 27.4821 16.1567 27.0363 17.3133L26.3857 19.3976C26.2652 19.7832 26.4459 19.9759 26.9399 19.9759H26.952C27.3134 19.9277 28.711 19.7952 31.0965 19.6024C34.2532 19.3494 36.5785 19.2169 38.1206 19.2169C42.6628 19.2169 44.5664 20.3615 43.8556 22.6386C43.723 23.1205 43.3255 23.494 42.8315 23.5783C38.5423 24.2892 35.1327 24.8073 32.6146 25.1205C25.5182 26.0241 21.4218 28.241 20.3255 31.7711C18.8194 36.6265 22.6026 39.0482 31.6989 39.0482C35.5182 39.0964 39.3375 38.8314 43.1206 38.2651C44.8917 37.9639 45.7953 37.5061 46.1447 36.3615L47.8435 30.9518C47.6628 36.3615 51.4459 39.0844 59.1809 39.0844C61.8676 39.1326 64.5423 39.0121 67.205 38.7109C68.7953 38.4338 69.5544 38.0844 69.9038 36.8916L70.2411 35.1928C71.8917 37.7711 75.5062 39.0603 81.0965 39.0603C86.9881 39.0603 90.4218 38.8916 91.3977 38.5663C92.0845 38.4217 92.6507 37.9398 92.9038 37.2892C92.9399 37.1808 92.964 37.0603 92.9761 36.9518L93.6869 34.6506C93.8074 34.253 93.6267 34.0603 93.1447 34.0723L89.3736 34.253C86.8556 34.3976 84.8917 34.4699 83.47 34.4579C81.6146 34.5542 79.7592 34.3735 77.952 33.9036C76.5062 33.4097 75.6146 31.9639 75.8194 30.4579L87.7592 28.9277C93.1086 28.241 96.699 26.5904 98.5062 23.9639L94.4459 38.0964C94.3616 38.3133 94.3977 38.5543 94.5303 38.735C94.7471 38.9398 95.0242 39.0362 95.3134 39H100.253C100.819 39.0844 101.374 38.735 101.53 38.1808L105.892 22.9157C106.47 20.9036 108.301 19.9277 111.518 19.9277C114.422 19.9277 116.603 19.9518 118 20.0121C118.036 20.0121 118.072 20.0121 118.109 20.0121C118.578 20.0121 119 19.6988 119.121 19.253L119.88 17.1567C120.06 16.7952 120.024 16.3976 119.819 16.0844ZM40.1568 34.4458C37.952 34.7229 35.723 34.8434 33.5062 34.8073C28.4821 34.8073 26.2893 33.7952 26.9279 31.7591C27.3857 30.3012 28.6989 29.4217 30.8797 29.1205L42.3014 27.5783L40.1568 34.4458ZM92.964 22.0723C92.4821 23.6386 90.2532 24.7109 86.2652 25.2892L76.7471 26.6506L76.9881 25.8675C77.458 23.7711 78.6387 21.9157 80.3495 20.6024C81.7953 19.6747 84.1447 19.2049 87.4098 19.2049C91.6989 19.2049 93.5544 20.1687 92.964 22.0723Z" fill="#80C343"></path>
  </g>
  <defs>
    <clipPath id="clip0_6990_11009">
      <rect width="100" height="24.0964" fill="white" transform="translate(20 15)"></rect>
    </clipPath>
  </defs>
</svg>
