<?xml version="1.0" encoding="UTF-8"?>
<svg xmlns="http://www.w3.org/2000/svg" width="200" height="80" viewBox="0 0 200 80" fill="none">
  <rect width="200" height="80" fill="white"></rect>
  <g clip-path="url(#clip0_7936_9141)">
    <path d="M167.999 49.4319C167.915 49.4764 167.903 49.5555 167.897 49.6391C167.753 51.508 167 53.1382 165.867 54.6053C164.584 56.2654 163.047 57.6413 161.135 58.5687C160.074 59.0834 158.955 59.3985 157.785 59.5764C156.047 59.841 154.3 59.8817 152.552 59.8134C150.979 59.7516 149.415 59.5981 147.861 59.3188C145.509 58.8957 143.252 58.1961 141.107 57.1548C139.705 56.4742 138.415 55.6314 137.373 54.4594C136.679 53.679 136.179 52.7917 135.926 51.7759C135.903 51.6821 135.855 51.5855 135.93 51.4912C136.246 51.0958 136.229 50.6337 136.18 50.1749C136.135 49.76 136.334 49.3836 136.706 49.1721C136.958 49.0289 137.247 49.0365 137.506 48.9297C137.678 48.8592 137.829 48.7702 137.939 48.6281C138.156 48.3483 138.389 48.2848 138.679 48.4969C139.084 48.7935 139.365 49.2025 139.358 49.7058C139.344 50.6435 139.737 51.3957 140.342 52.0639C141.085 52.8855 142.038 53.4203 143.011 53.9246C143.593 54.2267 144.193 54.4892 144.812 54.7083C145.429 54.9274 146.065 55.0858 146.704 55.2376C147.283 55.3754 147.86 55.5153 148.446 55.6222C148.979 55.7192 149.513 55.8093 150.048 55.8944C151.074 56.0582 152.102 56.145 153.138 56.1591C153.475 56.1634 153.814 56.1748 154.149 56.1515C154.841 56.1027 155.526 56.03 156.211 55.8901C157.291 55.6699 158.294 55.2718 159.255 54.7642C160.781 53.9583 161.918 52.7776 162.557 51.1744C162.949 50.1879 163.092 49.152 163.042 48.0863C163.017 47.5565 163.046 47.0239 162.946 46.4994C162.773 45.5916 162.527 44.7038 162.17 43.8485C161.96 43.3441 161.721 42.8533 161.469 42.3679C161.384 42.2041 161.286 42.1455 161.111 42.1466C160.436 42.1504 159.768 42.2328 159.099 42.3082C157.898 42.4438 156.712 42.6651 155.52 42.8582C154.544 43.0165 153.566 43.1597 152.581 43.2703C152.053 43.3295 151.528 43.3577 151.001 43.3322C149.27 43.2492 147.657 42.8077 146.236 41.7724C145.776 41.4372 145.416 41.0397 145.108 40.5651C144.588 39.763 144.133 38.9267 143.688 38.0839C143.547 37.816 143.507 37.5221 143.494 37.2232C143.454 36.3381 143.503 35.4536 143.61 34.5788C143.711 33.7452 143.925 32.9268 144.117 32.1057C144.293 31.3546 144.478 30.6083 144.707 29.8718C144.752 29.727 144.793 29.5806 144.838 29.4363C144.92 29.1809 145.131 29.1028 145.368 29.087C145.671 29.0664 145.842 28.9444 145.94 28.6342C146.09 28.1602 146.418 27.8771 146.967 27.8722C147.396 27.8684 147.829 27.8255 148.247 27.9139C148.982 28.0696 149.378 28.5723 149.429 29.3983C149.467 30.0063 149.346 30.6023 149.221 31.1935C148.996 32.2581 148.757 33.3205 148.518 34.3824C148.425 34.7963 148.364 35.2133 148.32 35.6347C148.254 36.2828 148.572 36.8018 148.879 37.3219C149.432 38.2591 150.193 38.9712 151.238 39.3432C151.759 39.5287 152.305 39.6323 152.847 39.7326C153.959 39.9377 155.092 39.9317 156.212 40.0494C157.202 40.1535 158.188 40.2934 159.153 40.5613C159.632 40.6942 160.113 40.8217 160.573 41.0066C160.733 41.0711 160.76 40.9421 160.838 40.89C160.933 40.8266 160.874 40.7555 160.831 40.6817C159.866 39.0113 158.867 37.3599 157.95 35.6624C156.854 33.6308 155.649 31.6561 154.672 29.5616C154.421 29.0241 154.208 28.4715 154.084 27.8923C154.004 27.5207 154.125 27.1709 154.372 26.8916C155.05 26.1231 155.928 25.8791 156.929 25.9892C158.436 26.1551 159.25 27.1097 159.64 28.4449C159.914 29.3837 160.359 30.2254 160.811 31.079C162.159 33.6237 163.636 36.0984 165.007 38.6306C166.101 40.6519 166.85 42.799 167.372 45.0259C167.611 46.0439 167.799 47.0738 167.894 48.1167C167.903 48.2051 167.892 48.3022 167.998 48.3483V49.4313L167.999 49.4319Z" fill="#DB2925"></path>
    <path d="M81.6163 49.466C81.2142 49.7838 80.8159 50.1065 80.4083 50.4178C79.296 51.2671 78.1366 52.0508 76.9751 52.8313C75.9098 53.5471 74.8582 54.282 73.8384 55.0597C73.1446 55.5885 72.5307 56.2057 71.994 56.8939C71.3489 57.721 70.7914 58.6012 70.3871 59.5698C70.2383 59.9262 70.0845 60.2836 69.9828 60.654C69.8608 61.0987 70.0791 61.468 70.3822 61.7663C70.9058 62.281 71.5612 62.5728 72.2473 62.8315C72.8645 63.0647 73.4899 63.2643 74.1289 63.4107C74.7466 63.5528 75.3753 63.6542 76.0017 63.7611C76.7639 63.8912 77.5353 63.9373 78.2958 64.0838C78.7089 64.1635 79.1488 64.119 79.5761 64.1092C80.0379 64.0984 80.4931 64.0116 80.9499 63.9585C81.3789 63.9086 81.8177 63.888 82.2461 63.8288C82.9655 63.7301 83.6878 63.6477 84.4034 63.5045C84.9133 63.4026 85.4271 63.3066 85.9364 63.1986C86.3304 63.1151 86.7243 63.0284 87.1095 62.9128C87.7846 62.7111 88.4603 62.5072 89.1224 62.2669C90.3392 61.8249 91.5319 61.3194 92.6546 60.6751C94.1647 59.8085 95.5057 58.758 96.2947 57.1543C96.5868 56.5598 96.7679 55.9345 96.8051 55.2723C96.8566 54.3655 96.5343 53.5775 96.0063 52.8605C95.2414 51.8214 94.2178 51.0741 93.1301 50.4081C91.9964 49.7139 90.7999 49.1368 89.5601 48.6569C88.5304 48.2588 87.4733 47.9431 86.3971 47.6817C84.991 47.34 83.5718 47.1844 82.1268 47.2272C81.1403 47.2565 80.1829 47.4241 79.2511 47.7484C78.3013 48.0787 77.346 48.396 76.3174 48.3396C75.7489 48.3081 75.2122 48.1584 74.7089 47.8884C74.5425 47.7989 74.49 47.6861 74.4911 47.5C74.4988 45.7673 74.4895 44.0339 74.5031 42.3012C74.5053 42.0457 74.4145 41.9383 74.1853 41.8553C73.0899 41.4594 71.9803 41.0934 70.9474 40.5483C70.1053 40.1047 69.4345 39.5021 69.1178 38.5693C68.9684 38.1289 69.1117 37.7493 69.2972 37.3772C69.6698 36.6299 70.1819 35.9769 70.7307 35.3473C71.4534 34.5186 72.3469 33.903 73.2486 33.2896C74.4982 32.4398 75.7495 31.5953 77.1064 30.9174C77.984 30.4787 78.8998 30.1451 79.8573 29.9244C80.0105 29.8891 80.0926 29.8344 80.0887 29.6559C80.0641 28.555 80.4745 27.5999 81.1239 26.7322C81.5775 26.1258 82.089 25.5856 82.8145 25.2836C83.319 25.0737 83.824 25.0899 84.3383 25.219C84.5123 25.2624 84.5101 25.4273 84.5325 25.5428C84.6874 26.3466 84.811 27.1557 84.8602 27.9741C84.8624 28.0099 84.8581 28.0463 84.8613 28.082C84.9024 28.5376 84.9029 28.5311 85.3674 28.5577C86.4989 28.6217 87.5346 29.0122 88.5369 29.4992C89.2931 29.8669 90.0158 30.2883 90.6188 30.8843C91.2846 31.5422 91.6025 32.3373 91.4673 33.2603C91.3787 33.8645 91.1084 34.4204 90.7834 34.941C90.1887 35.8939 89.3932 36.6548 88.5172 37.3583C87.0477 38.5378 85.3434 39.2516 83.6133 39.9387C82.3489 40.4409 81.0845 40.9431 79.8114 41.4236C79.5515 41.5218 79.3999 41.7284 79.302 41.9828C79.1001 42.5105 79.1269 43.0588 79.1307 43.6071C79.1318 43.7432 79.2183 43.7449 79.3124 43.747C80.6238 43.779 81.9359 43.7975 83.2468 43.8479C83.9263 43.8739 84.6069 43.8973 85.2837 43.9867C85.6973 44.0415 86.1154 44.0638 86.5312 44.1034C87.1631 44.163 87.7879 44.2671 88.4138 44.3724C89.1191 44.4911 89.8101 44.6593 90.4978 44.8474C92.3909 45.3654 94.1745 46.1306 95.8219 47.1925C97.0924 48.0115 98.2156 49.0045 99.1911 50.1499C99.9735 51.0676 100.601 52.0877 100.971 53.2413C101.537 55.006 101.327 56.6862 100.333 58.2557C99.4105 59.713 98.1149 60.7874 96.6705 61.7083C95.2529 62.6124 93.7532 63.3614 92.218 64.0425C90.3682 64.8631 88.4499 65.4944 86.4962 66.0194C84.9598 66.4321 83.4098 66.7889 81.8144 66.8925C79.511 67.0422 77.2114 67.0786 74.9184 66.7212C72.9608 66.4158 71.0584 65.9163 69.219 65.1907C68.4158 64.8739 67.6526 64.4791 66.9779 63.9303C65.928 63.0755 65.6369 61.9643 65.8158 60.6795C66.0549 58.9651 66.897 57.554 68.0224 56.2729C68.9875 55.1742 70.0309 54.1567 71.1854 53.2575C72.7091 52.0698 74.2936 50.9683 76.0778 50.1873C77.1348 49.7247 78.2373 49.4698 79.4048 49.5777C79.4929 49.5859 79.61 49.5994 79.6691 49.5544C79.9563 49.3353 80.2764 49.3657 80.6058 49.3841C80.9302 49.402 81.2569 49.3879 81.5824 49.3879C81.5939 49.414 81.6059 49.4405 81.6174 49.4666L81.6163 49.466ZM76.516 37.8323C77.7481 37.8746 78.9474 37.6582 80.1156 37.3132C81.7061 36.8436 83.2254 36.1971 84.6091 35.2757C85.3855 34.7588 86.0738 34.146 86.5438 33.327C86.7626 32.9452 86.6871 32.6697 86.3369 32.3937C85.9031 32.052 85.3937 32.0119 84.8964 32.0899C83.981 32.2342 83.0733 32.4208 82.1777 32.6746C81.3734 32.9024 80.5844 33.1632 79.8196 33.4924C78.6854 33.9806 77.6234 34.5842 76.6544 35.3576C75.8863 35.9709 75.1985 36.6521 74.594 37.4201C74.5124 37.5242 74.4758 37.5736 74.6552 37.6365C75.2631 37.8507 75.8945 37.7997 76.516 37.8328V37.8323Z" fill="#DB2925"></path>
    <path d="M129.787 44.2185C129.698 44.3871 129.74 44.5005 129.754 44.6111C129.835 45.2782 129.757 45.9198 129.461 46.5321C129.124 47.2268 128.514 47.5663 127.815 47.7952C127.044 48.0474 126.271 47.9107 125.493 47.824C124.643 47.7291 123.809 47.5555 122.969 47.4129C122.067 47.2599 121.173 47.0631 120.272 46.9004C119.595 46.7778 118.911 46.6921 118.247 46.5023C117.287 46.2279 116.347 45.8878 115.568 45.25C114.858 44.6681 114.644 44.0547 115.102 42.9277C115.696 41.465 116.443 40.0728 117.067 38.6253C117.412 37.8259 117.661 36.9902 117.865 36.1436C118.003 35.573 118.113 34.9905 118.054 34.4059C117.96 33.4812 117.983 32.5381 117.595 31.6546C117.363 31.1247 116.983 30.725 116.576 30.3394C116.383 30.1566 116.233 29.9435 116.067 29.7407C115.929 29.5725 115.942 29.3784 116.031 29.2059C116.306 28.6641 116.766 28.2736 117.19 27.8544C117.266 27.779 117.363 27.8034 117.449 27.8246C118.616 28.112 119.701 28.566 120.59 29.3963C121.21 29.9755 121.651 30.6746 121.928 31.4697C122.404 32.8364 122.42 34.2432 122.268 35.662C122.013 38.0526 121.208 40.2751 120.16 42.4222C120.074 42.5985 120.08 42.6793 120.263 42.7731C121.023 43.1636 121.826 43.4174 122.67 43.5503C123.175 43.63 123.683 43.649 124.194 43.6306C124.221 43.6295 124.248 43.6322 124.276 43.6306C124.76 43.6013 124.806 43.5519 124.801 43.0741C124.795 42.5323 124.846 41.9987 124.955 41.4656C125.114 40.684 125.63 40.2285 126.338 39.9736C126.842 39.7924 127.375 39.7149 127.92 39.7664C128.072 39.781 128.164 39.8315 128.238 39.9692C128.82 41.0517 129.297 42.1744 129.588 43.3708C129.627 43.5335 129.598 43.7103 129.714 43.9316C129.831 43.5172 129.937 43.1609 130.071 42.8144C130.5 41.7042 131.035 40.6407 131.56 39.576C132.112 38.4566 132.509 37.2884 132.803 36.0882C132.973 35.3946 133.047 34.683 132.949 33.9498C132.865 33.3283 132.83 32.7029 132.669 32.0906C132.51 31.487 132.171 31.0022 131.748 30.5585C131.474 30.2711 131.157 30.0227 130.95 29.6729C130.863 29.5248 130.859 29.406 130.937 29.2482C131.212 28.6934 131.665 28.2888 132.087 27.8566C132.16 27.7817 132.258 27.8007 132.346 27.8219C133.704 28.1494 134.936 28.7015 135.872 29.7754C136.423 30.4067 136.784 31.1388 136.996 31.941C137.351 33.2876 137.33 34.6472 137.147 36.0183C136.845 38.2733 136.082 40.3787 135.084 42.4103C134.985 42.611 135.032 42.6923 135.208 42.7834C135.968 43.1756 136.772 43.4277 137.618 43.5541C138.079 43.623 138.541 43.6355 139.005 43.6398C139.211 43.642 139.395 43.5698 139.591 43.5449C139.718 43.5286 139.756 43.4348 139.754 43.3057C139.746 42.7569 139.744 42.2113 139.828 41.663C139.962 40.7887 140.533 40.2019 141.379 39.9378C141.849 39.7913 142.334 39.7252 142.832 39.7648C142.989 39.7772 143.085 39.8369 143.155 39.9671C143.9 41.3489 144.489 42.7856 144.665 44.3568C144.735 44.9843 144.736 45.6128 144.516 46.2273C144.207 47.0896 143.55 47.536 142.712 47.8001C141.946 48.042 141.185 47.908 140.417 47.824C139.774 47.754 139.143 47.6298 138.508 47.5197C137.428 47.3315 136.35 47.126 135.272 46.9253C134.676 46.8147 134.076 46.7198 133.486 46.5825C132.515 46.3569 131.592 46.0039 130.759 45.455C130.32 45.1654 129.96 44.789 129.787 44.219V44.2185Z" fill="#DB2925"></path>
    <path d="M50.5925 29.9241C50.5104 31.1596 50.639 32.3918 50.7134 33.6218C50.7353 33.9814 50.7834 34.3512 50.8458 34.7146C50.9219 35.155 50.8961 35.6095 50.9629 36.0553C51.0707 36.7717 51.1133 37.4957 51.2326 38.2127C51.318 38.7241 51.3524 39.2464 51.4416 39.7595C51.5428 40.3419 51.585 40.9315 51.7026 41.5134C51.7655 41.8242 51.7841 42.1534 51.8246 42.4739C51.9056 43.1128 51.9997 43.75 52.0774 44.3889C52.1529 45.0104 52.2049 45.6352 52.2858 46.2562C52.3548 46.7828 52.3756 47.3121 52.4089 47.8409C52.4483 48.4668 52.5003 49.091 52.4429 49.7206C52.4117 50.0602 52.2399 50.2738 51.9603 50.4159C51.7934 50.5011 51.7371 50.6139 51.7135 50.7923C51.6681 51.1383 51.5335 51.4643 51.4197 51.7935C51.3924 51.8727 51.3295 51.9784 51.2266 51.9567C51.022 51.9139 50.9328 52.0505 50.819 52.1661C50.6609 52.3277 50.5011 52.4893 50.3304 52.6379C50.0897 52.8478 49.8943 52.8424 49.6553 52.6243C49.2433 52.249 48.9899 51.7696 48.7771 51.2679C48.2907 50.1209 48.044 48.9104 47.8306 47.6917C47.5308 45.9769 47.1932 44.2696 46.8392 42.565C46.8244 42.4945 46.8053 42.4234 46.8014 42.3519C46.7916 42.1642 46.6947 42.11 46.5131 42.1241C46.1372 42.1539 45.7663 42.0769 45.4052 41.9972C45.1518 41.9408 44.9735 41.9999 44.8307 42.1788C44.7174 42.3215 44.5916 42.3562 44.4258 42.3171C43.6029 42.1224 42.7675 41.9988 41.9276 41.9104C41.1857 41.8323 40.44 41.7835 39.6932 41.777C39.5126 41.7753 39.4519 41.9212 39.3758 42.0378C39.0153 42.5867 38.5803 43.0547 37.9905 43.3715C37.4084 43.6844 36.806 43.7907 36.1461 43.6594C35.8879 43.6079 35.6576 43.5531 35.4606 43.3758C34.9507 42.9164 34.8801 42.4321 35.1619 41.617C35.4228 40.8615 35.86 40.1928 36.1877 39.4704C36.2961 39.2312 36.3803 38.985 36.4416 38.7296C36.5565 38.2496 36.8968 37.8922 37.1572 37.4952C38.3215 35.7163 39.6062 34.0215 40.8793 32.3185C42.5103 30.1362 44.202 28.001 45.9118 25.8793C46.1859 25.5393 46.4595 25.2079 46.9027 25.062C47.0099 25.0268 47.11 25.0067 47.2173 25.0061C47.6823 25.004 48.1479 25.0251 48.6113 24.9996C49.0961 24.9731 49.467 25.2052 49.8473 25.4422C50.2669 25.7036 50.2226 26.1505 50.308 26.5431C50.4776 27.3263 50.4863 28.1295 50.5843 28.9219C50.6248 29.2505 50.5908 29.5884 50.5908 29.9219L50.5925 29.9241ZM45.6207 38.6547C45.6842 38.6591 45.7482 38.6628 45.8117 38.6677C46.1679 38.6948 46.1651 38.6948 46.1208 38.3559C45.9627 37.1405 45.8068 35.9246 45.6492 34.7086C45.6087 34.3957 45.566 34.0833 45.5184 33.7715C45.4976 33.6364 45.4374 33.5936 45.3253 33.7107C45.1628 33.8805 44.9784 34.0329 44.834 34.2167C44.3744 34.8035 43.9225 35.3969 43.4804 35.9967C43.1171 36.4891 42.7784 36.9973 42.5087 37.5483C42.4326 37.704 42.4583 37.8125 42.611 37.8732C43.5805 38.2599 44.5577 38.62 45.6207 38.6547Z" fill="#DB2925"></path>
    <path d="M63.2257 25.1991C64.9377 25.2267 66.4308 25.7289 67.7625 26.6314C68.7265 27.2849 69.5603 28.0924 69.9838 29.2281C70.2415 29.9196 70.3099 30.6138 70.1354 31.3329C70.0112 31.8454 69.9105 32.3639 69.7885 32.877C69.4536 34.2827 68.8715 35.5881 68.1351 36.8285C67.6301 37.6789 67.014 38.4517 66.4078 39.2316C65.5439 40.3429 64.6165 41.4031 63.688 42.4596C62.7694 43.5047 61.8147 44.5248 60.7166 45.3937C60.0201 45.9447 59.352 46.5288 58.7218 47.1471C57.6461 48.2014 55.6081 47.9996 54.7403 46.6828C54.4186 46.1947 54.2714 45.6535 54.1888 45.0856C54.0641 44.2271 54.0646 43.3588 53.9825 42.4976C53.9371 42.0225 53.8638 41.5501 53.7522 41.0842C53.7254 40.9714 53.7183 40.8527 53.7161 40.736C53.6756 38.2722 53.6368 35.8083 53.5974 33.3439C53.5919 33.0039 53.2833 33.0435 53.0896 32.9795C52.8259 32.8927 52.5403 32.8678 52.2629 32.8233C52.1491 32.8048 52.0818 32.7804 52.1004 32.6373C52.1376 32.3552 52.0665 32.0781 51.9965 31.8091C51.9571 31.6578 51.9784 31.5558 52.0676 31.4381C53.9136 29.0068 56.2963 27.2789 59.1277 26.134C60.1426 25.7235 61.1986 25.4724 62.2759 25.2923C62.6178 25.2354 62.9565 25.1752 63.2262 25.1985L63.2257 25.1991ZM65.609 31.0997C65.6199 30.2857 65.4109 29.5324 64.9809 28.8387C64.8742 28.6668 64.7473 28.5057 64.5585 28.4292C64.0551 28.2253 63.5173 28.1526 62.9904 28.2459C62.2721 28.3734 61.6029 28.6787 60.9278 28.9477C60.0026 29.3165 59.137 29.8003 58.2895 30.3182C58.0028 30.4934 57.8168 30.7033 57.9022 31.0742C57.964 31.3443 57.9651 31.6291 57.9727 31.9029C57.9974 32.8103 58.0794 33.7127 58.1522 34.6163C58.1943 35.1358 58.1861 35.6576 58.2474 36.1777C58.2944 36.5785 58.3617 36.9841 58.3601 37.3838C58.3568 38.0428 58.4394 38.6947 58.4931 39.3466C58.5461 39.9963 58.5872 40.6487 58.6555 41.2979C58.6627 41.3657 58.6112 41.4514 58.696 41.4926C58.7847 41.536 58.8202 41.4427 58.8689 41.3972C59.8992 40.4269 60.8835 39.4127 61.8119 38.347C62.823 37.1864 63.7663 35.9754 64.5104 34.6239C65.116 33.5229 65.5866 32.3797 65.6095 31.1003L65.609 31.0997Z" fill="#DB2925"></path>
    <path d="M104.016 44.4582C103.559 44.481 102.722 44.4419 101.9 44.2732C101.262 44.1425 100.652 43.9028 100.031 43.7076C98.6779 43.2829 97.3385 42.8198 96.0966 42.1332C95.1665 41.619 94.2396 41.0875 93.4572 40.3559C92.4915 39.4535 92.0834 38.3297 92.1261 37.0259C92.1868 35.1668 92.8899 33.5577 94.0104 32.0912C94.6653 31.2337 95.4203 30.4669 96.1414 29.6702C96.8976 28.8355 97.8539 28.3295 99.01 28.3094C99.613 28.2991 100.212 28.4233 100.733 28.7346C101.283 29.0622 101.533 29.6024 101.609 30.2196C101.649 30.5515 101.363 30.7304 101.202 30.9561C100.375 32.1226 99.5495 33.2903 98.7611 34.4834C98.3934 35.0393 98.0274 35.5963 97.6488 36.1452C97.5372 36.3068 97.5344 36.4467 97.6023 36.6224C97.8189 37.1865 98.249 37.5835 98.6993 37.943C99.3804 38.4865 100.116 38.9599 100.958 39.2311C101.568 39.428 102.184 39.6075 102.809 39.7583C103.54 39.9351 104.271 40.0961 105.022 40.1558C106.847 40.3006 108.445 39.8689 109.609 38.3655C109.896 37.9946 110.014 37.558 110.033 37.0845C110.079 35.944 109.732 34.9054 109.235 33.9026C108.835 33.0934 108.345 32.339 107.779 31.6345C107.649 31.4734 107.619 31.3221 107.693 31.1399C107.802 30.8698 107.855 30.5867 107.86 30.2971C107.865 30.0634 107.957 30.0368 108.115 30.181C108.259 30.3128 108.341 30.3004 108.482 30.1501C109.01 29.5888 109.876 29.4559 110.569 29.8047C112.788 30.9219 114.36 32.6313 115.19 34.9504C115.876 36.8676 115.781 38.7663 114.634 40.5116C113.965 41.5312 113.03 42.2975 111.946 42.8713C110.808 43.4733 109.597 43.8627 108.328 44.1024C107.027 44.3481 105.718 44.4457 104.015 44.4576L104.016 44.4582Z" fill="#DB2925"></path>
  </g>
  <defs>
    <clipPath id="clip0_7936_9141">
      <rect width="133" height="42" fill="white" transform="translate(35 25)"></rect>
    </clipPath>
  </defs>
</svg>
