<?xml version="1.0" encoding="UTF-8"?>
<svg xmlns="http://www.w3.org/2000/svg" width="200" height="80" viewBox="0 0 200 80" fill="none">
  <rect width="200" height="80" fill="white"></rect>
  <path d="M46.3522 30.0096C47.2973 30.0096 48.2433 30.0376 49.1868 30.0023C50.2666 29.9617 51.0201 30.4649 51.5961 31.3123C52.0301 31.9506 52.3283 32.6638 52.7035 33.3349C53.9634 35.591 55.2066 37.8565 56.4581 40.1172C56.4982 40.1895 56.5138 40.3023 56.6137 40.3085C56.7339 40.3163 56.75 40.1905 56.7937 40.1136C57.0872 39.5943 57.3771 39.0734 57.6643 38.5504C57.9667 37.9999 58.4251 37.7244 59.0595 37.7255C61.5043 37.7286 63.949 37.7265 66.3938 37.7265C66.6914 37.7265 66.7076 37.7535 66.5619 38.0134C65.2234 40.4042 63.885 42.7949 62.5466 45.1851C62.2978 45.6295 62.0902 46.0974 61.7967 46.5169C61.205 47.3632 60.4167 47.8097 59.3587 47.7983C57.5644 47.7796 55.7691 47.7614 53.9753 47.8035C52.6598 47.8342 51.7424 47.2613 51.1476 46.1463C49.6426 43.3246 48.0752 40.5372 46.5401 37.7322C46.5234 37.7021 46.5099 37.6693 46.4912 37.6407C46.4454 37.5716 46.4272 37.4609 46.3231 37.465C46.2341 37.4687 46.218 37.5716 46.1816 37.636C45.6398 38.6009 45.1002 39.5667 44.5616 40.5331C43.2737 42.8432 41.9841 45.1523 40.7035 47.4666C40.5796 47.6902 40.4412 47.7832 40.1763 47.7822C37.5411 47.7723 34.9054 47.7765 32.2701 47.7765C31.9579 47.7765 31.9418 47.7484 32.0927 47.4781C34.6394 42.9118 37.1815 38.342 39.7387 33.7804C40.2034 32.9518 40.5947 32.0816 41.125 31.2904C41.6854 30.4535 42.4364 29.97 43.4917 30.0033C44.4445 30.0335 45.3989 30.0096 46.3522 30.0096Z" fill="#008182"></path>
  <path d="M83.2696 45.5313C82.2814 45.5313 81.2932 45.5386 80.305 45.5256C80.0797 45.5225 79.9782 45.6072 79.9126 45.8068C79.7097 46.4218 79.4901 47.0316 79.2898 47.6476C79.2351 47.815 79.1508 47.881 78.9739 47.8799C77.6563 47.8747 76.3387 47.8753 75.021 47.8799C74.8082 47.8805 74.7692 47.8181 74.8457 47.6185C76.0811 44.4017 77.3118 41.1829 78.542 37.9636C79.2237 36.1805 79.9054 34.3975 80.5777 32.6108C80.6594 32.3941 80.763 32.3047 81.0081 32.3062C82.499 32.3182 83.9899 32.3187 85.4808 32.3062C85.7498 32.3036 85.8788 32.3878 85.9751 32.6399C87.3526 36.2554 88.7399 39.8677 90.1257 43.4801C90.6575 44.867 91.1888 46.2544 91.7259 47.6398C91.7935 47.8139 91.7561 47.8779 91.5703 47.8779C90.2267 47.8758 88.883 47.8758 87.5394 47.8779C87.3947 47.8779 87.3302 47.815 87.2849 47.6772C87.0794 47.0539 86.854 46.4374 86.6506 45.8141C86.5798 45.5968 86.4622 45.524 86.2337 45.5266C85.2455 45.5381 84.2573 45.5313 83.2691 45.5313H83.2696ZM83.2488 42.1571C83.8988 42.1571 84.5493 42.154 85.1992 42.1586C85.3949 42.1602 85.4693 42.1118 85.3944 41.8998C84.7205 39.9946 84.0539 38.0863 83.382 36.18C83.3591 36.1145 83.3628 36.0022 83.2592 36.009C83.1786 36.0142 83.1801 36.1119 83.1583 36.1743C82.4943 38.0831 81.8344 39.9935 81.1642 41.8998C81.0887 42.1144 81.1522 42.1597 81.3505 42.1581C81.9833 42.1534 82.616 42.1566 83.2488 42.156V42.1571Z" fill="#008182"></path>
  <path d="M167.913 43.3694C166.665 43.3694 165.418 43.3694 164.17 43.3694C163.856 43.3694 163.827 43.4089 163.939 43.6974C164.258 44.5245 164.892 45.0032 165.724 45.2164C167.005 45.5449 168.199 45.2845 169.294 44.5733C169.513 44.4309 169.6 44.46 169.735 44.6648C170.129 45.2642 170.539 45.8526 170.956 46.4369C171.076 46.6048 171.05 46.7047 170.895 46.8216C170.221 47.3311 169.46 47.6508 168.647 47.8587C167.71 48.0983 166.758 48.2366 165.794 48.156C163.433 47.959 161.109 46.8305 160.303 44.0972C159.328 40.7874 160.987 37.437 164.395 36.5523C166.454 36.0179 168.396 36.3111 170.047 37.7557C171.035 38.6186 171.577 39.7456 171.832 41.0166C171.962 41.6706 172.014 42.3313 171.997 42.9982C171.988 43.3429 171.969 43.3699 171.63 43.3704C170.391 43.371 169.152 43.3704 167.913 43.3704V43.3694H167.913ZM166.149 39.1182C165.038 39.099 164.162 39.7259 163.862 40.7552C163.787 41.014 163.806 41.0468 164.072 41.0473C165.449 41.0489 166.827 41.0452 168.205 41.0509C168.436 41.052 168.49 40.975 168.432 40.7541C168.165 39.743 167.33 39.139 166.149 39.1187V39.1182Z" fill="#008182"></path>
  <path d="M134.612 43.3698C133.364 43.3698 132.116 43.3698 130.867 43.3698C130.54 43.3698 130.514 43.4046 130.64 43.7149C131.045 44.7141 131.859 45.1741 132.868 45.3108C134.02 45.4663 135.09 45.198 136.049 44.5337C136.203 44.4266 136.283 44.4567 136.381 44.6018C136.803 45.2245 137.229 45.8447 137.663 46.4586C137.781 46.6239 137.727 46.7165 137.589 46.8209C136.915 47.3314 136.154 47.6516 135.339 47.8591C134.411 48.0951 133.468 48.2339 132.511 48.1574C130.123 47.9672 127.784 46.8241 126.999 44.0929C126.363 41.8846 126.748 39.838 128.363 38.1194C129.244 37.1811 130.362 36.641 131.628 36.4253C132.82 36.222 133.999 36.2881 135.128 36.7533C137.034 37.5383 138.089 39.0125 138.517 40.9801C138.67 41.686 138.68 42.4018 138.676 43.1202C138.675 43.3381 138.569 43.375 138.383 43.3744C137.126 43.3698 135.869 43.3718 134.612 43.3718V43.3703L134.612 43.3698ZM132.818 41.0477C133.406 41.0477 133.995 41.0477 134.583 41.0477C135.249 41.0477 135.285 40.9848 134.985 40.3682C134.562 39.5006 133.822 39.1669 132.902 39.1196C131.776 39.0614 130.85 39.7195 130.541 40.7914C130.48 41.0024 130.546 41.0518 130.742 41.0503C131.434 41.0451 132.127 41.0482 132.819 41.0477H132.818Z" fill="#008182"></path>
  <path d="M153.755 48.167C152.099 48.1035 150.511 47.7786 149.071 46.911C148.893 46.804 148.73 46.6735 148.56 46.555C148.438 46.4707 148.419 46.3782 148.5 46.2477C148.938 45.5428 149.373 44.8359 149.802 44.1258C149.906 43.9537 149.99 43.9943 150.129 44.0899C151.339 44.9248 152.661 45.4342 154.155 45.4243C154.481 45.4222 154.795 45.3645 155.084 45.2127C155.32 45.088 155.475 44.8977 155.477 44.6175C155.479 44.3425 155.319 44.1679 155.089 44.0514C154.538 43.7728 153.929 43.712 153.333 43.6059C152.438 43.4474 151.549 43.2784 150.7 42.9239C148.374 41.9529 148.418 39.0985 149.737 37.762C150.466 37.0233 151.361 36.6105 152.365 36.4478C154.484 36.1047 156.467 36.4842 158.287 37.6455C158.479 37.7682 158.525 37.8701 158.397 38.078C158.008 38.7112 157.635 39.3542 157.266 39.9993C157.164 40.1766 157.09 40.1797 156.931 40.057C155.916 39.2762 154.759 38.9337 153.482 38.9882C153.203 39.0002 152.93 39.061 152.686 39.205C152.484 39.3241 152.331 39.4868 152.334 39.741C152.337 39.9998 152.5 40.1506 152.713 40.2535C153.252 40.5145 153.844 40.5717 154.423 40.6761C155.379 40.8482 156.324 41.0458 157.209 41.4751C159.485 42.5787 159.465 45.6775 157.743 46.988C156.938 47.6009 156.027 47.9018 155.048 48.0609C154.62 48.1306 154.193 48.194 153.755 48.1664V48.167Z" fill="#008182"></path>
  <path d="M120.005 47.8773C119.433 47.8773 118.861 47.8732 118.289 47.8799C118.117 47.882 118.026 47.8238 117.961 47.6585C116.78 44.6804 115.592 41.7043 114.405 38.7288C114.155 38.1029 113.907 37.477 113.647 36.8553C113.563 36.652 113.619 36.5959 113.826 36.5964C114.944 36.6011 116.062 36.6021 117.18 36.5954C117.373 36.5943 117.449 36.6801 117.51 36.8485C118.274 38.9778 119.045 41.1044 119.814 43.2321C119.835 43.2888 119.853 43.347 119.878 43.4016C119.906 43.4603 119.893 43.5632 119.979 43.5648C120.077 43.5664 120.078 43.4608 120.103 43.3922C120.893 41.2255 121.685 39.0599 122.464 36.8901C122.546 36.6609 122.659 36.5912 122.896 36.5938C123.98 36.6058 125.063 36.5985 126.146 36.5995C126.447 36.5995 126.46 36.6183 126.353 36.887C124.92 40.4806 123.485 44.0737 122.056 47.6694C121.988 47.8404 121.886 47.882 121.721 47.8805C121.149 47.8753 120.577 47.8784 120.004 47.8784L120.005 47.8773Z" fill="#008182"></path>
  <path d="M96.648 43.8085C96.648 45.0608 96.6412 46.3136 96.6537 47.5659C96.6563 47.8222 96.5735 47.8851 96.3279 47.8825C95.3225 47.87 94.3166 47.8716 93.3113 47.8814C93.0755 47.8835 92.9975 47.8123 92.998 47.5706C93.0058 45.0743 93.0032 42.5776 93.0027 40.0813C93.0027 39.8398 92.8835 39.7185 92.6452 39.7174C92.2117 39.7164 91.7782 39.7117 91.3447 39.7195C91.1553 39.7232 91.0835 39.6519 91.0845 39.4612C91.0908 38.5889 91.0918 37.7161 91.084 36.8438C91.0819 36.6416 91.1699 36.5932 91.3505 36.5964C91.7579 36.6036 92.1654 36.599 92.5728 36.5984C93.0027 36.5984 93.011 36.5984 93.0006 36.1784C92.9819 35.4397 93.0989 34.7296 93.4564 34.0762C94.1626 32.7854 95.3012 32.1705 96.7343 32.066C97.5888 32.0036 98.4287 32.1123 99.239 32.4158C99.47 32.5027 99.5439 32.6118 99.4726 32.8577C99.2894 33.4877 99.1291 34.1245 98.959 34.7582C98.9063 34.9547 98.7801 35.0126 98.5807 34.9318C97.9047 34.6574 97.2422 34.8024 96.8977 35.3077C96.662 35.6539 96.636 36.0505 96.6506 36.4524C96.6568 36.6229 96.7911 36.5979 96.9009 36.5979C97.4905 36.599 98.0801 36.6088 98.6691 36.5932C98.9179 36.5865 98.998 36.6608 98.9939 36.914C98.9788 37.7514 98.9814 38.5899 98.9923 39.4274C98.9954 39.6582 98.9147 39.7263 98.6905 39.7216C98.1014 39.7091 97.5113 39.7247 96.9222 39.7128C96.7026 39.7086 96.6417 39.7881 96.6428 39.9992C96.6506 41.2691 96.6464 42.5386 96.6469 43.8085H96.648Z" fill="#008182"></path>
  <path d="M101.292 43.7929C101.292 42.5406 101.286 41.2883 101.297 40.0366C101.299 39.785 101.22 39.7039 100.971 39.7127C100.521 39.7288 100.07 39.7127 99.6191 39.72C99.4396 39.7231 99.3735 39.6545 99.3746 39.4762C99.3798 38.5956 99.3808 37.7145 99.374 36.8339C99.3725 36.6488 99.4469 36.5937 99.6207 36.5963C100.08 36.603 100.54 36.5885 100.999 36.603C101.228 36.6103 101.307 36.5308 101.295 36.3047C101.252 35.5145 101.366 34.753 101.754 34.0496C102.391 32.894 103.402 32.2723 104.686 32.1002C105.669 31.9687 106.639 32.0711 107.57 32.448C107.751 32.5213 107.801 32.5972 107.744 32.7947C107.549 33.4752 107.373 34.1614 107.196 34.847C107.147 35.0378 107.089 35.1116 106.88 34.99C106.548 34.7971 106.181 34.7353 105.802 34.8512C105.313 35.0014 105.038 35.3367 104.968 35.8384C104.947 35.9834 104.952 36.1316 104.935 36.2766C104.906 36.5204 104.996 36.6119 105.253 36.6046C105.834 36.5875 106.414 36.6046 106.995 36.5963C107.184 36.5937 107.254 36.6524 107.252 36.8484C107.243 37.7119 107.242 38.5758 107.251 39.4393C107.253 39.655 107.177 39.7267 106.963 39.7221C106.4 39.7111 105.836 39.7179 105.273 39.7184C104.94 39.7184 104.936 39.7221 104.936 40.049C104.936 42.5448 104.936 45.0405 104.936 47.5362C104.936 47.8772 104.936 47.8777 104.588 47.8783C103.592 47.8783 102.595 47.8725 101.599 47.8829C101.364 47.8855 101.284 47.8221 101.286 47.5768C101.298 46.3162 101.292 45.055 101.292 43.7944V43.7929Z" fill="#008182"></path>
  <path d="M140.47 42.2323C140.47 40.4618 140.474 38.6912 140.465 36.9207C140.464 36.6743 140.532 36.5906 140.786 36.5932C141.8 36.6057 142.814 36.6046 143.828 36.5932C144.062 36.5906 144.133 36.6696 144.119 36.8931C144.102 37.1686 144.114 37.4457 144.116 37.7223C144.116 37.78 144.096 37.8564 144.167 37.8818C144.235 37.9058 144.274 37.8403 144.316 37.7987C144.977 37.1442 145.762 36.7065 146.658 36.4632C146.925 36.3904 147.198 36.3421 147.477 36.3296C147.641 36.3223 147.711 36.391 147.711 36.5578C147.708 37.5596 147.707 38.5618 147.712 39.5635C147.713 39.7813 147.593 39.7709 147.439 39.7434C146.448 39.5672 145.53 39.7818 144.663 40.2637C144.278 40.4784 144.096 40.7633 144.103 41.2431C144.132 43.3328 144.115 45.4231 144.115 47.5133C144.115 47.7552 143.99 47.8764 143.74 47.8767C142.751 47.8767 141.763 47.871 140.776 47.8809C140.538 47.8835 140.464 47.8096 140.465 47.569C140.474 45.7896 140.47 44.0107 140.47 42.2313L140.47 42.2323Z" fill="#008182"></path>
  <path d="M108.748 42.2408C108.748 40.4619 108.752 38.683 108.743 36.9047C108.742 36.6656 108.81 36.5912 109.05 36.5938C110.064 36.6047 111.078 36.6058 112.091 36.5938C112.349 36.5907 112.41 36.6827 112.409 36.9244C112.403 40.4734 112.403 44.0223 112.409 47.5712C112.409 47.8129 112.334 47.8841 112.098 47.882C111.093 47.8722 110.087 47.8701 109.082 47.8831C108.825 47.8862 108.739 47.8207 108.741 47.5514C108.753 45.7814 108.747 44.0113 108.747 42.2408H108.748Z" fill="#008182"></path>
  <path d="M65.5247 31.8821C66.746 31.8821 67.9679 31.8821 69.1892 31.8821C69.4227 31.8821 69.4817 31.9875 69.3661 32.1982C68.8733 33.1001 68.3811 34.0025 67.8883 34.9044C67.5963 35.4388 67.1389 35.7123 66.5347 35.7138C64.0744 35.7195 61.614 35.7169 59.1536 35.7159C58.8815 35.7159 58.8601 35.6733 58.9907 35.4352C59.4815 34.5421 59.9732 33.6496 60.4613 32.7549C60.7746 32.1805 61.2476 31.8795 61.9117 31.8816C63.1158 31.8847 64.32 31.8826 65.5242 31.8826L65.5247 31.8821Z" fill="#008182"></path>
  <path d="M110.548 35.2306C109.387 35.2275 108.425 34.257 108.497 32.9761C108.56 31.8647 109.478 31.0293 110.688 31.0537C111.828 31.0766 112.689 32.0186 112.665 33.2199C112.642 34.3526 111.69 35.2576 110.548 35.2311V35.2306Z" fill="#008182"></path>
</svg>
