<?xml version="1.0" encoding="UTF-8"?>
<svg xmlns="http://www.w3.org/2000/svg" width="140" height="54" viewBox="0 0 140 54" fill="none">
  <g clip-path="url(#clip0_6990_10967)">
    <path d="M42.4492 34.0578V17.123H52.4584V19.2462H44.5218V24.453H51.6496V26.5762H44.5218V31.8841H53.0145V34.0072H42.4492V34.0578Z" fill="#E43225"></path>
    <path d="M63.5288 34.0577L60.0913 29.5586L56.6538 34.0577H54.2274L58.9287 28.042L53.9746 21.8242H56.7044L60.0913 26.475L63.5288 21.8242H66.2081L61.5068 28.042L65.9553 34.0577H63.5288Z" fill="#E43225"></path>
    <path d="M69.2923 32.2379V40.5789H67.2197V28.0927C67.2197 24.9079 69.6462 21.521 73.4376 21.521C77.2795 21.521 80.1609 23.9475 80.1609 27.941C80.1609 31.8335 77.2289 34.5127 73.8925 34.5127C72.2749 34.5127 70.1012 33.805 69.2923 32.2379ZM77.9872 27.941C77.9872 25.2113 76.2179 23.5936 73.0837 23.7453C71.5672 23.7958 69.2418 24.9079 69.444 28.8004C69.4945 30.0642 70.8089 32.4401 73.6903 32.4401C76.1673 32.4401 77.9872 31.0247 77.9872 27.941Z" fill="#E43225"></path>
    <path d="M81.9297 34.0577V21.8243H84.0023V23.1386C85.0133 21.9759 86.5804 21.5715 88.2486 21.5715V23.7958C87.9959 23.7452 85.5188 23.4419 84.0023 26.6772V34.1083H81.9297V34.0577Z" fill="#E43225"></path>
    <path d="M88.8047 27.941C88.8047 24.4024 91.3323 21.521 94.8203 21.521C99.1677 21.521 100.785 24.4024 100.785 28.0927V29.1037H91.0795C91.2312 31.4291 93.3038 32.6423 95.2247 32.5918C96.6402 32.5412 97.6006 32.1368 98.6117 31.1258L99.9765 32.5412C98.7128 33.7544 97.0951 34.5633 95.1236 34.5633C91.4334 34.5127 88.8047 31.7829 88.8047 27.941ZM94.6686 23.5936C92.6971 23.5936 91.1806 25.3124 91.0795 27.1828H98.6117C98.6117 25.3629 97.2973 23.5936 94.6686 23.5936Z" fill="#E43225"></path>
    <path d="M101.848 32.3391L103.364 30.9743C103.314 30.9743 104.122 31.7831 104.224 31.8336C104.577 32.1369 104.931 32.3391 105.386 32.4402C106.701 32.7941 109.077 32.693 109.279 30.8731C109.38 29.8621 108.622 29.306 107.762 28.9522C106.65 28.5478 105.437 28.3961 104.325 27.8906C103.061 27.3345 102.252 26.3741 102.252 24.9586C102.252 21.2684 107.509 20.6617 109.885 22.3805C109.986 22.4816 111.149 23.5432 111.099 23.5432L109.582 24.7564C108.824 23.8465 108.116 23.3915 106.498 23.3915C105.69 23.3915 104.577 23.7454 104.375 24.6048C104.072 25.818 105.437 26.273 106.347 26.5257C107.56 26.829 108.874 27.0312 109.936 27.6884C111.402 28.5983 111.756 30.5698 111.2 32.0864C110.593 33.7546 108.773 34.4117 107.156 34.4623C105.235 34.5634 103.566 33.9568 102.202 32.5919C102.1 32.5919 101.848 32.3391 101.848 32.3391Z" fill="#E43225"></path>
    <path d="M112.514 32.3391L114.03 30.9743C113.98 30.9743 114.788 31.7831 114.89 31.8336C115.243 32.1369 115.597 32.3391 116.052 32.4402C117.367 32.7941 119.743 32.693 119.945 30.8731C120.046 29.8621 119.288 29.306 118.428 28.9522C117.316 28.5478 116.103 28.3961 114.991 27.8906C113.727 27.3345 112.918 26.3741 112.918 24.9586C112.918 21.2684 118.175 20.6617 120.551 22.3805C120.652 22.4816 121.815 23.5432 121.765 23.5432L120.248 24.7564C119.49 23.8465 118.782 23.3915 117.164 23.3915C116.356 23.3915 115.243 23.7454 115.041 24.6048C114.738 25.818 116.103 26.273 117.013 26.5257C118.226 26.829 119.54 27.0312 120.602 27.6884C122.068 28.5983 122.422 30.5698 121.866 32.0864C121.259 33.7546 119.439 34.4117 117.822 34.4623C115.901 34.5634 114.232 33.9568 112.868 32.5919C112.766 32.5919 112.514 32.3391 112.514 32.3391Z" fill="#E43225"></path>
    <path d="M122.371 21.8244V20.5101H121.916V20.2573H123.129V20.5101H122.674V21.8244H122.371Z" fill="#E43225"></path>
    <path d="M124.646 21.8244V20.6112L124.191 21.8244H124.09L123.635 20.6112V21.8244H123.382V20.2573H123.786L124.191 21.3189L124.595 20.2573H124.999V21.8244H124.646Z" fill="#E43225"></path>
    <path d="M28.3961 34.0578L26.8796 30.0137H18.6903L17.1737 34.0578H15L21.5717 17.123H23.9476L30.4688 34.0578H28.3961ZM22.6838 19.5495L19.6002 27.9411H26.0202L22.6838 19.5495Z" fill="#F7971D"></path>
    <path d="M31.834 34.0578V17.123H33.9571V34.0578H31.834Z" fill="#F7971D"></path>
    <path d="M37.1416 34.0578V22.0771H39.2648V34.0578H37.1416Z" fill="#F7971D"></path>
    <path d="M41.2869 18.1847C41.2869 18.1342 41.2869 18.1342 41.2869 18.0836C41.2869 18.0331 41.2869 18.0331 41.2869 17.9825C39.6693 17.932 38.355 16.6176 38.3044 15C38.2538 15 38.2033 15 38.1527 15C38.1022 15 38.0516 15 38.0011 15C37.9505 16.6176 36.6362 17.932 35.0186 17.9825C35.0186 18.0331 35.0186 18.0331 35.0186 18.0836C35.0186 18.1342 35.0186 18.1342 35.0186 18.1847C36.6362 18.2353 37.9505 19.5496 38.0011 21.1673C38.0516 21.1673 38.1022 21.1673 38.1527 21.1673C38.2033 21.1673 38.2538 21.1673 38.3044 21.1673C38.355 19.5496 39.6693 18.2353 41.2869 18.1847Z" fill="#F7971D"></path>
  </g>
  <defs>
    <clipPath id="clip0_6990_10967">
      <rect width="110" height="25.579" fill="white" transform="translate(15 15)"></rect>
    </clipPath>
  </defs>
</svg>
