<?xml version="1.0" encoding="UTF-8"?>
<svg xmlns="http://www.w3.org/2000/svg" width="140" height="54" viewBox="0 0 140 54" fill="none">
  <g clip-path="url(#clip0_7936_9341)">
    <path d="M19.8209 24.244V23.8601C19.8203 23.6274 19.7487 23.4004 19.6156 23.2096C19.4824 23.0187 19.2941 22.8731 19.076 22.7923V22.3753C19.0753 22.0735 18.9551 21.7841 18.7416 21.5707C18.5282 21.3572 18.2388 21.237 17.937 21.2364H15.0056C14.8562 21.2354 14.7082 21.2644 14.5702 21.3216C14.4322 21.3788 14.3071 21.4631 14.2022 21.5694L10.1497 25.627C10.1058 25.672 10.0762 25.7288 10.0643 25.7904C10.0525 25.8521 10.059 25.9158 10.0832 25.9738C10.1073 26.0317 10.1479 26.0813 10.1999 26.1164C10.252 26.1515 10.3132 26.1705 10.376 26.1711C10.4171 26.1723 10.4581 26.1652 10.4965 26.1504C10.5349 26.1355 10.57 26.1132 10.5997 26.0847L14.6522 22.0169C14.7463 21.9235 14.8731 21.8706 15.0056 21.8694H17.937C18.0718 21.8694 18.2012 21.923 18.2965 22.0183C18.3919 22.1137 18.4454 22.243 18.4454 22.3779V22.7236H15.7505C15.6013 22.7236 15.4535 22.7529 15.3156 22.8101C15.1778 22.8672 15.0525 22.951 14.9471 23.0567L10.8946 27.1016C10.8433 27.1631 10.817 27.2416 10.8207 27.3216C10.8245 27.4016 10.8581 27.4773 10.9149 27.5338C10.9716 27.5902 11.0475 27.6234 11.1275 27.6267C11.2075 27.63 11.2859 27.6032 11.3471 27.5516L15.3971 23.4838C15.4912 23.3905 15.618 23.3376 15.7505 23.3363H18.6819C18.8167 23.3363 18.9461 23.3899 19.0414 23.4853C19.1368 23.5806 19.1904 23.71 19.1904 23.8448V24.1906H16.6099C16.4602 24.1904 16.312 24.2198 16.1737 24.2769C16.0355 24.3341 15.9098 24.4179 15.8039 24.5236L11.7539 28.5914C11.5408 28.805 11.421 29.0944 11.421 29.3961C11.421 29.6978 11.5408 29.9872 11.7539 30.2008L14.6776 33.1423C14.8912 33.3554 15.1806 33.4752 15.4823 33.4752C15.784 33.4752 16.0734 33.3554 16.287 33.1423L20.337 29.0745C20.4432 28.9713 20.528 28.848 20.5865 28.7119C20.645 28.5758 20.676 28.4294 20.6776 28.2813V25.3448C20.6771 25.0923 20.5926 24.8472 20.4375 24.6479C20.2824 24.4486 20.0655 24.3065 19.8209 24.244ZM16.6099 24.8465H19.5336C19.6684 24.8465 19.7978 24.9001 19.8931 24.9954C19.9885 25.0908 20.0421 25.2201 20.0421 25.355V28.2813C20.0368 28.4122 19.9813 28.5361 19.887 28.627L15.8471 32.6948C15.7523 32.7865 15.6256 32.8377 15.4937 32.8377C15.3619 32.8377 15.2352 32.7865 15.1404 32.6948L12.1963 29.7558C12.1046 29.661 12.0534 29.5343 12.0534 29.4025C12.0534 29.2706 12.1046 29.1439 12.1963 29.0491L16.2488 24.9813C16.2969 24.9357 16.3536 24.9003 16.4156 24.8772C16.4777 24.854 16.5437 24.8436 16.6099 24.8465Z" fill="#0B6CF7" stroke="#0B6CF7" stroke-width="0.24" stroke-miterlimit="10"></path>
    <path d="M25.1217 30.1959C25.0363 30.1952 24.9545 30.161 24.8941 30.1006C24.8337 30.0401 24.7995 29.9584 24.7988 29.873V24.1018C24.7995 24.0161 24.8336 23.9341 24.894 23.8733C24.9543 23.8125 25.0361 23.7777 25.1217 23.7764H26.7437C28.0861 23.7764 28.6861 24.445 28.6861 25.4747C28.6948 25.7619 28.6093 26.0441 28.4427 26.2782C28.2761 26.5123 28.0375 26.6854 27.7632 26.7713C28.1265 26.8445 28.4507 27.0474 28.6752 27.3422C28.8998 27.6369 29.0094 28.0033 28.9836 28.373C28.9836 29.4789 28.287 30.2035 27.0285 30.2035L25.1217 30.1959ZM25.4471 26.5933H26.7336C27.5802 26.5933 28.0302 26.156 28.0302 25.4874C28.0302 24.8187 27.6183 24.3815 26.7336 24.3815H25.4471V26.5933ZM25.4471 29.6187H27.0183C27.8853 29.6187 28.3251 29.1509 28.3251 28.3781C28.3251 27.6052 27.8166 27.1476 27.0183 27.1476H25.4471V29.6187Z" fill="black" stroke="black" stroke-width="0.24" stroke-miterlimit="10"></path>
    <path d="M30.7938 29.9492C30.7866 30.0303 30.7494 30.1056 30.6894 30.1606C30.6294 30.2155 30.551 30.2459 30.4697 30.2459C30.3883 30.2459 30.31 30.2155 30.25 30.1606C30.19 30.1056 30.1527 30.0303 30.1455 29.9492V24.1018C30.1452 24.0592 30.1533 24.0169 30.1694 23.9774C30.1854 23.938 30.2092 23.9021 30.2392 23.8718C30.2692 23.8416 30.3049 23.8176 30.3442 23.8012C30.3836 23.7848 30.4258 23.7764 30.4684 23.7764H32.3726C32.6134 23.7708 32.8528 23.8141 33.0764 23.9038C33.2999 23.9935 33.5029 24.1276 33.6731 24.298C33.8433 24.4684 33.9772 24.6716 34.0665 24.8953C34.1559 25.119 34.1989 25.3585 34.193 25.5992C34.2018 25.8312 34.1646 26.0627 34.0834 26.2802C34.0023 26.4977 33.8788 26.6969 33.7202 26.8664C33.5615 27.0359 33.3709 27.1723 33.1592 27.2677C32.9476 27.3631 32.7191 27.4156 32.487 27.4221L34.2311 29.7484C34.2679 29.7963 34.2907 29.8535 34.2968 29.9137C34.303 29.9738 34.2923 30.0345 34.2659 30.0888C34.2395 30.1432 34.1984 30.1892 34.1474 30.2215C34.0964 30.2539 34.0373 30.2714 33.9769 30.2721C33.9217 30.2729 33.8673 30.2595 33.8188 30.2332C33.7703 30.207 33.7293 30.1687 33.6998 30.1221L31.7548 27.4221H30.7938V29.9492ZM30.7938 26.8297H32.3853C32.5423 26.8273 32.6971 26.7931 32.8404 26.7293C32.9838 26.6654 33.1128 26.5733 33.2197 26.4583C33.3265 26.3434 33.409 26.2081 33.4623 26.0604C33.5155 25.9128 33.5383 25.7559 33.5294 25.5992C33.5385 25.44 33.5147 25.2806 33.4596 25.1309C33.4046 24.9812 33.3193 24.8445 33.2092 24.7291C33.099 24.6137 32.9664 24.5222 32.8194 24.4602C32.6725 24.3982 32.5143 24.3671 32.3548 24.3687H30.7938V26.8297Z" fill="black" stroke="black" stroke-width="0.24" stroke-miterlimit="10"></path>
    <path d="M36.1867 28.2992L35.4926 30.0432C35.4708 30.1096 35.4285 30.1675 35.372 30.2085C35.3154 30.2496 35.2473 30.2718 35.1774 30.272C35.092 30.2714 35.0102 30.2371 34.9498 30.1767C34.8894 30.1163 34.8552 30.0346 34.8545 29.9492C34.854 29.9003 34.8635 29.8518 34.8825 29.8068L37.2037 23.9212C37.2236 23.8562 37.2641 23.7994 37.3192 23.7595C37.3742 23.7196 37.4408 23.6987 37.5088 23.7C37.5772 23.7006 37.6439 23.7221 37.6998 23.7616C37.7557 23.8011 37.7981 23.8568 37.8215 23.9212L40.1477 29.8068C40.1652 29.8523 40.1747 29.9004 40.1757 29.9492C40.1719 30.026 40.1418 30.0992 40.0905 30.1565C40.0392 30.2138 39.9697 30.2518 39.8938 30.264C39.8178 30.2762 39.74 30.2619 39.6733 30.2236C39.6066 30.1853 39.5551 30.1252 39.5274 30.0534L38.841 28.2992H36.1867ZM37.5138 24.7881L36.3876 27.7068H38.6477L37.5138 24.7881Z" fill="black" stroke="black" stroke-width="0.24" stroke-miterlimit="10"></path>
    <path d="M45.1074 23.911C45.131 23.8491 45.1728 23.7958 45.2273 23.7582C45.2817 23.7205 45.3463 23.7002 45.4125 23.7C45.4988 23.7 45.5816 23.7342 45.6426 23.7953C45.7036 23.8563 45.7379 23.9391 45.7379 24.0254C45.7357 24.0742 45.7254 24.1223 45.7074 24.1677L43.4778 30.0533C43.4558 30.1168 43.4146 30.1717 43.3599 30.2107C43.3052 30.2496 43.2398 30.2705 43.1727 30.2705C43.1056 30.2705 43.0401 30.2496 42.9854 30.2107C42.9308 30.1717 42.8896 30.1168 42.8676 30.0533L40.6379 24.1677C40.62 24.1223 40.6097 24.0742 40.6074 24.0254C40.6074 23.9826 40.6158 23.9403 40.6322 23.9008C40.6485 23.8614 40.6725 23.8255 40.7027 23.7953C40.733 23.765 40.7688 23.7411 40.8083 23.7247C40.8478 23.7084 40.8901 23.7 40.9328 23.7C40.9991 23.7002 41.0636 23.7205 41.1181 23.7582C41.1725 23.7958 41.2143 23.8491 41.2379 23.911L43.1727 29.0415L45.1074 23.911Z" fill="black" stroke="black" stroke-width="0.24" stroke-miterlimit="10"></path>
    <path d="M46.3359 26.9923C46.3359 24.7322 47.4622 23.644 49.3105 23.644C51.1588 23.644 52.2851 24.7322 52.2851 26.9923C52.2851 29.2525 51.1588 30.3305 49.3105 30.3305C47.4622 30.3305 46.3359 29.2322 46.3359 26.9923ZM47.0046 26.9923C47.0046 28.8508 47.8512 29.7381 49.3105 29.7381C50.7698 29.7381 51.6164 28.8508 51.6164 26.9923C51.6164 25.1339 50.7698 24.2339 49.3105 24.2339C47.8512 24.2339 47.0046 25.1212 47.0046 26.9923Z" fill="black" stroke="black" stroke-width="0.24" stroke-miterlimit="10"></path>
    <path d="M55.381 24.2338C54.3793 24.2338 53.9979 24.7423 53.9979 25.2737C53.9979 26.8576 57.6005 26.1813 57.6005 28.4796C57.6005 29.672 56.7818 30.3304 55.3123 30.3304C54.2242 30.3304 53.4157 29.7762 53.0903 29.1559C53.0592 29.1044 53.0426 29.0456 53.042 28.9855C53.043 28.9185 53.0658 28.8537 53.1071 28.8009C53.1483 28.7481 53.2056 28.7102 53.2703 28.6929C53.335 28.6757 53.4036 28.68 53.4657 28.7053C53.5277 28.7306 53.5798 28.7754 53.614 28.833C53.7916 29.1207 54.0424 29.3561 54.3408 29.5151C54.6392 29.6742 54.9745 29.7511 55.3123 29.7381C56.3598 29.7381 56.9496 29.3186 56.9496 28.4796C56.9496 26.6999 53.3471 27.5364 53.3471 25.2737C53.3471 24.3965 53.9878 23.644 55.381 23.644C55.7747 23.6263 56.1667 23.7067 56.5217 23.878C56.8768 24.0493 57.1837 24.3061 57.4149 24.6253C57.4526 24.6789 57.473 24.7428 57.4733 24.8084C57.4737 24.8486 57.466 24.8884 57.4508 24.9256C57.4356 24.9627 57.4131 24.9965 57.3847 25.0249C57.3563 25.0533 57.3226 25.0757 57.2854 25.091C57.2482 25.1062 57.2084 25.1138 57.1683 25.1135C57.119 25.1148 57.0701 25.1042 57.0258 25.0825C56.9815 25.0608 56.9432 25.0287 56.914 24.9889C56.7362 24.751 56.5046 24.5585 56.2382 24.4273C55.9717 24.296 55.678 24.2297 55.381 24.2338Z" fill="#0B6CF7" stroke="#0B6CF7" stroke-width="0.24" stroke-miterlimit="10"></path>
    <path d="M59.6121 28.2991L58.918 30.0432C58.8958 30.1094 58.8535 30.167 58.797 30.208C58.7405 30.249 58.6726 30.2714 58.6028 30.272C58.5171 30.2713 58.4351 30.2372 58.3743 30.1769C58.3135 30.1165 58.2787 30.0348 58.2773 29.9491C58.2777 29.9001 58.288 29.8516 58.3079 29.8067L60.6316 23.9211C60.6522 23.8566 60.6929 23.8003 60.7478 23.7605C60.8027 23.7207 60.8689 23.6995 60.9367 23.7C61.0055 23.7004 61.0725 23.7218 61.1289 23.7613C61.1852 23.8008 61.2281 23.8566 61.2519 23.9211L63.5782 29.8067C63.5943 29.8526 63.6037 29.9006 63.6062 29.9491C63.6024 30.026 63.5723 30.0992 63.521 30.1565C63.4697 30.2138 63.4002 30.2517 63.3242 30.2639C63.2483 30.2762 63.1704 30.2619 63.1037 30.2236C63.037 30.1852 62.9855 30.1251 62.9579 30.0534L62.2714 28.2991H59.6121ZM60.9367 24.7881L59.8129 27.7067H62.0706L60.9367 24.7881Z" fill="#0B6CF7" stroke="#0B6CF7" stroke-width="0.24" stroke-miterlimit="10"></path>
    <path d="M68.543 23.911C68.5707 23.841 68.6218 23.7828 68.6876 23.7462C68.7534 23.7097 68.8298 23.6971 68.9039 23.7106C68.9779 23.7241 69.045 23.7628 69.0937 23.8202C69.1424 23.8776 69.1697 23.9501 69.1709 24.0254C69.1693 24.074 69.1599 24.1221 69.143 24.1678L66.9133 30.0534C66.89 30.116 66.8486 30.1704 66.7942 30.2093C66.7398 30.2483 66.6751 30.2701 66.6082 30.272C66.5412 30.2708 66.4761 30.2492 66.4216 30.2102C66.3672 30.1711 66.3258 30.1164 66.3031 30.0534L64.0709 24.1678C64.0552 24.1218 64.0458 24.0739 64.043 24.0254C64.0426 23.9826 64.0508 23.9401 64.0671 23.9005C64.0833 23.8608 64.1073 23.8248 64.1375 23.7945C64.1678 23.7642 64.2038 23.7403 64.2435 23.724C64.2831 23.7078 64.3256 23.6996 64.3684 23.7C64.4345 23.7006 64.499 23.721 64.5533 23.7586C64.6077 23.7963 64.6496 23.8493 64.6735 23.911L66.6082 29.0415L68.543 23.911Z" fill="#0B6CF7" stroke="#0B6CF7" stroke-width="0.24" stroke-miterlimit="10"></path>
    <path d="M70.7629 29.949C70.7557 30.03 70.7184 30.1054 70.6584 30.1603C70.5984 30.2153 70.52 30.2457 70.4387 30.2457C70.3574 30.2457 70.279 30.2153 70.219 30.1603C70.159 30.1054 70.1217 30.03 70.1146 29.949V24.0253C70.1106 23.9803 70.116 23.935 70.1305 23.8922C70.1449 23.8495 70.1682 23.8102 70.1987 23.7769C70.2291 23.7435 70.2662 23.7169 70.3076 23.6987C70.3489 23.6805 70.3935 23.6711 70.4387 23.6711C70.4839 23.6711 70.5285 23.6805 70.5699 23.6987C70.6112 23.7169 70.6483 23.7435 70.6788 23.7769C70.7093 23.8102 70.7325 23.8495 70.7469 23.8922C70.7614 23.935 70.7668 23.9803 70.7629 24.0253V29.949Z" fill="#0B6CF7" stroke="#0B6CF7" stroke-width="0.24" stroke-miterlimit="10"></path>
    <path d="M76.7677 24.0152V29.9491C76.767 30.0179 76.7446 30.0848 76.7038 30.1403C76.663 30.1957 76.6058 30.2369 76.5402 30.258C76.4747 30.2791 76.4042 30.279 76.3387 30.2578C76.2732 30.2366 76.216 30.1953 76.1753 30.1398L72.8219 25.0677V29.9593C72.8219 30.0429 72.7887 30.1231 72.7296 30.1822C72.6705 30.2413 72.5903 30.2745 72.5067 30.2745C72.4231 30.2745 72.3429 30.2413 72.2837 30.1822C72.2246 30.1231 72.1914 30.0429 72.1914 29.9593V24.0152C72.1921 23.9318 72.2255 23.852 72.2845 23.793C72.3435 23.734 72.4233 23.7006 72.5067 23.7C72.5565 23.7018 72.6052 23.7149 72.6492 23.7382C72.6932 23.7615 72.7314 23.7945 72.7609 23.8347L76.1346 28.9194V24.0152C76.1346 23.9316 76.1678 23.8514 76.227 23.7923C76.2861 23.7332 76.3663 23.7 76.4499 23.7C76.5335 23.7 76.6137 23.7332 76.6728 23.7923C76.7319 23.8514 76.7651 23.9316 76.7651 24.0152H76.7677Z" fill="#0B6CF7" stroke="#0B6CF7" stroke-width="0.24" stroke-miterlimit="10"></path>
    <path d="M82.6003 28.9754V27.5924H81.0088C80.935 27.5856 80.8664 27.5514 80.8165 27.4966C80.7665 27.4418 80.7388 27.3703 80.7388 27.2962C80.7388 27.2221 80.7665 27.1506 80.8165 27.0958C80.8664 27.041 80.935 27.0069 81.0088 27H82.9334C83.0099 27.0045 83.0819 27.0375 83.1351 27.0927C83.1884 27.1478 83.2189 27.2209 83.2207 27.2975V28.9653C83.2195 29.0817 83.1762 29.1937 83.0986 29.2805C82.8249 29.6212 82.4757 29.8934 82.0785 30.0756C81.6814 30.2579 81.2472 30.3452 80.8105 30.3305C78.9597 30.3305 77.8359 29.339 77.8359 26.9924C77.8359 24.7322 78.9597 23.6441 80.8105 23.6441C81.2226 23.6325 81.6317 23.7187 82.0041 23.8954C82.3766 24.0721 82.702 24.3345 82.9537 24.661C82.997 24.7181 83.0202 24.7878 83.0198 24.8593C83.019 24.9233 82.9982 24.9853 82.9604 25.0369C82.9227 25.0885 82.8698 25.127 82.8091 25.1472C82.7484 25.1673 82.683 25.168 82.6219 25.1492C82.5608 25.1305 82.507 25.0931 82.4681 25.0424C82.2734 24.7887 82.0222 24.584 81.7344 24.4445C81.4466 24.305 81.1303 24.2347 80.8105 24.239C79.341 24.239 78.502 25.1263 78.502 26.9975C78.502 28.9805 79.341 29.7432 80.8105 29.7432C81.1478 29.7619 81.4849 29.7023 81.7954 29.5691C82.1059 29.4359 82.3814 29.2327 82.6003 28.9754Z" fill="#0B6CF7" stroke="#0B6CF7" stroke-width="0.24" stroke-miterlimit="10"></path>
    <path d="M86.4312 24.2338C85.4295 24.2338 85.0481 24.7423 85.0481 25.2737C85.0481 26.8576 88.6507 26.1813 88.6507 28.4796C88.6507 29.672 87.832 30.3304 86.3625 30.3304C85.2769 30.3304 84.4659 29.7762 84.143 29.1559C84.112 29.1044 84.0953 29.0456 84.0947 28.9855C84.0957 28.9185 84.1186 28.8537 84.1598 28.8009C84.201 28.7481 84.2583 28.7102 84.3231 28.6929C84.3878 28.6757 84.4564 28.68 84.5184 28.7053C84.5804 28.7306 84.6325 28.7754 84.6668 28.833C84.8439 29.1205 85.0943 29.3558 85.3922 29.5148C85.6902 29.6739 86.025 29.7509 86.3625 29.7381C87.4125 29.7381 88.0024 29.3186 88.0024 28.4796C88.0024 26.6999 84.3998 27.5364 84.3998 25.2737C84.3998 24.3965 85.038 23.644 86.4337 23.644C86.8275 23.6263 87.2195 23.7067 87.5745 23.878C87.9295 24.0493 88.2364 24.3061 88.4676 24.6253C88.5054 24.6789 88.5258 24.7428 88.5261 24.8084C88.5254 24.8727 88.5045 24.9353 88.4664 24.9871C88.4283 25.039 88.3749 25.0776 88.3137 25.0975C88.2526 25.1175 88.1867 25.1177 88.1253 25.0982C88.064 25.0787 88.0103 25.0405 87.9718 24.9889C87.7933 24.7499 87.5605 24.5568 87.2926 24.4255C87.0247 24.2942 86.7294 24.2285 86.4312 24.2338Z" fill="#0B6CF7" stroke="#0B6CF7" stroke-width="0.24" stroke-miterlimit="10"></path>
    <path d="M94.3126 24.0152V29.9491C94.3119 30.0179 94.2896 30.0848 94.2487 30.1403C94.2079 30.1957 94.1507 30.2369 94.0851 30.258C94.0196 30.2791 93.9491 30.279 93.8836 30.2578C93.8181 30.2366 93.7609 30.1953 93.7202 30.1398L90.3668 25.0677V29.9593C90.3668 30.0429 90.3336 30.1231 90.2745 30.1822C90.2154 30.2413 90.1352 30.2745 90.0516 30.2745C89.968 30.2745 89.8878 30.2413 89.8287 30.1822C89.7695 30.1231 89.7363 30.0429 89.7363 29.9593V24.0152C89.7376 23.932 89.7713 23.8526 89.8301 23.7937C89.889 23.7349 89.9684 23.7013 90.0516 23.7C90.1015 23.7014 90.1503 23.7143 90.1944 23.7377C90.2385 23.7611 90.2766 23.7943 90.3058 23.8347L93.6796 28.9194V24.0152C93.6796 23.9316 93.7128 23.8514 93.7719 23.7923C93.831 23.7332 93.9112 23.7 93.9948 23.7C94.0784 23.7 94.1586 23.7332 94.2177 23.7923C94.2768 23.8514 94.3101 23.9316 94.3101 24.0152H94.3126Z" fill="#0B6CF7" stroke="#0B6CF7" stroke-width="0.24" stroke-miterlimit="10"></path>
    <path d="M96.0641 30.1959C96.0216 30.1962 95.9795 30.1881 95.9401 30.172C95.9008 30.1559 95.8651 30.1321 95.835 30.102C95.805 30.072 95.7812 30.0363 95.7651 29.9969C95.749 29.9576 95.7409 29.9155 95.7412 29.873V24.1018C95.7409 24.0592 95.749 24.0169 95.7651 23.9774C95.7811 23.938 95.8049 23.9021 95.8349 23.8718C95.8649 23.8416 95.9006 23.8176 95.94 23.8012C95.9793 23.7848 96.0215 23.7764 96.0641 23.7764H99.1149C99.1888 23.7832 99.2574 23.8174 99.3073 23.8722C99.3573 23.927 99.3849 23.9984 99.3849 24.0726C99.3849 24.1467 99.3573 24.2182 99.3073 24.2729C99.2574 24.3277 99.1888 24.3619 99.1149 24.3687H96.3895V26.6569H98.487C98.5608 26.6637 98.6294 26.6979 98.6793 26.7527C98.7293 26.8075 98.757 26.8789 98.757 26.9531C98.757 27.0272 98.7293 27.0987 98.6793 27.1534C98.6294 27.2082 98.5608 27.2424 98.487 27.2492H96.3895V29.5959H99.237C99.3152 29.5959 99.3902 29.6269 99.4455 29.6822C99.5008 29.7375 99.5319 29.8126 99.5319 29.8908C99.5319 29.969 99.5008 30.044 99.4455 30.0993C99.3902 30.1546 99.3152 30.1857 99.237 30.1857L96.0641 30.1959Z" fill="#0B6CF7" stroke="#0B6CF7" stroke-width="0.24" stroke-miterlimit="10"></path>
    <path d="M100.45 24.3865C100.41 24.3865 100.37 24.3786 100.333 24.3633C100.296 24.348 100.262 24.3255 100.234 24.2972C100.206 24.2689 100.183 24.2352 100.168 24.1982C100.152 24.1612 100.145 24.1215 100.145 24.0815C100.145 24.0414 100.152 24.0017 100.168 23.9647C100.183 23.9277 100.206 23.8941 100.234 23.8657C100.262 23.8374 100.296 23.8149 100.333 23.7996C100.37 23.7843 100.41 23.7764 100.45 23.7764H104.5C104.581 23.7764 104.658 23.8085 104.715 23.8657C104.773 23.9229 104.805 24.0005 104.805 24.0815C104.805 24.1624 104.773 24.24 104.715 24.2972C104.658 24.3544 104.581 24.3865 104.5 24.3865H102.796V29.9492C102.789 30.0303 102.752 30.1057 102.692 30.1606C102.632 30.2155 102.553 30.2459 102.472 30.2459C102.391 30.2459 102.312 30.2155 102.252 30.1606C102.192 30.1057 102.155 30.0303 102.148 29.9492V24.3865H100.45Z" fill="#0B6CF7" stroke="#0B6CF7" stroke-width="0.24" stroke-miterlimit="10"></path>
    <path d="M108.942 25.1694L107.569 30.0253C107.555 30.098 107.515 30.1633 107.457 30.2098C107.4 30.2562 107.328 30.281 107.254 30.2796C107.182 30.28 107.113 30.2572 107.056 30.2145C106.999 30.1718 106.958 30.1116 106.938 30.0431L105.253 24.1473C105.241 24.1102 105.234 24.0718 105.232 24.0329C105.232 23.9466 105.267 23.8639 105.328 23.8028C105.389 23.7418 105.472 23.7075 105.558 23.7075C105.629 23.708 105.698 23.7316 105.755 23.7746C105.812 23.8177 105.853 23.878 105.873 23.9465L107.264 28.8812L108.626 23.949C108.646 23.8806 108.688 23.8204 108.744 23.7775C108.801 23.7347 108.871 23.7115 108.942 23.7115C109.013 23.7115 109.082 23.7347 109.139 23.7775C109.196 23.8204 109.237 23.8806 109.257 23.949L110.62 28.8812L112.01 23.949C112.032 23.874 112.08 23.8092 112.145 23.7665C112.211 23.7238 112.289 23.7061 112.367 23.7166C112.444 23.7271 112.515 23.765 112.567 23.8236C112.619 23.8822 112.648 23.9574 112.649 24.0355C112.646 24.0741 112.64 24.1124 112.631 24.1499L110.932 30.0355C110.913 30.1039 110.872 30.1641 110.815 30.2068C110.758 30.2496 110.688 30.2724 110.617 30.2719C110.543 30.2732 110.472 30.2484 110.414 30.2019C110.357 30.1554 110.318 30.0901 110.304 30.0177L108.942 25.1694Z" fill="#0B6CF7" stroke="#0B6CF7" stroke-width="0.24" stroke-miterlimit="10"></path>
    <path d="M113.259 26.9923C113.259 24.7322 114.383 23.644 116.231 23.644C118.079 23.644 119.205 24.7322 119.205 26.9923C119.205 29.2525 118.082 30.3305 116.231 30.3305C114.38 30.3305 113.259 29.2322 113.259 26.9923ZM113.925 26.9923C113.925 28.8508 114.774 29.7381 116.231 29.7381C117.688 29.7381 118.539 28.8508 118.539 26.9923C118.539 25.1339 117.69 24.2339 116.231 24.2339C114.772 24.2339 113.925 25.1212 113.925 26.9923Z" fill="#0B6CF7" stroke="#0B6CF7" stroke-width="0.24" stroke-miterlimit="10"></path>
    <path d="M121.036 29.9492C121.029 30.0303 120.992 30.1056 120.932 30.1606C120.872 30.2155 120.793 30.2459 120.712 30.2459C120.631 30.2459 120.552 30.2155 120.492 30.1606C120.432 30.1056 120.395 30.0303 120.388 29.9492V24.1018C120.387 24.0592 120.395 24.0169 120.412 23.9774C120.428 23.938 120.451 23.9021 120.481 23.8718C120.511 23.8416 120.547 23.8176 120.586 23.8012C120.626 23.7848 120.668 23.7764 120.711 23.7764H122.607C122.848 23.7708 123.087 23.8141 123.311 23.9038C123.534 23.9935 123.738 24.1276 123.908 24.298C124.078 24.4684 124.212 24.6716 124.301 24.8953C124.39 25.119 124.433 25.3585 124.428 25.5992C124.436 25.8312 124.399 26.0627 124.318 26.2802C124.237 26.4977 124.113 26.6969 123.955 26.8664C123.796 27.0359 123.605 27.1723 123.394 27.2677C123.182 27.3631 122.954 27.4156 122.722 27.4221L124.466 29.7484C124.49 29.7834 124.508 29.823 124.517 29.8648C124.526 29.9066 124.527 29.9497 124.52 29.9919C124.512 30.034 124.497 30.0743 124.474 30.1104C124.451 30.1465 124.421 30.1777 124.386 30.2022C124.351 30.2267 124.311 30.2441 124.269 30.2534C124.227 30.2627 124.184 30.2636 124.142 30.2561C124.1 30.2487 124.06 30.233 124.024 30.2101C123.988 30.1871 123.956 30.1572 123.932 30.1221L121.997 27.4221H121.036V29.9492ZM121.036 26.8297H122.628C122.784 26.8273 122.939 26.7931 123.083 26.7293C123.226 26.6654 123.355 26.5733 123.462 26.4583C123.569 26.3434 123.651 26.2081 123.704 26.0604C123.758 25.9128 123.781 25.7559 123.772 25.5992C123.781 25.44 123.757 25.2806 123.702 25.1309C123.647 24.9812 123.561 24.8445 123.451 24.7291C123.341 24.6137 123.209 24.5222 123.062 24.4602C122.915 24.3982 122.757 24.3671 122.597 24.3687H121.036V26.8297Z" fill="#0B6CF7" stroke="#0B6CF7" stroke-width="0.24" stroke-miterlimit="10"></path>
    <path d="M129.011 23.8245C129.041 23.7857 129.079 23.7544 129.124 23.7328C129.168 23.7112 129.216 23.7 129.265 23.6999C129.354 23.7005 129.439 23.7361 129.502 23.7989C129.564 23.8617 129.6 23.9467 129.601 24.0355C129.599 24.1213 129.564 24.2032 129.504 24.2643L127.513 26.4965L129.819 29.7482C129.862 29.8063 129.885 29.8767 129.885 29.949C129.886 29.9915 129.878 30.0337 129.861 30.073C129.845 30.1123 129.822 30.148 129.792 30.1781C129.762 30.2081 129.726 30.2319 129.686 30.248C129.647 30.2641 129.605 30.2723 129.562 30.2719C129.508 30.2717 129.453 30.2579 129.405 30.2318C129.357 30.2056 129.316 30.1678 129.285 30.1219L127.074 26.9719L126.235 27.9177V29.9516C126.227 30.0326 126.19 30.108 126.13 30.1629C126.07 30.2178 125.992 30.2483 125.91 30.2483C125.829 30.2483 125.751 30.2178 125.691 30.1629C125.631 30.108 125.593 30.0326 125.586 29.9516V24.0253C125.582 23.9803 125.588 23.935 125.602 23.8922C125.617 23.8495 125.64 23.8102 125.67 23.7769C125.701 23.7435 125.738 23.7169 125.779 23.6987C125.821 23.6805 125.865 23.6711 125.91 23.6711C125.956 23.6711 126 23.6805 126.042 23.6987C126.083 23.7169 126.12 23.7435 126.15 23.7769C126.181 23.8102 126.204 23.8495 126.219 23.8922C126.233 23.935 126.239 23.9803 126.235 24.0253V26.9999L129.011 23.8245Z" fill="#0B6CF7" stroke="#0B6CF7" stroke-width="0.24" stroke-miterlimit="10"></path>
  </g>
  <defs>
    <clipPath id="clip0_7936_9341">
      <rect width="120" height="12.7119" fill="white" transform="translate(10 21)"></rect>
    </clipPath>
  </defs>
</svg>
