<?xml version="1.0" encoding="UTF-8"?>
<svg xmlns="http://www.w3.org/2000/svg" width="200" height="80" viewBox="0 0 200 80" fill="none">
  <rect width="200" height="80" fill="white"></rect>
  <g clip-path="url(#clip0_7936_8928)">
    <path fill-rule="evenodd" clip-rule="evenodd" d="M39.0527 20.4069H47.2779C51.8562 20.4069 54.2437 22.7694 54.2437 25.6831C54.2437 27.6912 53.1155 29.0562 51.5413 29.765V29.8175C53.5484 30.5394 54.6766 32.1275 54.6766 34.1619C54.6766 37.0625 52.4465 39.6087 47.6059 39.6087H39.0527V20.4069ZM47.0155 28.0194C48.3798 28.0194 48.9964 27.3237 48.9964 26.5494C48.9964 25.775 48.3798 25.0531 47.0155 25.0531H44.6018V28.0062H47.0155V28.0194ZM47.0942 34.9625C48.5373 34.9625 49.2325 34.2669 49.2325 33.3744C49.2325 32.4819 48.511 31.7862 47.1205 31.7862H44.6018V34.9625H47.0942ZM55.8573 31.7994V20.4069H61.4588V31.7469C61.4588 33.8862 62.5082 35.015 64.3054 35.015C66.1026 35.015 67.2308 33.8862 67.2308 31.7206V20.4069H72.8585V31.7994C72.8585 36.6294 69.6183 40.1075 64.3054 40.1075C58.9925 40.1075 55.8573 36.6294 55.8573 31.7994ZM87.1312 21.3387V26.2737C85.9244 25.4206 83.8648 24.83 82.1988 24.83C80.677 24.83 79.9162 25.3156 79.9162 25.9587C79.9162 26.6019 80.7689 26.93 82.2775 27.4812C84.8487 28.3869 88.3381 29.5944 88.3381 33.6762C88.3381 37.325 85.5833 40.0287 80.7557 40.0287C78.2633 40.0287 75.9807 39.3069 74.5639 38.3619V33.1644C75.9545 34.2931 78.0534 35.1987 80.0867 35.1987C81.8052 35.1987 82.6054 34.5556 82.6054 33.8337C82.6054 32.9019 81.2936 32.495 79.7325 31.9306C77.673 31.1825 74.4196 29.8437 74.4196 26.1162C74.4065 22.7562 77.0564 20 81.779 20C83.8648 20 85.7407 20.5381 87.1312 21.3387ZM89.768 20.4069H95.3695V39.6087H89.768V20.4069ZM115.283 39.6219H109.944L103.031 29.3187H103.004V39.6219H97.6914V20.4069H103.031L109.944 30.5394H109.97V20.4069H115.283V39.6219ZM117.605 20.4069H130.868V25.3944H123.207V27.7044H130.094V32.2325H123.207V34.6212H130.868V39.6087H117.605V20.4069ZM144.917 21.3387V26.2737C143.71 25.4206 141.651 24.83 139.985 24.83C138.463 24.83 137.702 25.3156 137.702 25.9587C137.702 26.6019 138.555 26.93 140.063 27.4812C142.635 28.3869 146.124 29.5944 146.124 33.6762C146.124 37.325 143.369 40.0287 138.542 40.0287C136.049 40.0287 133.767 39.3069 132.35 38.3619V33.1644C133.74 34.2931 135.839 35.1987 137.873 35.1987C139.591 35.1987 140.391 34.5556 140.391 33.8337C140.391 32.9019 139.08 32.495 137.519 31.9306C135.459 31.1825 132.206 29.8437 132.206 26.1162C132.193 22.7562 134.842 20 139.565 20C141.651 20 143.527 20.5381 144.917 21.3387ZM159.741 21.3387V26.2737C158.534 25.4206 156.474 24.83 154.808 24.83C153.287 24.83 152.526 25.3156 152.526 25.9587C152.526 26.6019 153.379 26.93 154.887 27.4812C157.458 28.3869 160.948 29.5944 160.948 33.6762C160.948 37.325 158.193 40.0287 153.365 40.0287C150.873 40.0287 148.59 39.3069 147.174 38.3619V33.1644C148.564 34.2931 150.663 35.1987 152.696 35.1987C154.415 35.1987 155.215 34.5556 155.215 33.8337C155.215 32.9019 153.903 32.495 152.342 31.9306C150.283 31.1825 147.029 29.8437 147.029 26.1162C147.016 22.7562 149.666 20 154.389 20C156.474 20 158.35 20.5381 159.741 21.3387ZM51.3446 61.5931H56.9461V42.3912H51.3446V61.5931ZM76.8596 42.3912H71.5336V52.5237H71.5074L64.594 42.3912H59.2549V61.5931H64.5809V51.29H64.6071L71.5205 61.5931H76.8596V42.3912ZM85.885 41.9712C81.1624 41.9712 78.5125 44.7275 78.5125 48.0875C78.5125 51.815 81.779 53.1537 83.8254 53.9019C85.3996 54.4662 86.6983 54.8731 86.6983 55.805C86.6983 56.5269 85.8981 57.17 84.1796 57.17C82.1463 57.17 80.0474 56.2644 78.6568 55.1356V60.3331C80.0736 61.2781 82.3562 62 84.8487 62C89.6762 62 92.431 59.2962 92.431 55.6475C92.431 51.5656 88.9416 50.345 86.3704 49.4525C84.8487 48.9144 84.0091 48.5994 84.0091 47.93C84.0091 47.2606 84.7831 46.8012 86.2917 46.8012C87.9577 46.8012 90.0173 47.3919 91.2241 48.245V43.31C89.8336 42.5094 87.9577 41.9712 85.885 41.9712ZM93.7428 61.5931H99.3444V42.3912H93.7428V61.5931ZM107.255 56.5269H108.33C111.23 56.5269 113.105 54.8862 113.105 51.9987C113.105 49.1112 111.23 47.4444 108.33 47.4444H107.255V56.5269ZM118.773 51.9987C118.773 57.7869 114.404 61.5931 108.134 61.5931H101.653V42.3912H108.134C114.404 42.3912 118.773 46.2237 118.773 51.9987ZM120.281 61.5931H133.544V56.6056H125.883V54.2169H132.77V49.6887H125.883V47.3787H133.544V42.3912H120.281V61.5931ZM142.359 51.4606C143.776 51.4606 144.878 50.7912 144.878 49.4525C144.878 48.1137 143.776 47.4444 142.333 47.4444H141.152V51.4606H142.359ZM151.529 61.5931H144.93L141.283 55.6606H141.152V61.5931H135.551V42.3912H142.385C147.187 42.3912 150.532 44.5306 150.532 49.0719C150.532 50.87 149.732 53.495 146.544 54.8337L151.529 61.5931Z" fill="#111111"></path>
  </g>
  <defs>
    <clipPath id="clip0_7936_8928">
      <rect width="122" height="42" fill="white" transform="translate(39 20)"></rect>
    </clipPath>
  </defs>
</svg>
