<?xml version="1.0" encoding="UTF-8"?>
<svg xmlns="http://www.w3.org/2000/svg" width="140" height="54" viewBox="0 0 140 54" fill="none">
  <g clip-path="url(#clip0_6998_50769)">
    <path d="M39.7733 29.1091C39.7733 31.6564 39.7733 34.2055 39.7733 36.7529C39.7733 37.6085 39.6203 37.7633 38.7558 37.7561C38.2666 37.7526 37.7774 37.7473 37.29 37.7241C36.7101 37.6974 36.5215 37.4964 36.518 36.9272C36.5108 35.4312 36.5108 33.9351 36.5055 32.4391C36.5055 32.3057 36.4948 32.1723 36.477 32.0406C36.4415 31.7631 36.2974 31.6511 36.0145 31.7418C35.0415 32.0495 34.0667 32.3573 33.0901 32.6561C32.7414 32.7629 32.5938 32.9817 32.5938 33.3445C32.5938 34.5293 32.5795 35.714 32.5706 36.8987C32.5653 37.5338 32.3607 37.7526 31.7221 37.7615C31.16 37.7686 30.5961 37.7455 30.034 37.7401C29.6764 37.7366 29.4861 37.5462 29.4416 37.2065C29.4185 37.0304 29.4167 36.8525 29.4185 36.6746C29.4256 31.8307 29.4327 26.9851 29.4416 22.1412C29.4416 21.2571 29.575 20.3801 29.945 19.5868C30.2937 18.8414 30.911 18.3078 31.7648 18.1726C33.2359 17.9395 34.7213 18.0516 36.1995 18.0641C36.5998 18.0676 36.9947 18.0978 37.3914 18.1761C38.617 18.4198 39.2521 19.2541 39.5972 20.3641C39.7608 20.8907 39.7644 21.4457 39.7644 21.9954C39.7644 24.3666 39.7644 26.736 39.7644 29.1073C39.7679 29.1073 39.7697 29.1073 39.7733 29.1073V29.1091ZM32.6044 25.5282C32.5938 25.5282 32.5831 25.5282 32.5724 25.5282C32.5724 26.7859 32.576 28.0435 32.5706 29.3012C32.5706 29.6552 32.6969 29.7957 33.058 29.6819C34.0453 29.3688 35.0326 29.0592 36.0216 28.7604C36.3507 28.6608 36.5073 28.4758 36.5055 28.1218C36.4966 25.9907 36.5019 23.8596 36.4895 21.7303C36.4859 21.2233 36.2209 20.944 35.7157 20.864C35.0237 20.7555 34.3264 20.8124 33.6344 20.864C32.809 20.9263 32.6116 21.1468 32.6062 21.9758C32.5991 23.1587 32.6044 24.3435 32.6044 25.5264V25.5282Z" fill="#F2752D"></path>
    <path d="M65.6486 27.9545C65.6486 30.8007 65.6486 33.6451 65.6486 36.4913C65.6486 36.639 65.6486 36.7884 65.6397 36.936C65.6077 37.5159 65.428 37.7152 64.8588 37.7436C64.3411 37.7703 63.8217 37.7863 63.304 37.7685C62.6494 37.7472 62.4199 37.5088 62.4146 36.8649C62.4039 35.3831 62.4057 33.9013 62.4021 32.4195C62.4021 32.3608 62.4057 32.3003 62.4021 32.2416C62.3808 31.5887 62.331 31.5727 61.7119 31.7809C60.8136 32.0833 59.9082 32.3643 58.9992 32.6294C58.5349 32.7646 58.3855 33.0367 58.3979 33.5099C58.4264 34.6199 58.4193 35.7335 58.4015 36.8435C58.389 37.6031 58.3107 37.6778 57.5636 37.7258C57.0762 37.7579 56.587 37.7561 56.0978 37.7525C55.3649 37.7472 55.1675 37.5586 55.1621 36.8275C55.1533 35.376 55.1586 33.9226 55.1586 32.4711C55.1604 28.5291 55.1657 24.5871 55.1657 20.6451C55.1657 20.0528 55.1283 19.4622 55.1888 18.868C55.2315 18.4447 55.413 18.2152 55.863 18.2223C56.4999 18.2294 57.1367 18.2294 57.7735 18.2116C58.2254 18.1992 58.3801 18.4447 58.3872 18.8431C58.3979 19.4355 58.4032 20.0279 58.405 20.622C58.4121 23.4522 58.4139 26.2824 58.4228 29.1126C58.4246 29.7672 58.4869 29.8134 59.1255 29.6124C60.0718 29.3153 61.0093 28.9898 61.9557 28.691C62.3132 28.5771 62.4217 28.3548 62.4199 27.9919C62.4093 25.0727 62.4128 22.1536 62.411 19.2327C62.411 18.3522 62.5587 18.1956 63.4357 18.1938C63.9106 18.1938 64.3838 18.1938 64.8588 18.1974C65.4262 18.201 65.613 18.3611 65.6255 18.9303C65.6468 19.9087 65.6433 20.8871 65.645 21.8637C65.6468 23.8933 65.645 25.9248 65.645 27.9545H65.6468H65.6486Z" fill="#F2752D"></path>
    <path d="M52.6538 32.0424C52.6538 32.9461 52.6734 33.8498 52.6467 34.7534C52.6289 35.3173 52.5008 35.8652 52.2535 36.3846C51.7306 37.4875 50.754 37.8255 49.6582 37.8575C48.0608 37.9038 46.458 37.9767 44.8623 37.8006C43.457 37.6459 42.4804 36.6639 42.3097 35.2657C42.194 34.3212 42.1798 33.3748 42.1887 32.4249C42.194 31.8788 42.3844 31.6866 42.9323 31.6351C43.4642 31.5853 43.9943 31.5408 44.5261 31.5016C45.0918 31.4607 45.2946 31.6137 45.332 32.1847C45.3675 32.7451 45.348 33.3072 45.3515 33.8693C45.3586 34.8459 45.6646 35.1412 46.6394 35.1323C47.2176 35.127 47.7957 35.1359 48.3721 35.1359C49.1156 35.1359 49.4714 34.8548 49.491 34.1201C49.5265 32.7735 49.5194 31.4234 49.5016 30.0768C49.4945 29.5894 49.2259 29.3225 48.7421 29.2371C47.8153 29.0717 46.8796 29.1429 45.9492 29.1695C45.09 29.1945 44.3038 29.029 43.5904 28.5505C43.144 28.2499 42.8611 27.8194 42.6583 27.3355C42.4449 26.8232 42.3595 26.2753 42.3524 25.7274C42.3292 24.009 42.2865 22.2907 42.4377 20.574C42.532 19.5067 43.53 18.37 44.5902 18.1975C46.3584 17.9075 48.139 17.9858 49.9108 18.1317C51.156 18.2348 52.1682 19.3609 52.3318 20.6078C52.4457 21.4777 52.4688 22.3476 52.4386 23.2228C52.4225 23.6604 52.2002 23.897 51.8071 23.9468C51.1916 24.0268 50.5743 24.1122 49.9499 24.1087C49.6226 24.1069 49.4625 23.9503 49.3825 23.6604C49.2811 23.2975 49.3184 22.9257 49.3077 22.5557C49.3042 22.4223 49.322 22.2889 49.3184 22.1555C49.3006 21.0935 49.0231 20.8035 47.97 20.7946C47.4666 20.7911 46.9614 20.7946 46.4615 20.8462C45.8407 20.9103 45.5863 21.186 45.5792 21.805C45.565 23.02 45.5686 24.235 45.5863 25.4499C45.5952 26.0547 45.8834 26.318 46.4971 26.3767C47.2656 26.4497 48.0358 26.4283 48.8061 26.4283C49.2971 26.4283 49.7791 26.4995 50.2648 26.5582C51.6416 26.7254 52.4136 27.7589 52.6164 29.0237C52.6662 29.3296 52.684 29.6427 52.6876 29.954C52.6983 30.6496 52.6912 31.3469 52.6912 32.0424C52.6805 32.0424 52.6698 32.0424 52.6574 32.0424H52.6538Z" fill="#F2752D"></path>
    <path d="M17.0197 28.12C17.0197 26.0761 17.002 24.0304 17.0286 21.9865C17.0393 21.2073 17.0518 20.414 17.4502 19.6953C17.9519 18.7899 18.6937 18.2188 19.7325 18.1317C21.3566 17.9965 22.9896 17.952 24.6102 18.1495C26.0386 18.3238 26.9672 19.2951 27.122 20.7253C27.2198 21.6218 27.2305 22.529 27.1949 23.4327C27.17 24.0464 27.0419 24.1745 26.4264 24.2457C25.8963 24.3061 25.3662 24.3542 24.8343 24.3897C24.3665 24.4218 24.1406 24.2296 24.1174 23.7529C24.0872 23.1463 24.1014 22.5379 24.0836 21.9313C24.0623 21.1931 23.6941 20.8107 22.9523 20.7857C22.4204 20.768 21.885 20.7697 21.3531 20.8053C20.5793 20.8569 20.2733 21.202 20.2715 21.9758C20.2644 25.8573 20.2591 29.7388 20.2537 33.6203C20.2537 33.7537 20.2537 33.8871 20.2626 34.0205C20.3178 34.7748 20.6237 35.0879 21.3851 35.1163C21.9614 35.1377 22.5414 35.1359 23.1177 35.1074C23.7777 35.0754 24.0125 34.8157 24.0374 34.1611C24.0605 33.5402 24.0641 32.9159 24.1103 32.2968C24.1566 31.6546 24.2864 31.5479 24.909 31.4554C25.4534 31.3754 25.9977 31.3416 26.5474 31.3309C26.9423 31.3238 27.1629 31.4768 27.1682 31.8966C27.1824 33.0813 27.2678 34.282 27.0455 35.4436C26.7697 36.8863 26.188 37.5729 24.6422 37.7829C22.9968 38.0052 21.3282 37.9607 19.6756 37.8024C18.4339 37.6832 17.4182 36.6906 17.1585 35.4436C16.9041 34.2251 17.0429 32.9924 17.0162 31.7649C16.9913 30.55 17.0109 29.335 17.0109 28.12C17.0144 28.12 17.018 28.12 17.0215 28.12H17.0197Z" fill="#F2752D"></path>
    <path d="M94.8331 28.12C94.8331 25.1404 94.8331 22.1626 94.8331 19.183C94.8331 18.539 94.9398 18.4269 95.5802 18.4252C97.521 18.4216 99.4635 18.4287 101.404 18.4323C101.897 18.4323 102.384 18.4981 102.849 18.6582C104.113 19.0958 104.772 20.0493 104.841 21.3354C104.989 24.0446 104.985 26.7592 104.832 29.4666C104.768 30.6069 104.204 31.4892 103.137 31.9855C102.826 32.1296 102.765 32.3021 102.92 32.6117C103.635 34.0401 104.341 35.4739 105.04 36.9112C105.416 37.6814 105.371 37.7473 104.512 37.7579C104.112 37.7633 103.711 37.7544 103.311 37.7508C102.689 37.7455 102.246 37.4413 101.945 36.9112C101.308 35.7887 100.789 34.6075 100.262 33.4317C100.031 32.9158 99.6983 32.6597 99.1308 32.7077C98.88 32.7291 98.6274 32.7219 98.3748 32.7113C97.9924 32.6935 97.8518 32.8625 97.8554 33.2432C97.8714 34.4439 97.8643 35.6446 97.8643 36.8436C97.8643 37.6672 97.7504 37.7757 96.9464 37.7633C96.4714 37.7561 95.9983 37.7633 95.5233 37.7579C94.9185 37.7508 94.8278 37.6654 94.8278 37.0553C94.8242 34.0757 94.8278 31.0978 94.8278 28.1182H94.8313L94.8331 28.12ZM97.9123 25.5851C97.9123 25.5851 97.907 25.5851 97.9034 25.5851C97.9034 26.9175 97.9088 28.2516 97.8999 29.584C97.8981 29.9647 98.0173 30.1604 98.4371 30.1497C99.2073 30.1284 99.9776 30.1515 100.748 30.1355C101.507 30.1195 101.84 29.801 101.844 29.0415C101.853 26.6862 101.847 24.331 101.837 21.9758C101.833 21.339 101.513 21.0312 100.869 21.0205C100.084 21.0063 99.2981 21.0099 98.5136 21.0116C97.9586 21.0116 97.9176 21.0508 97.9159 21.6289C97.9123 22.9471 97.9159 24.2652 97.9159 25.5851H97.9123Z" fill="#1D30B9"></path>
    <path d="M91.7175 29.3136C91.7175 31.8183 91.7175 34.3229 91.7175 36.8276C91.7175 37.548 91.6606 37.6067 90.9295 37.6156C90.426 37.621 89.9226 37.6263 89.4174 37.6263C88.825 37.6245 88.6756 37.4858 88.6721 36.8934C88.6649 35.3814 88.6721 33.8711 88.6703 32.3591C88.6685 31.3825 88.6667 31.3878 87.7186 31.7027C86.8185 32.0015 85.9201 32.3057 85.0111 32.5707C84.6394 32.6793 84.5166 32.8749 84.5202 33.2378C84.5326 34.4386 84.5291 35.6393 84.5255 36.8382C84.5237 37.5285 84.4046 37.6405 83.7215 37.6334C83.2465 37.6281 82.7733 37.621 82.2984 37.621C81.7185 37.621 81.5904 37.5071 81.5886 36.9219C81.5833 34.1059 81.5779 31.29 81.5833 28.474C81.5868 26.2949 81.6064 24.1175 81.6206 21.9384C81.626 21.065 81.8145 20.2325 82.213 19.4551C82.615 18.6706 83.323 18.2917 84.1537 18.2295C85.8241 18.1067 87.5016 18.1174 89.1737 18.2153C90.41 18.2864 91.472 19.4658 91.6339 20.8693C91.705 21.4902 91.7139 22.111 91.7139 22.7336C91.7104 24.9269 91.7139 27.1203 91.7139 29.3136H91.721H91.7175ZM84.5255 25.6314C84.5255 26.905 84.5255 28.1769 84.5255 29.4506C84.5255 29.7512 84.5664 29.9967 84.9809 29.8615C86.0767 29.5022 87.1743 29.15 88.2754 28.812C88.5689 28.7213 88.6703 28.5541 88.6649 28.2623C88.6561 27.67 88.6685 27.0794 88.6685 26.487C88.6685 24.9483 88.6649 23.4078 88.6614 21.8691C88.6578 21.0099 88.375 20.7163 87.5265 20.7021C86.9501 20.6932 86.372 20.6861 85.7956 20.6968C84.8279 20.7146 84.5326 21.0116 84.5255 21.99C84.5166 23.2032 84.5237 24.4182 84.5255 25.6314Z" fill="#1D30B9"></path>
    <path d="M117.78 28.0738C117.78 30.0288 117.78 31.9838 117.78 33.9387C117.78 34.6236 117.703 35.2978 117.479 35.9506C117.068 37.1514 116.209 37.7811 114.971 37.8789C113.552 37.991 112.127 37.9661 110.707 37.9163C108.523 37.838 107.43 36.6978 107.397 34.307C107.338 30.1604 107.322 26.0121 107.413 21.8655C107.427 21.1878 107.58 20.5118 107.85 19.8803C108.224 19.0033 108.909 18.4661 109.841 18.3701C111.609 18.1886 113.39 18.0997 115.158 18.3505C116.617 18.5586 117.494 19.5121 117.712 20.9672C117.821 21.6894 117.783 22.417 117.789 23.141C117.799 24.7847 117.792 26.4283 117.792 28.0738C117.789 28.0738 117.785 28.0738 117.783 28.0738H117.78ZM114.752 28.0685C114.752 28.0685 114.745 28.0685 114.742 28.0685C114.742 26.037 114.743 24.0073 114.742 21.9758C114.742 21.1931 114.427 20.8551 113.646 20.8338C112.95 20.8142 112.251 20.8142 111.557 20.8498C110.68 20.8961 110.465 21.1184 110.446 21.9972C110.362 26.0441 110.428 30.0893 110.417 34.1362C110.417 34.2821 110.447 34.4315 110.476 34.5756C110.559 34.9954 110.785 35.248 111.241 35.3102C111.967 35.4099 112.691 35.3707 113.416 35.3672C114.416 35.3636 114.751 35.0221 114.752 34.0277C114.754 32.0407 114.752 30.0555 114.752 28.0685Z" fill="#1D30B9"></path>
    <path d="M68.5361 28.1004C68.5361 25.151 68.5361 22.2034 68.5361 19.2541C68.5361 18.5763 68.6909 18.418 69.374 18.4144C69.8934 18.4109 70.4111 18.4109 70.9305 18.4216C71.4606 18.434 71.5531 18.5212 71.5549 19.0495C71.562 21.1824 71.562 23.317 71.5638 25.4499C71.5638 25.6278 71.5549 25.8056 71.5709 25.9835C71.5922 26.2183 71.4908 26.5261 71.8502 26.599C72.2148 26.672 72.5546 26.6577 72.7912 26.2913C73.1399 25.7523 73.3498 25.1475 73.6273 24.5764C74.506 22.7673 75.3581 20.944 76.2084 19.1206C76.4343 18.635 76.7634 18.3842 77.3149 18.4144C77.9054 18.4465 78.4996 18.4251 79.0919 18.45C79.5278 18.4678 79.6292 18.6243 79.4459 19.0139C79.0101 19.9371 78.5547 20.8497 78.1011 21.764C77.1726 23.6336 76.2404 25.4997 75.3101 27.3693C75.1446 27.7019 75.1944 28.0363 75.3492 28.3548C75.9878 29.6569 76.6336 30.9555 77.2757 32.2558C78.0798 33.8888 78.8838 35.5218 79.6808 37.1584C79.8978 37.6049 79.8088 37.7508 79.3072 37.7597C78.6401 37.7703 77.973 37.7543 77.3077 37.765C76.9075 37.7703 76.6264 37.6049 76.4539 37.2473C75.9398 36.18 75.4239 35.1145 74.9152 34.0471C74.241 32.6312 73.5721 31.2116 72.9015 29.7939C72.7396 29.4523 72.5208 29.2033 72.0974 29.2051C71.6509 29.2051 71.5602 29.4577 71.5638 29.8383C71.5727 31.1423 71.5638 32.4462 71.5673 33.7501C71.5673 34.8316 71.5798 35.9132 71.578 36.9947C71.578 37.6636 71.4784 37.7561 70.7971 37.7614C70.2777 37.765 69.76 37.7703 69.2406 37.7668C68.6945 37.7632 68.5539 37.6351 68.5468 37.0819C68.5344 35.8082 68.5379 34.5328 68.5379 33.2591C68.5379 31.5407 68.5379 29.8223 68.5379 28.1022C68.5379 28.1022 68.5379 28.1022 68.5361 28.1022V28.1004Z" fill="#1D30B9"></path>
    <path d="M124.362 23.8934C123.622 23.8525 122.884 23.8151 122.144 23.7635C122.005 23.7546 121.795 23.792 121.743 23.6461C121.681 23.4736 121.9 23.4237 122.01 23.3473C122.841 22.7816 123.682 22.2283 124.515 21.6627C124.847 21.4368 124.851 21.2998 124.515 21.0739C123.691 20.5224 122.855 19.987 122.028 19.4391C121.916 19.3644 121.704 19.3217 121.761 19.1385C121.804 19.0033 121.992 19.0335 122.12 19.0264C123.54 18.9428 124.958 18.8627 126.377 18.7898C126.521 18.7827 126.769 18.7097 126.763 18.9463C126.758 19.1562 126.511 19.1064 126.361 19.1153C125.312 19.1829 124.262 19.2381 123.213 19.3003C123.058 19.3092 122.844 19.2594 122.798 19.464C122.761 19.6348 122.964 19.6917 123.076 19.7699C123.684 20.1898 124.301 20.6007 124.917 21.0116C125.47 21.3798 125.463 21.435 124.897 21.8085C124.268 22.2248 123.647 22.6553 123.028 23.0858C122.939 23.1462 122.782 23.1907 122.828 23.3419C122.877 23.4967 123.031 23.4931 123.165 23.5002C124.186 23.5554 125.205 23.6105 126.226 23.6657C126.301 23.6692 126.376 23.6675 126.448 23.6799C126.585 23.703 126.794 23.6657 126.774 23.8791C126.758 24.0588 126.569 24.0108 126.445 24.0054C126.075 23.9912 125.705 23.9663 125.337 23.9432C125.011 23.9236 124.686 23.9023 124.36 23.8827C124.36 23.8845 124.36 23.8863 124.36 23.888L124.362 23.8934Z" fill="#1D30B9"></path>
    <path d="M124.259 30.3453C122.734 30.3613 121.53 29.1944 121.516 27.6877C121.502 26.2237 122.684 25.0158 124.113 24.9642C125.758 24.9038 126.938 26.0992 126.991 27.6325C127.032 28.8066 126.045 30.4129 124.259 30.3471V30.3453ZM121.822 27.6201C121.788 28.9596 122.786 29.9895 124.141 30.0144C125.579 30.0411 126.66 29.109 126.703 27.8033C126.746 26.4638 125.744 25.352 124.46 25.3129C122.923 25.2666 121.857 26.1988 121.822 27.6201Z" fill="#1D30B9"></path>
    <path d="M124.161 36.0217C125.218 36.0698 125.979 35.6428 126.445 34.773C126.842 34.0365 126.799 33.2627 126.411 32.5191C126.251 32.2096 125.979 31.9997 125.707 31.7916C125.621 31.7275 125.451 31.6706 125.559 31.5301C125.65 31.4109 125.783 31.5141 125.877 31.5728C126.673 32.0495 127.141 33.1595 126.961 34.1255C126.666 35.7122 125.495 36.5394 123.818 36.3491C122.464 36.1943 121.446 34.9366 121.503 33.4922C121.533 32.7504 121.886 32.1687 122.405 31.6706C122.467 31.6101 122.547 31.5621 122.627 31.5265C122.734 31.4803 122.873 31.4216 122.941 31.5603C123.003 31.6902 122.857 31.7311 122.775 31.7791C121.562 32.5031 121.498 34.4866 122.553 35.4169C123.019 35.8278 123.569 36.0769 124.161 36.0217Z" fill="#1D30B9"></path>
    <path d="M126.63 37.6921C126.491 37.6708 126.433 37.5783 126.433 37.4502C126.433 37.3203 126.523 37.2759 126.634 37.2723C126.785 37.2688 126.833 37.3577 126.815 37.4982C126.801 37.6103 126.763 37.6939 126.632 37.6921H126.63Z" fill="#1D30B9"></path>
  </g>
  <defs>
    <clipPath id="clip0_6998_50769">
      <rect width="110" height="19.9589" fill="white" transform="translate(17 18)"></rect>
    </clipPath>
  </defs>
</svg>
