<?xml version="1.0" encoding="UTF-8"?>
<svg xmlns="http://www.w3.org/2000/svg" width="140" height="54" viewBox="0 0 140 54" fill="none">
  <g clip-path="url(#clip0_7936_9260)">
    <mask id="mask0_7936_9260" style="mask-type:luminance" maskUnits="userSpaceOnUse" x="26" y="4" width="42" height="44">
      <path d="M26.4785 4H67.4204V47.9533H26.4785V4Z" fill="white"></path>
    </mask>
    <g mask="url(#mask0_7936_9260)">
      <path fill-rule="evenodd" clip-rule="evenodd" d="M59.663 42.0665C55.5649 43.1025 44.3693 48.73 36.8225 43.9508C27.2516 37.9364 27.2264 20.3292 39.1837 9.49752C41.8955 6.94441 45.4541 5.47831 49.1799 5.37995C52.2395 5.13333 55.0253 7.14329 55.7521 10.1218C56.3233 13.115 55.443 16.2016 53.3779 18.4449C52.5106 19.3406 51.517 20.1055 50.4293 20.7158C50.0361 20.9578 49.6169 21.1545 49.1799 21.3024C47.5555 21.9138 45.9936 21.8513 45.4314 20.0546C44.9149 17.6802 46.2172 15.2862 48.4926 14.4268C49.2424 14.1399 51.8786 13.2539 50.8664 13.0292C48.2302 12.4053 44.0321 14.6263 43.0324 18.0206C42.0328 21.4148 44.2819 23.4488 47.5806 23.0119C49.2352 22.7818 50.8276 22.2261 52.2661 21.3774C56.8449 19.3962 61.6559 17.9997 66.5851 17.2218C67.3349 17.0972 67.8345 15.6997 66.9474 15.8243C63.4456 16.3778 59.9941 17.2125 56.6267 18.32C56.4549 18.3724 56.2712 18.2858 56.2018 18.1204C56.1713 18.027 56.1713 17.9265 56.2018 17.8335C56.6188 17.276 56.979 16.678 57.2766 16.049C58.7385 13.0917 59.0009 9.22325 56.7518 6.59009C54.1526 3.53297 49.4297 3.63276 45.9185 4.60598C41.251 6.01643 37.054 8.66431 33.7736 12.2682C26.9015 19.8051 23.1531 33.6311 30.4375 42.2912C33.5288 45.7687 37.9278 47.8071 42.5824 47.9191C48.7298 48.3685 56.4768 44.2754 58.6885 43.202C60.0627 42.516 61.1623 41.7047 59.663 42.0665Z" fill="#F03D30"></path>
    </g>
    <path fill-rule="evenodd" clip-rule="evenodd" d="M84.3028 21.5645C84.7406 20.9125 85.3502 20.3942 86.0641 20.0671C87.2266 19.7674 87.0641 21.0403 86.8391 21.8513C86.0335 23.9959 84.5795 25.8364 82.678 27.1173C82.5411 27.2325 82.3358 27.2149 82.2204 27.0774C82.1539 26.9988 82.1291 26.8929 82.1536 26.7927C82.1536 26.5684 82.1536 26.3311 82.2535 26.1692C82.5806 24.4995 83.2808 22.9257 84.3028 21.5645ZM69.7836 33.9053C69.7207 33.9656 69.6215 33.9656 69.5586 33.9053C69.5442 33.8608 69.5442 33.8131 69.5586 33.7685C69.8088 32.2457 70.0708 30.7111 70.3332 29.2259C70.5956 27.7415 70.8206 26.1688 71.1204 24.6715C71.2017 24.1251 71.3886 23.5995 71.67 23.1243C72.5575 21.7515 73.9817 19.8051 75.4188 20.229C76.2308 20.4911 76.4558 21.5645 76.5558 22.2756C76.7222 25.1324 76.0906 27.9795 74.7315 30.4989C74.6316 30.7236 74.5065 30.9232 74.4069 31.1479C74.2747 31.3608 74.0953 31.5403 73.8821 31.6721C73.1323 32.0587 72.3951 32.4457 71.67 32.9195C71.0284 33.2021 70.4173 33.5492 69.8462 33.9556L69.7836 33.9053ZM64.9105 43.0774C64.8479 43.4019 63.5736 47.9811 63.0488 48.0687C62.524 48.1563 62.7239 44.6871 63.936 43.2271C64.1793 42.923 64.4378 42.6312 64.7106 42.3537C64.8008 42.2909 64.9205 42.2909 65.0108 42.3537V42.5407C64.9597 42.7155 64.9259 42.8954 64.9105 43.0774ZM51.079 29.5508C51.8974 29.3667 52.703 29.129 53.4902 28.8393C53.6451 28.7485 53.8443 28.8005 53.9348 28.9549C53.9366 28.9578 53.9384 28.961 53.9402 28.9642C53.9719 29.0486 53.9719 29.1416 53.9402 29.2259C52.3033 34.0679 51.4413 40.0824 57.451 38.4975C58.6365 38.1672 59.7224 37.5501 60.6124 36.7011C60.7321 36.5769 60.9298 36.5729 61.0542 36.6925C61.0567 36.6954 61.0596 36.6982 61.0621 36.7011C61.492 37.3336 62.2624 37.6442 63.0115 37.4869C64.4108 37.2873 65.8353 35.2407 66.6847 33.4939C66.7325 33.4185 66.8264 33.3873 66.9098 33.4189C66.9748 33.4419 67.009 33.5133 66.986 33.5783L66.9849 33.5812C66.5848 35.5401 66.0352 38.136 65.6477 39.8203C65.556 40.1987 65.2926 40.5128 64.9356 40.669C62.0992 41.9168 59.2631 44.6372 60.2124 47.9811C60.4626 49.2739 61.7142 50.1189 63.0082 49.8694C63.0345 49.8644 63.0603 49.859 63.0866 49.8529C64.7732 49.4663 65.5852 47.9065 66.2476 46.4092C66.9098 44.9118 67.3846 43.1898 67.8346 41.5675C67.9249 41.2329 68.1865 40.9712 68.5216 40.8811C69.6585 40.5939 70.7707 40.357 71.7452 40.1323C77.8182 38.7039 84.0508 38.0663 90.2873 38.2358C95.6727 38.193 100.98 39.5109 105.719 42.0665C107.993 43.3143 109.617 42.1663 108.318 40.8187C105.406 37.7741 94.1612 35.8898 81.5662 37.1251C77.2621 37.5214 73.004 38.3151 68.8465 39.4962C68.6779 39.536 68.5079 39.4376 68.459 39.2714V39.1092C68.7092 38.0358 68.9464 36.9255 69.1337 35.8647C69.1772 35.6859 69.3523 35.5714 69.5338 35.6026C70.4853 35.7828 71.468 35.692 72.3703 35.3405C73.436 34.8915 74.3814 34.199 75.1312 33.3195C75.4353 32.9565 75.7189 32.5774 75.9814 32.1836C76.0906 32.0235 76.2362 31.891 76.4059 31.7966L77.7678 31.1354L79.0173 30.4863C79.1733 30.3987 79.3717 30.4537 79.4598 30.6102C79.4623 30.6145 79.4648 30.6192 79.467 30.6238V30.7484V30.9731C80.4418 35.4902 85.7147 34.5795 88.026 31.3974C89.9164 28.4286 91.2302 25.131 91.8995 21.6765C91.9948 21.3311 92.3528 21.1283 92.6986 21.2238C92.7029 21.2249 92.7072 21.2263 92.7119 21.2274H92.8118C93.4142 21.4783 94.0494 21.6424 94.6982 21.7142C95.0491 21.7393 95.3136 22.0437 95.2885 22.3944C95.2881 22.4045 95.287 22.4149 95.2856 22.4253C95.2949 22.4917 95.2949 22.5589 95.2856 22.6253C94.1723 24.9547 93.4664 27.4576 93.1989 30.0247C92.9491 31.0277 93.1256 32.0888 93.686 32.9572C94.5361 33.7685 96.0602 33.2818 96.9473 32.8574C98.1968 32.2335 99.2842 30.3618 100.158 28.5026C100.236 28.3597 100.41 28.3001 100.558 28.3651C100.659 28.4315 100.72 28.5442 100.721 28.6648V29.3135C100.646 31.0356 100.546 33.8306 102.608 34.4797C105.919 35.5154 108.005 31.5597 108.618 30.1622C109.23 28.7643 108.618 29.6004 107.368 31.1354C106.781 31.8842 105.157 33.3812 104.245 33.182C103.72 33.0818 103.495 32.1463 103.395 31.7471C103.026 29.4352 103.115 27.0738 103.657 24.7964C104.095 22.0634 104.68 19.356 105.406 16.6855C105.539 16.1786 106.058 15.8753 106.566 16.0077C106.596 16.016 106.626 16.0253 106.656 16.0364C108.008 16.4862 109.297 17.1069 110.492 17.8834C113.353 19.7426 114.528 17.4964 112.516 16.4234C110.819 15.5374 109.029 14.8389 107.181 14.3395C106.659 14.2078 106.342 13.6786 106.474 13.1574C106.48 13.1351 106.486 13.1132 106.493 13.0913C106.881 11.9558 107.268 10.8204 107.743 9.6849C107.993 8.99852 108.292 8.31214 108.58 7.63832C109.105 6.39049 106.693 6.39049 106.081 7.96284C105.469 9.5352 104.832 11.2695 104.157 12.9542C104.001 13.3993 103.55 13.6714 103.082 13.6032C101.011 13.3099 98.9258 13.1265 96.8348 13.054C89.6295 12.9492 82.4293 13.4837 75.3189 14.6515C74.6442 14.7387 74.4069 16.1115 75.3189 15.974C81.9286 14.9125 88.6166 14.4153 95.3104 14.4892C97.6339 14.5237 99.9517 14.7283 102.245 15.1006C102.765 15.2014 103.12 15.6857 103.057 16.2109V16.3735L102.208 18.6567C100.871 22.5251 98.0343 32.2087 95.7604 32.1089C94.7486 32.1089 96.0225 25.5076 98.7468 20.6411C99.2716 19.6927 97.4973 19.9174 97.0976 20.0793C95.6227 20.803 93.3488 20.3166 94.3607 18.2575C94.8855 17.1967 92.2744 17.4465 92.0117 18.2575C90.4502 22.6127 90.1626 26.8678 87.4261 30.4863C86.4893 31.7345 84.9271 33.2818 83.3279 32.296C82.7495 31.9435 82.3391 31.3716 82.191 30.7111C82.0616 30.2641 81.9861 29.8035 81.9659 29.3387C81.8843 29.0572 82.0231 28.7593 82.2909 28.6394C83.5763 27.9013 84.8046 27.067 85.9645 26.144C87.4638 24.8962 91.337 20.6785 88.8883 18.8566C87.7262 17.9829 85.7643 18.6319 84.6273 19.1808C83.3175 19.869 82.2233 20.9054 81.4663 22.1758C80.2715 24.1657 79.549 26.4025 79.3545 28.7144C79.3318 28.9423 79.2021 29.1462 79.0047 29.2636L77.9551 29.7501C77.7779 29.8075 77.5878 29.7106 77.5302 29.5336C77.5087 29.4661 77.5087 29.3932 77.5302 29.3261C78.0205 28.1583 78.4134 26.9521 78.705 25.7197C79.0924 23.8354 79.7168 20.229 77.6054 19.0936C76.2362 18.5795 74.7135 18.661 73.4069 19.3183C73.1877 19.4037 72.9785 19.5125 72.7822 19.6424C72.619 19.7437 72.4051 19.6999 72.2951 19.543C72.2538 19.4515 72.2538 19.347 72.2951 19.2558C72.6578 18.0486 72.9418 16.8187 73.1449 15.5748C73.2822 14.7635 73.3447 13.5282 72.5575 13.0791C71.706 12.6989 70.7135 12.8242 69.9835 13.4036C69.3088 13.9899 69.5338 15.0008 69.4712 15.8117C69.2714 18.083 68.8839 20.3292 68.4968 22.5377C68.1258 25.4078 67.5154 28.242 66.6725 31.0105C66.2476 32.1585 64.6481 36.0018 63.6114 36.0018C63.2239 36.0018 63.1613 34.4671 63.124 33.6188C63.115 33.3392 63.1703 33.0621 63.2864 32.8075C64.3271 29.8211 64.8224 26.6725 64.7483 23.5109C64.7483 22.0886 62.5992 22.5129 62.2491 23.7482C61.2185 26.8222 60.6049 30.02 60.4248 33.257C60.427 33.57 60.363 33.8805 60.2375 34.1677C59.7307 35.3553 58.8544 36.3482 57.7386 37.0005C55.1397 38.248 55.2397 34.3049 55.4269 32.8075C55.9284 29.8434 56.9525 26.9916 58.4507 24.3843C59.038 23.3113 56.5391 23.6983 56.1142 24.3222C55.2019 25.6806 54.0143 26.8326 52.6282 27.7038C52.079 28.019 51.4708 28.219 50.8414 28.2904C50.5186 28.3845 50.1749 28.2315 50.0293 27.9286C49.8665 27.5175 49.6099 27.1496 49.2795 26.8552C48.4722 26.4039 47.488 26.4039 46.6807 26.8552C46.2788 27.0555 46.006 27.4454 45.956 27.8912C45.9628 28.7155 46.5462 29.423 47.3553 29.5882C47.6839 29.6919 47.9316 29.9633 48.0052 30.2997C48.1052 30.7613 48.2051 31.2477 48.2676 31.6968C48.6717 33.7973 48.4366 35.9702 47.593 37.9364C47.2281 38.8284 46.5085 39.5292 45.6062 39.8706C44.1066 40.2945 43.007 38.7972 42.5447 37.5619C41.4078 34.5795 42.2198 29.9252 44.8564 27.8783C45.4186 27.4543 45.9686 27.0426 46.5556 26.6305C47.1429 26.2187 45.8686 25.9193 44.9937 26.2686C40.2457 28.0535 37.934 34.8789 40.5706 39.209C42.5199 42.4535 47.2428 41.5424 49.3169 38.8848C51.1415 36.5762 51.2037 33.1321 50.6541 30.2997C50.5452 30.0089 50.6933 29.6854 50.9841 29.577C51.015 29.5655 51.0466 29.5566 51.079 29.5508Z" fill="#F03D30"></path>
  </g>
  <defs>
    <clipPath id="clip0_7936_9260">
      <rect width="110" height="45.913" fill="white" transform="translate(15 4)"></rect>
    </clipPath>
  </defs>
</svg>
