<?xml version="1.0" encoding="UTF-8"?>
<svg xmlns="http://www.w3.org/2000/svg" width="140" height="54" viewBox="0 0 140 54" fill="none">
  <path d="M69.6726 35.3319C34.7894 35.3319 10 37.4831 10 37.4831V38.4184H71.7303L72.385 35.3319C71.5956 35.3289 70.6454 35.3319 69.6726 35.3319ZM74.2557 35.3319L73.6945 38.4184H130V37.4831C130 37.4831 106.741 35.5077 74.2557 35.3319Z" fill="#FFEA00"></path>
  <path d="M25.2462 17L21.9727 32.4326H33.7575L34.2252 29.5331H26.1815L26.9298 25.979H34.2252L34.7864 22.8924H27.491L28.1457 19.993H36.2829L36.7505 17H25.2462ZM64.6227 20.7412C60.0285 20.7412 58.1728 23.1843 57.4208 26.7272C56.6688 30.2664 58.4235 32.8067 62.0974 32.8067C66.4634 32.8067 68.5472 30.3599 69.2992 26.8207C70.055 23.2778 68.8615 20.7412 64.6227 20.7412ZM90.9049 20.7412C86.3106 20.7412 84.5485 23.188 83.7965 26.7272C83.0445 30.2701 84.7056 32.8067 88.3795 32.8067C92.1058 32.8067 94.2121 31.0334 95.2073 28.3172H91.7466C91.2752 29.4209 90.5158 30.1878 88.9407 30.1878C86.8793 30.1878 86.6885 28.4257 87.0701 26.6337C87.4517 24.8416 88.3758 23.0795 90.4372 23.0795C92.0272 23.0795 92.4649 24.1944 92.4013 25.5113H95.7684C95.9705 22.6717 94.5974 20.7412 90.9049 20.7412ZM78.8394 20.9283C77.8068 20.9283 76.1345 21.1752 75.2852 22.0507L75.4723 21.2089H72.1052C71.9929 21.9496 68.6445 38.4185 68.6445 38.4185H71.9181L73.3211 31.6843C73.9683 32.687 75.794 32.9002 76.5946 32.9002C79.8907 32.9002 81.4059 29.709 82.0194 26.8207C82.6629 23.7941 82.0494 20.9283 78.8394 20.9283ZM103.719 20.9283C97.8374 20.7673 98.1067 24.576 98.1067 24.576H101.193C101.193 24.576 101.152 23.0795 103.344 23.0795C103.344 23.0795 105.324 22.9897 105.028 24.3889C105.028 24.3889 104.987 25.5973 103.625 25.5113C103.625 25.5113 97.1078 24.8341 96.6102 29.6267C96.6102 29.6267 96.3409 32.9938 100.164 32.9938C100.164 32.9938 102.675 32.9189 103.812 31.6843C103.812 31.6843 104.13 32.4326 105.215 32.4326H107.086L107.647 30.1878L107.366 30.0008C107.366 30.0008 107.138 30.0307 107.273 29.4396L108.489 23.5471C109.016 20.9769 103.719 20.9283 103.719 20.9283H103.719ZM37.8729 21.2087L36.2829 28.5041C36.2006 28.8857 36.0659 29.5853 36.0958 30.2812C36.1521 31.9161 38.1572 32.713 39.2758 32.713C40.8434 32.713 41.8423 32.3239 42.643 31.6842V32.4324H46.0101C46.0849 31.759 46.1708 31.1417 46.2905 30.4683L48.2547 21.2087H44.8876L43.4846 27.6624C43.0918 29.301 41.8908 29.6265 41.0528 29.6265C39.6087 29.6265 39.5151 28.998 39.7434 27.9429L41.2398 21.2087H37.8729ZM50.4995 21.2087C50.3688 22.0393 48.2548 32.4324 48.2548 32.4324H51.809L53.0249 26.6335C53.1745 25.9002 53.1257 25.1408 53.5861 24.4823C53.9527 23.9548 54.888 23.779 55.4567 23.7341H57.0467L57.7014 21.2087C56.1563 21.2087 55.1499 21.1749 53.8667 22.0505V21.2087H50.4995ZM111.575 21.2087C111.444 22.0393 109.33 32.4324 109.33 32.4324H112.885L114.007 26.6335C114.157 25.9002 114.201 25.1408 114.662 24.4823C115.032 23.9548 115.964 23.779 116.532 23.7341H118.029L118.777 21.2087C117.232 21.2087 116.226 21.1749 114.942 22.0505V21.2087H111.575ZM64.155 23.0793C66.2165 23.0793 66.3137 24.935 65.9321 26.7271C65.5505 28.5191 64.9332 30.1877 62.6586 30.1877C60.5971 30.1877 60.4063 28.4256 60.7879 26.6335C61.1695 24.8415 62.0936 23.0793 64.155 23.0793ZM77.3429 23.547C78.873 23.547 79.2995 25.0023 78.9329 26.7271C78.5663 28.4555 77.6646 29.9071 75.9399 29.9071C74.1254 29.9071 73.9271 28.2722 74.2564 26.7271C74.5856 25.1782 75.5284 23.547 77.3429 23.547ZM104.186 27.4753C104.186 27.4753 103.696 30.5618 101.193 30.5618C101.193 30.5618 99.7903 30.6552 99.7903 29.533C99.7903 29.533 99.8241 28.0963 101.848 27.8494C101.848 27.8494 103.419 27.7411 104.186 27.4753Z" fill="#0E8102"></path>
</svg>
