<?xml version="1.0" encoding="UTF-8"?>
<svg xmlns="http://www.w3.org/2000/svg" width="200" height="80" viewBox="0 0 200 80" fill="none">
  <rect width="200" height="80" fill="white"></rect>
  <path d="M109.246 33.4593C109.246 29.8074 109.308 26.4074 109.494 23.2593L100.008 25.0852V25.9667L100.938 26.0926C101.62 26.1556 102.054 26.4074 102.302 26.7852C102.55 27.2259 102.736 27.8556 102.86 28.8C102.984 30.6259 103.108 34.7815 103.046 41.3296C103.046 47.8148 102.984 51.9074 102.86 53.4815C106.27 54.2371 108.936 54.5519 110.92 54.5519C114.64 54.5519 117.554 53.4815 119.662 51.2778C121.77 49.1371 122.886 46.1148 122.886 42.4C122.886 39.4408 122.08 36.9852 120.468 35.0334C118.856 33.0815 116.81 32.1371 114.392 32.1371C112.78 32.1371 111.106 32.5778 109.246 33.4593ZM109.432 52.8519C109.308 50.8371 109.184 44.7926 109.184 34.9074C109.742 34.7185 110.486 34.5926 111.416 34.5926C112.904 34.5926 114.082 35.3482 114.95 36.9222C115.818 38.4963 116.252 40.3852 116.252 42.7778C116.252 45.7371 115.756 48.1296 114.764 50.1445C113.772 52.0963 112.532 53.1037 110.982 53.1037C110.486 52.9778 109.99 52.9148 109.432 52.8519ZM64.4201 23.8889H39.6201V25.1482L40.9221 25.2741C41.9141 25.463 42.5961 25.8408 43.0301 26.4074C43.4641 27.0371 43.7121 28.0445 43.7741 29.4296C44.2701 36.2296 44.2701 42.5889 43.7741 48.4445C43.6501 49.8296 43.4021 50.8371 43.0301 51.4667C42.5961 52.0963 41.9141 52.4741 40.9221 52.6L39.6201 52.7889V54.0482H55.6161V52.7889L53.9421 52.663C52.9501 52.5371 52.2681 52.0963 51.8341 51.5297C51.4001 50.9 51.1521 49.8926 51.0901 48.5074C50.9041 45.9889 50.7801 43.0926 50.7801 39.8815L54.1281 39.9445C55.9261 40.0074 57.1661 41.3926 57.7861 44.163H59.0261V33.9H57.7861C57.1661 36.6074 55.9881 37.9926 54.1281 38.0556L50.7801 38.1185C50.7801 32.4519 50.9041 28.4222 51.0901 25.9667H55.9881C59.4601 25.9667 61.8161 28.2334 63.1801 32.7667L64.6681 32.3259L64.4201 23.8889ZM61.5061 43.2815C61.5061 46.5556 62.4361 49.263 64.2341 51.4037C66.0321 53.5445 68.6981 54.5519 72.0461 54.5519C75.3941 54.5519 78.1221 53.4815 80.1061 51.2778C82.0901 49.1371 83.0201 46.4296 83.0201 43.1556C83.0201 39.8815 82.0901 37.1741 80.2921 35.0334C78.4941 32.8926 75.8281 31.8852 72.4801 31.8852C69.1321 31.8852 66.4041 32.9556 64.4201 35.1593C62.4361 37.3 61.5061 40.0074 61.5061 43.2815ZM75.3321 36.1037C76.0761 37.9296 76.3861 40.3222 76.3861 43.2185C76.3861 49.8926 75.0221 53.1667 72.3561 53.1667C70.9921 53.1667 69.9381 52.2222 69.1941 50.3334C68.4501 48.4445 68.1401 46.0519 68.1401 43.2185C68.1401 36.6074 69.5041 33.3334 72.1701 33.3334C73.5341 33.2704 74.5881 34.2148 75.3321 36.1037ZM127.722 51.4037C129.768 53.4815 132.372 54.5519 135.472 54.5519C137.394 54.5519 139.068 54.1741 140.556 53.3556C142.044 52.6 143.222 51.6556 144.028 50.5222L143.408 49.7667C142.044 50.8371 140.494 51.3408 138.696 51.3408C136.216 51.3408 134.294 50.5222 132.992 48.8222C131.628 47.1222 131.008 44.9815 131.132 42.2111H144.4C144.4 39.1889 143.656 36.7334 142.106 34.7815C140.556 32.8926 138.386 31.9482 135.596 31.9482C132.124 31.9482 129.458 33.0815 127.536 35.2852C125.614 37.4889 124.684 40.1963 124.684 43.4074C124.684 46.6815 125.676 49.3259 127.722 51.4037ZM132.31 35.6C132.992 34.0889 133.86 33.3334 135.038 33.3334C136.898 33.3334 137.828 35.7259 137.828 40.5741L131.256 40.7C131.318 38.8111 131.628 37.1111 132.31 35.6ZM161.078 33.0815C159.404 32.3259 157.296 31.8852 154.754 31.8852C152.15 31.8852 150.104 32.5778 148.554 33.9C147.004 35.2222 146.198 36.8593 146.198 38.8111C146.198 40.5111 146.694 41.8334 147.624 42.7778C148.554 43.7222 150.042 44.5408 151.964 45.2334C153.7 45.863 154.94 46.4926 155.56 47.0593C156.18 47.6889 156.552 48.3815 156.552 49.3259C156.552 50.2074 156.242 51.0259 155.56 51.6556C154.94 52.3482 154.072 52.663 152.956 52.663C150.228 52.663 148.182 50.6482 146.756 46.6185L145.702 46.9334L145.95 53.2296C148.182 54.1111 150.662 54.5519 153.39 54.5519C156.242 54.5519 158.412 53.9222 160.024 52.6C161.636 51.3408 162.442 49.5148 162.442 47.2482C162.442 45.7371 162.07 44.4778 161.264 43.5334C160.458 42.5889 159.156 41.7704 157.296 41.0148C155.25 40.2593 153.824 39.5667 153.08 38.9371C152.336 38.3074 151.964 37.5519 151.964 36.6074C151.964 35.663 152.212 34.9074 152.77 34.2778C153.328 33.6482 154.01 33.3963 154.878 33.3963C157.358 33.3963 159.156 35.2222 160.272 38.8111L161.326 38.4963L161.078 33.0815ZM101.434 32.5148C100.566 32.0741 99.6361 31.8852 98.5821 31.8852C97.5281 31.8852 96.4741 32.3259 95.2961 33.2074C94.1181 34.0889 93.2501 35.2852 92.5681 36.9222L92.6301 31.8852L83.2061 33.7741V34.6556L84.1361 34.7185C85.3141 34.8445 85.9961 35.7889 86.1201 37.4889C86.4921 41.3926 86.4921 45.5482 86.1201 49.9556C85.9961 51.6556 85.3141 52.5371 84.1361 52.7259L83.2061 52.8519V54.0482H96.3501V52.8519L94.6761 52.7259C93.4981 52.6 92.8161 51.6556 92.6921 49.9556C92.3201 46.3037 92.2581 42.4 92.5681 38.3704C92.9401 37.7408 93.7461 37.363 94.9861 37.2371C96.2261 37.1111 97.6521 37.4889 99.1401 38.3704L101.434 32.5148Z" fill="black"></path>
</svg>
