<?xml version="1.0" encoding="UTF-8"?>
<svg xmlns="http://www.w3.org/2000/svg" width="200" height="80" viewBox="0 0 200 80" fill="none">
  <rect width="200" height="80" fill="white"></rect>
  <g clip-path="url(#clip0_7936_8895)">
    <path d="M52.2987 18V18.0613C52.2987 20.496 52.4942 22.9251 52.8879 25.3264L54.0637 32.5385C54.3087 34.0149 53.546 35.4384 52.2243 36.0429L51.0348 28.8531C50.7099 28.9673 50.5117 29.3016 50.5667 29.6442L51.2881 34.0122C51.5139 35.3688 50.6879 36.6781 49.3772 37.043L48.1822 29.8392C47.8546 29.9534 47.6591 30.2877 47.7169 30.6303L48.4052 34.7754C48.6365 36.1739 47.849 37.5416 46.5329 38.0263L45.3379 30.8253C45.013 30.9395 44.8147 31.2738 44.8725 31.6165L45.5692 35.8145C45.8005 37.2018 45.0019 38.5528 43.6858 39.0069L41.6812 27.0145C41.3866 27.5689 41.282 28.2068 41.3866 28.828L41.5078 29.5578L40.8937 30.7139C40.4862 31.4716 39.7621 31.9814 38.8947 32.104C38.3165 32.1847 37.7272 32.0482 37.2151 31.7669L37.1903 31.753L39.0351 28.3154C40.3954 25.7832 41.1058 22.9502 41.1058 20.0698V18C36.0752 18 32 22.1228 32 27.2095V39.3273V61.7103H41.0948V59.6015C41.0948 56.7211 40.3816 53.8853 39.0241 51.3531L37.1793 47.9155L37.2041 47.9016C37.7162 47.6203 38.3055 47.4838 38.8837 47.5645C39.7511 47.6871 40.4752 48.1969 40.8827 48.9546L43.2728 53.4173C43.3746 52.7989 43.2728 52.1637 42.9754 51.6122L42.1246 50.0243L43.6748 40.6644C44.867 41.4695 45.649 43.2997 45.4122 44.7287L44.8588 48.0548C44.8009 48.3975 44.9992 48.7345 45.3241 48.846L46.5219 41.6449C47.838 42.1157 48.631 43.4751 48.3997 44.868L47.7086 49.041C47.6508 49.3836 47.849 49.7207 48.174 49.8321L49.369 42.6283C50.6796 43.0072 51.5002 44.322 51.2744 45.6814L50.5557 50.0271C50.4979 50.3697 50.6961 50.704 51.0211 50.8182L52.2106 43.6284C53.5322 44.2329 54.2949 45.6563 54.0499 47.1328L52.8741 54.3505C52.4832 56.7518 52.2877 59.1781 52.2877 61.6128V61.7103H61.9799V18H52.2987Z" fill="url(#paint0_linear_7936_8895)"></path>
    <path d="M75.6181 29.4966H84.6991V37.8927H87.783V18.0391H87.7251C86.0538 18.0391 84.6991 19.4096 84.6991 21.1005V26.6023H75.6181V18.0391H75.5603C73.8889 18.0391 72.5342 19.4096 72.5342 21.1005V37.8899H75.6181V29.4938V29.4966Z" fill="#26232B"></path>
    <path d="M97.7949 22.8583C96.1125 22.8583 94.3476 23.5407 92.8607 24.7581C91.4013 25.9782 90.3936 28.0759 90.3936 30.544C90.3936 33.806 92.1888 36.2714 94.4577 37.3773C95.6059 37.9177 96.8119 38.1712 98.073 38.1712C100.595 38.1712 102.531 37.4051 103.902 35.8451L102.192 34.2016C101.044 35.1097 99.6976 35.561 98.1556 35.561C95.716 35.561 93.8106 34.1709 93.3618 31.6471H104.882C105.554 25.4072 101.099 22.8555 97.7894 22.8555L97.7949 22.8583ZM93.3948 29.3823C93.8437 26.9142 95.7766 25.4963 97.7949 25.4963C98.833 25.4963 99.7857 25.8362 100.656 26.5159C101.523 27.1956 102.03 28.1594 102.17 29.3796H93.3948V29.3823Z" fill="#26232B"></path>
    <path d="M110.252 18.0391C108.58 18.0391 107.226 19.4096 107.226 21.1005V37.8899H110.252V18.0391Z" fill="#26232B"></path>
    <path d="M116.425 18.0391C114.753 18.0391 113.398 19.4096 113.398 21.1005V37.8899H116.425V18.0391Z" fill="#26232B"></path>
    <path d="M128.904 37.6921C130.669 37.0403 132.269 35.9065 133.194 33.8924C134.119 31.8784 134.119 29.2125 133.194 27.1984C132.269 25.1565 130.672 24.0227 128.904 23.3709C127.194 22.6912 125.484 22.6912 123.719 23.3709C122.009 24.0227 120.382 25.1565 119.46 27.1984C118.534 29.2125 118.534 31.8784 119.46 33.8924C120.385 35.9065 122.009 37.0403 123.719 37.6921C125.484 38.344 127.197 38.344 128.904 37.6921ZM123.102 34.1459C122.177 33.2684 121.701 32.0762 121.701 30.544C121.701 29.0119 122.177 27.7918 123.102 26.9143C124.055 26.034 125.121 25.5799 126.327 25.5799C127.533 25.5799 128.598 26.034 129.523 26.9143C130.476 27.7918 130.953 28.984 130.953 30.544C130.953 32.104 130.476 33.2656 129.523 34.1459C128.598 35.0262 127.533 35.4496 126.327 35.4496C125.121 35.4496 124.055 35.0234 123.102 34.1459Z" fill="#26232B"></path>
    <path d="M79.1205 41.8651H72.5342V61.7159H75.6181V54.7963H79.1205C81.3068 54.7963 83.0442 54.228 84.3053 53.0664C85.5664 51.9047 86.2107 50.3447 86.2107 48.4143C86.2107 46.4838 85.5664 44.8987 84.275 43.6786C83.0139 42.4584 81.2765 41.8623 79.1178 41.8623L79.1205 41.8651ZM78.9801 52.0747H75.6153V44.7566H78.9801C81.5601 44.7566 83.1296 46.0046 83.1296 48.4143C83.1296 50.8239 81.5601 52.0719 78.9801 52.0719V52.0747Z" fill="#26232B"></path>
    <path d="M99.7026 49.3781H99.5346C98.86 47.988 97.0124 46.6843 94.6857 46.6843C93.0033 46.6843 91.2659 47.3362 89.8368 48.5563C88.4078 49.7764 87.4551 51.8741 87.4551 54.3422C87.4551 56.8103 88.4078 58.9079 89.8368 60.1281C91.2659 61.3482 93.0033 62.0001 94.6857 62.0001C97.0124 62.0001 98.8628 60.6964 99.5346 59.3063H99.7026V61.7159H102.729V46.9685H99.7026V49.3781ZM98.3561 57.9719C97.4309 58.8522 96.3378 59.2757 95.0767 59.2757C93.8156 59.2757 92.75 58.8494 91.7973 57.9719C90.8722 57.0945 90.3958 55.9022 90.3958 54.3422C90.3958 52.7822 90.8722 51.5927 91.7973 50.7124C92.75 49.8349 93.8432 49.4087 95.0767 49.4087C96.3103 49.4087 97.4309 49.8349 98.3561 50.7124C99.3088 51.5927 99.7852 52.7822 99.7852 54.3422C99.7852 55.9022 99.3088 57.0945 98.3561 57.9719Z" fill="#26232B"></path>
    <path d="M120.547 43.1965C118.875 43.1965 117.521 44.5671 117.521 46.258V46.9684H115.497C115.497 46.9684 115.02 46.9684 114.627 46.9684C112.019 46.9684 109.596 48.4448 108.949 50.7402V46.9684H105.923V61.7158H108.949V54.7683C109.117 53.2362 109.706 52.016 110.686 51.08C111.667 50.144 112.947 49.5228 114.709 49.5228C115.045 49.5228 115.499 49.5228 115.499 49.5228H117.518V58.4566C117.518 60.9804 118.861 61.8885 121.106 61.8885C122.086 61.8885 122.928 61.7186 123.628 61.3509V58.8271C123.019 59.0499 122.469 59.1641 121.943 59.1669C121.172 59.1725 120.544 58.5568 120.544 57.7768V49.5256H123.628V46.9739H120.544V43.2021L120.547 43.1965Z" fill="#26232B"></path>
    <path d="M134.104 46.6844C130.908 46.6844 129.396 49.1804 129.088 50.03V46.9686H126.062V61.716H129.088V52.8965C129.17 52.1305 129.591 51.3365 130.294 50.5705C131.023 49.7765 131.948 49.3782 133.069 49.3782C135.087 49.3782 136.544 50.7098 136.544 53.3478V61.7132H139.573V53.1779C139.573 51.0496 139.039 49.4339 137.976 48.328C136.91 47.2221 135.622 46.6816 134.107 46.6816L134.104 46.6844Z" fill="#26232B"></path>
    <path d="M149.164 46.6844C147.482 46.6844 145.717 47.3641 144.23 48.5843C142.77 49.8044 141.763 51.902 141.763 54.3701C141.763 57.6322 143.558 60.0975 145.827 61.2035C146.975 61.7411 148.181 61.9974 149.442 61.9974C151.964 61.9974 153.9 61.2313 155.271 59.6713L153.561 58.0278C152.413 58.9359 151.067 59.3872 149.525 59.3872C147.085 59.3872 145.18 57.9971 144.731 55.4733H156.252C156.923 49.2333 152.468 46.6816 149.159 46.6816L149.164 46.6844ZM144.764 53.2085C145.213 50.7404 147.146 49.3225 149.164 49.3225C150.202 49.3225 151.155 49.6623 152.025 50.342C152.892 51.0217 153.399 51.9856 153.539 53.2057H144.764V53.2085Z" fill="#26232B"></path>
    <path d="M167.13 46.7429C164.522 46.7429 162.532 48.445 161.887 50.7404V46.9686H158.861V61.716H161.887V54.7685C162.055 53.2364 162.645 52.0162 163.625 51.0802C164.605 50.1442 165.811 49.6623 167.213 49.6623C167.549 49.6623 167.802 49.6902 167.997 49.7208V46.7986C167.802 46.7708 167.521 46.7429 167.127 46.7429H167.13Z" fill="#26232B"></path>
  </g>
  <defs>
    <linearGradient id="paint0_linear_7936_8895" x1="46.99" y1="61.7103" x2="46.99" y2="18" gradientUnits="userSpaceOnUse">
      <stop stop-color="#EF8300"></stop>
      <stop offset="1" stop-color="#FBBE00"></stop>
    </linearGradient>
    <clipPath id="clip0_7936_8895">
      <rect width="136" height="44" fill="white" transform="translate(32 18)"></rect>
    </clipPath>
  </defs>
</svg>
