<?xml version="1.0" encoding="UTF-8"?>
<svg xmlns="http://www.w3.org/2000/svg" width="140" height="54" viewBox="0 0 140 54" fill="none">
  <g clip-path="url(#clip0_6990_11111)">
    <path d="M61.9937 20.666C60.206 20.666 58.173 21.4947 56.9308 23.1538L56.9316 23.1504L56.9308 23.1512L56.9316 20.9266H52.668V36.4532H56.9308V27.6183C56.9308 26.0281 58.1637 24.338 60.4464 24.338C62.2105 24.338 64.036 25.565 64.036 27.6183V36.4532H68.2996V26.8282C68.2996 23.2571 65.7446 20.666 61.9937 20.666Z" fill="#E60012"></path>
    <path d="M98.6016 20.9272L94.7473 31.5036L90.8929 20.9272H86.0225L92.4108 36.4488H97.0829L103.471 20.9272H98.6016Z" fill="#E60012"></path>
    <path d="M39.9398 25.6044C40.666 24.6295 41.8225 24.0571 43.2193 24.0571C44.7557 24.0571 45.9214 24.9346 46.524 26.2297L39.075 29.3201C38.8716 27.7341 39.2776 26.4936 39.9398 25.6044ZM48.1309 31.6792C46.3366 33.0072 45.3112 33.324 43.6748 33.324C42.2023 33.324 41.0492 32.8668 40.2365 32.065L51.1364 27.5433C50.8986 25.8582 50.259 24.353 49.2748 23.2083C47.8427 21.545 45.723 20.665 43.142 20.665C38.4539 20.665 34.9189 24.1235 34.9189 28.6914C34.9189 33.3778 38.4623 36.7169 43.6118 36.7169C46.4971 36.7169 49.4471 35.3495 50.8271 33.7518L48.1309 31.6792Z" fill="#E60012"></path>
    <path d="M34.5121 32.5382H24.8216V16.283H20.5V36.4531H34.5121V32.5382Z" fill="#E60012"></path>
    <path d="M111.128 24.3188C108.747 24.3188 107.018 26.1232 107.018 28.69C107.018 31.1407 108.849 33.0612 111.185 33.0612C113.567 33.0612 115.295 31.2071 115.295 28.69C115.295 26.2392 113.464 24.3188 111.128 24.3188ZM111.128 36.7147C106.465 36.7147 102.812 33.241 102.812 28.69C102.812 24.1902 106.49 20.6653 111.185 20.6653C115.848 20.6653 119.5 24.1389 119.5 28.69C119.5 33.1889 115.823 36.7147 111.128 36.7147Z" fill="#E60012"></path>
    <path d="M78.3018 24.3188C75.9208 24.3188 74.1928 26.1232 74.1928 28.69C74.1928 31.1407 76.0233 33.0612 78.3598 33.0612C80.7408 33.0612 82.4688 31.2071 82.4688 28.69C82.4688 26.2392 80.6383 24.3188 78.3018 24.3188ZM78.3018 36.7147C73.639 36.7147 69.9863 33.241 69.9863 28.69C69.9863 24.1902 73.6642 20.6653 78.3598 20.6653C83.0218 20.6653 86.6753 24.1389 86.6753 28.69C86.6753 33.1889 82.9966 36.7147 78.3018 36.7147Z" fill="#E60012"></path>
  </g>
  <defs>
    <clipPath id="clip0_6990_11111">
      <rect width="100" height="21" fill="white" transform="translate(20 16)"></rect>
    </clipPath>
  </defs>
</svg>
