<?xml version="1.0" encoding="UTF-8"?>
<svg xmlns="http://www.w3.org/2000/svg" width="140" height="54" viewBox="0 0 140 54" fill="none">
  <path d="M126 23.4513C125.461 23.9871 124.922 24.523 124.384 25.059C124.144 25.2976 123.902 25.5342 123.668 25.7777C123.59 25.8581 123.543 25.8522 123.467 25.7757C122.999 25.3057 122.46 24.9471 121.821 24.75C121.533 24.6616 121.24 24.6293 120.942 24.6503C120.552 24.6779 120.332 24.939 120.415 25.271C120.461 25.4538 120.6 25.5528 120.753 25.6369C121.051 25.8007 121.375 25.9028 121.692 26.0207C122.528 26.3316 123.35 26.6702 124.081 27.1925C124.693 27.6291 125.195 28.1573 125.445 28.8841C125.74 29.7389 125.662 30.5866 125.336 31.4107C124.778 32.8248 123.708 33.6742 122.259 34.0365C120.493 34.4782 118.769 34.3046 117.125 33.5156C116.192 33.0682 115.429 32.4109 114.859 31.5387C114.788 31.4302 114.799 31.3664 114.891 31.2821C115.675 30.5678 116.456 29.8506 117.235 29.131C117.319 29.0532 117.366 29.0835 117.427 29.152C117.764 29.5348 118.12 29.8985 118.532 30.2041C119.089 30.6182 119.709 30.8653 120.408 30.8907C120.668 30.9002 120.928 30.8758 121.174 30.7829C121.355 30.7147 121.505 30.604 121.538 30.3977C121.57 30.1965 121.468 30.0496 121.316 29.9342C121.246 29.8814 121.169 29.8364 121.091 29.7959C120.811 29.6494 120.509 29.5546 120.215 29.4429C119.512 29.1759 118.817 28.8948 118.178 28.4927C117.577 28.1148 117.06 27.6545 116.709 27.0258C116.464 26.5848 116.331 26.1087 116.299 25.6095C116.242 24.7276 116.407 23.8933 116.904 23.1455C117.394 22.408 118.082 21.9253 118.904 21.6226C119.523 21.3948 120.164 21.2926 120.824 21.275C121.804 21.2489 122.754 21.3819 123.669 21.7417C124.552 22.0895 125.302 22.6263 125.919 23.3484C125.943 23.3763 125.973 23.3988 126 23.4239C126 23.4327 126 23.442 126 23.4513Z" fill="#FCD31B"></path>
  <path d="M55.1953 32.1467C55.066 32.223 54.9533 32.2922 54.8379 32.3567C54.1425 32.7461 53.3952 32.9485 52.5998 32.9935C51.8142 33.0377 51.0532 32.9353 50.3348 32.6112C49.004 32.0108 48.2262 30.9722 47.9708 29.5444C47.8319 28.7678 47.9278 27.9956 48.0637 27.2268C48.3585 25.5597 48.6506 23.8923 48.9441 22.225C48.9938 21.9427 49.0483 21.6608 49.0933 21.3778C49.1104 21.2707 49.1578 21.2286 49.2666 21.2289C50.6201 21.2311 51.9735 21.2296 53.327 21.2308C53.4818 21.2311 53.492 21.2458 53.4642 21.4037C53.2009 22.9026 52.9357 24.401 52.6739 25.9002C52.5785 26.4468 52.47 26.9912 52.3952 27.5416C52.2967 28.2672 52.6983 28.9308 53.3923 29.1843C54.4094 29.5561 55.7653 29.0882 56.0064 27.6304C56.3496 25.5541 56.7307 23.4841 57.0917 21.4108C57.1152 21.2756 57.1709 21.2269 57.3093 21.2274C58.6442 21.2316 59.9791 21.2296 61.3142 21.2301C61.4914 21.2301 61.501 21.2416 61.4712 21.4103C61.1783 23.0683 60.884 24.7259 60.5916 26.3842C60.2448 28.352 59.8952 30.3195 59.5552 32.2885C59.4041 33.1629 59.2042 34.0204 58.815 34.8248C58.0783 36.3475 56.936 37.4345 55.3522 38.0466C54.3688 38.4267 53.3439 38.5678 52.2969 38.5106C50.4812 38.4116 48.8341 37.8339 47.3922 36.7107C47.0297 36.4284 46.697 36.1133 46.3936 35.7674C46.3271 35.6916 46.3296 35.6425 46.3941 35.5684C47.1795 34.6677 47.9632 33.7657 48.7437 32.861C48.8251 32.7666 48.8779 32.7588 48.9764 32.8439C49.5599 33.3464 50.1588 33.8295 50.8586 34.1666C51.6853 34.5648 52.5509 34.6999 53.4544 34.511C54.3124 34.3316 54.7998 33.7659 55.0403 32.9531C55.1173 32.6953 55.1537 32.431 55.1953 32.1467Z" fill="black"></path>
  <path d="M106.083 22.6533C106.433 22.3172 106.796 22.028 107.209 21.8002C107.712 21.5233 108.251 21.36 108.816 21.2923C109.879 21.1649 110.909 21.2898 111.878 21.7635C113.094 22.3578 113.927 23.3145 114.454 24.546C114.843 25.4549 115.007 26.4111 114.952 27.3945C114.858 29.0863 114.317 30.6236 113.241 31.9461C112.219 33.203 110.892 33.9481 109.284 34.1827C108.396 34.3123 107.511 34.3035 106.635 34.0869C105.879 33.9002 105.218 33.5465 104.691 32.9637C104.679 32.9503 104.664 32.9395 104.64 32.9182C104.578 33.0373 104.578 33.1622 104.557 33.2805C104.269 34.9545 103.982 36.6284 103.699 38.3031C103.677 38.4373 103.627 38.4889 103.485 38.4884C102.159 38.4835 100.834 38.4857 99.5078 38.4852C99.3198 38.4852 99.3098 38.4737 99.3403 38.2999C99.6887 36.317 100.037 34.3343 100.386 32.3516C100.809 29.9497 101.233 27.5478 101.656 25.1459C101.854 24.0246 102.05 22.9034 102.247 21.7819C102.286 21.5567 102.285 21.5563 102.521 21.5563C103.675 21.5563 104.829 21.5563 105.984 21.556C106.274 21.556 106.273 21.555 106.22 21.8498C106.173 22.1175 106.129 22.3854 106.083 22.6533ZM108.166 25.1486C108.064 25.1413 107.94 25.1586 107.816 25.1745C107.121 25.2642 106.548 25.5766 106.112 26.1227C105.642 26.7113 105.478 27.3904 105.524 28.1374C105.614 29.5958 106.813 30.5765 108.293 30.321C109.15 30.1729 109.768 29.683 110.164 28.9143C110.494 28.2733 110.585 27.5947 110.431 26.8915C110.198 25.8255 109.32 25.1493 108.166 25.1486Z" fill="#FCD31B"></path>
  <path d="M81.8906 34.2621C81.2231 34.2621 80.5555 34.2624 79.8879 34.2619C79.7295 34.2619 79.7207 34.2504 79.7476 34.0947C80.1394 31.8326 80.533 29.5708 80.9219 27.308C81.0141 26.7724 80.9625 26.2617 80.5863 25.8308C80.3382 25.5465 80.0148 25.3925 79.6474 25.3336C79.1135 25.248 78.6034 25.306 78.1433 25.6174C77.6789 25.9315 77.4508 26.393 77.3545 26.9249C77.1621 27.9861 76.9805 29.0491 76.795 30.1117C76.5632 31.4386 76.3308 32.7654 76.1034 34.093C76.0805 34.2269 76.0223 34.2648 75.8915 34.2643C74.5656 34.2604 73.2398 34.2621 71.9139 34.2617C71.722 34.2617 71.7154 34.2536 71.7489 34.0629C72.1239 31.9294 72.4989 29.7959 72.8746 27.6624C73.2984 25.2554 73.7233 22.8486 74.1476 20.4418C74.3342 19.3843 74.5221 18.3269 74.7042 17.2687C74.7275 17.1337 74.7793 17.0851 74.9203 17.0856C76.2462 17.0905 77.5721 17.0885 78.8979 17.0888C79.0905 17.0888 79.0988 17.0995 79.0654 17.2853C78.7608 18.9754 78.4565 20.6655 78.1529 22.3558C78.146 22.3934 78.1098 22.444 78.1558 22.4692C78.1973 22.4919 78.2284 22.4406 78.2611 22.4179C79.0038 21.9028 79.827 21.6344 80.7295 21.5829C81.491 21.5393 82.2309 21.6259 82.9356 21.9175C84.3627 22.5083 85.1488 23.6005 85.3896 25.1065C85.5206 25.9254 85.395 26.7296 85.2535 27.5336C84.9349 29.3434 84.6208 31.154 84.305 32.9641C84.2397 33.3381 84.1703 33.7114 84.1126 34.0864C84.0926 34.2162 84.0432 34.2658 83.9073 34.2646C83.2351 34.2587 82.5629 34.2619 81.8906 34.2621Z" fill="#FCD31B"></path>
  <path d="M86.2412 28.0492C86.2488 26.4324 86.779 25.0086 87.8418 23.791C89.0707 22.3835 90.6341 21.5905 92.4767 21.3355C93.5523 21.1867 94.6127 21.2698 95.6486 21.5966C96.8625 21.9797 97.8907 22.6463 98.701 23.6358C99.481 24.5881 99.9264 25.6815 100.041 26.9015C100.188 28.474 99.8118 29.9226 98.8878 31.2052C97.6519 32.9212 95.9437 33.8699 93.8679 34.1825C92.741 34.3522 91.6283 34.27 90.5464 33.9127C88.977 33.3942 87.7604 32.4338 86.9658 30.9703C86.4717 30.0605 86.2393 29.0842 86.2412 28.0492ZM95.6027 27.6244C95.5995 27.4466 95.5966 27.2716 95.5667 27.0968C95.4582 26.4601 95.159 25.9401 94.6256 25.5671C94.1871 25.2606 93.6914 25.1498 93.1629 25.1765C92.4557 25.2122 91.8629 25.4965 91.4031 26.0328C90.795 26.7422 90.607 27.5767 90.7395 28.4853C90.8201 29.0387 91.0646 29.519 91.5131 29.8705C92.3132 30.4973 93.5146 30.5293 94.4042 29.9363C95.2253 29.3892 95.5892 28.5941 95.6027 27.6244Z" fill="#FCD31B"></path>
  <path d="M32.4796 29.2642C31.219 29.2642 29.9582 29.2642 28.6976 29.2642C28.4976 29.2642 28.4947 29.2688 28.592 29.4505C28.9151 30.0525 29.4399 30.385 30.0882 30.5263C31.2965 30.7895 32.4635 30.6135 33.5974 30.154C33.8854 30.0374 34.1682 29.9088 34.4366 29.7519C34.5315 29.6964 34.5862 29.6976 34.6393 29.8091C35.0631 30.6993 35.4914 31.5879 35.9211 32.4754C35.961 32.5576 35.9524 32.6055 35.8744 32.6588C34.6972 33.4637 33.4148 34.001 31.9939 34.188C30.669 34.3623 29.3654 34.2775 28.1036 33.8211C26.2886 33.1645 25.015 31.9533 24.3951 30.1043C24.1177 29.2769 24.0485 28.4226 24.1245 27.555C24.2482 26.1422 24.7686 24.8911 25.6762 23.8045C26.7127 22.5637 28.0327 21.7737 29.6069 21.4193C30.836 21.1426 32.0687 21.143 33.2682 21.5535C35.3093 22.2518 36.5151 23.687 36.8835 25.8078C37.0798 26.9388 36.8935 28.0366 36.5095 29.1077C36.4662 29.2283 36.4029 29.2676 36.2758 29.2671C35.0103 29.2625 33.7448 29.2642 32.4796 29.2642ZM30.8176 26.446C31.4938 26.446 32.1699 26.4462 32.846 26.4455C32.9108 26.4455 32.9895 26.4697 32.9831 26.3502C32.9567 25.8662 32.7854 25.445 32.4197 25.1231C31.9027 24.6684 31.2838 24.5567 30.6255 24.6711C29.6736 24.8363 29.0669 25.4294 28.6963 26.293C28.634 26.4384 28.6411 26.4458 28.8034 26.4458C29.4746 26.4465 30.1461 26.446 30.8176 26.446Z" fill="black"></path>
  <path d="M45.3182 24.8452C44.813 24.8452 44.3077 24.8488 43.8024 24.8427C43.679 24.8413 43.6338 24.8848 43.6127 25.0031C43.3979 26.2053 43.1759 27.4062 42.9606 28.6081C42.9083 28.9003 42.8833 29.1963 42.9447 29.4913C43.0109 29.8091 43.1896 30.0457 43.4746 30.2024C43.7814 30.3713 44.1173 30.4378 44.4595 30.473C45.055 30.5341 45.6531 30.5273 46.2508 30.527C46.4114 30.5268 46.4194 30.5346 46.3918 30.693C46.198 31.8001 46.0027 32.9072 45.8081 34.0143C45.7942 34.0937 45.7656 34.145 45.671 34.1587C44.3876 34.3428 43.1119 34.3113 41.8476 34.0172C41.151 33.8551 40.4968 33.5894 39.9202 33.1553C39.1265 32.5579 38.6897 31.7527 38.5381 30.7822C38.4193 30.0215 38.5002 29.2694 38.6342 28.5192C38.8449 27.3397 39.0539 26.1603 39.2685 24.9816C39.289 24.8694 39.2573 24.8437 39.1529 24.8442C38.6105 24.8471 38.0683 24.8459 37.5259 24.8452C37.3479 24.8449 37.3425 24.8405 37.3719 24.6638C37.5557 23.5599 37.7419 22.4562 37.9233 21.3518C37.9421 21.2369 38.0096 21.2269 38.1003 21.2269C38.652 21.2279 39.2035 21.2237 39.7552 21.2299C39.8886 21.2313 39.938 21.1876 39.9608 21.0548C40.1839 19.7556 40.4157 18.4579 40.6403 17.1589C40.6599 17.0452 40.7036 17.002 40.8195 17.0022C42.173 17.0049 43.5267 17.0046 44.8802 17.0027C45.0046 17.0024 45.0379 17.0396 45.0141 17.1682C44.7787 18.4466 44.5502 19.726 44.3187 21.0052C44.2784 21.2277 44.2764 21.2277 44.4984 21.2277C45.4625 21.2277 46.4268 21.2274 47.3909 21.2279C47.6028 21.2279 47.6055 21.2328 47.5713 21.4381C47.3916 22.5195 47.2107 23.6007 47.035 24.6829C47.0142 24.8102 46.9587 24.8496 46.8333 24.8481C46.3288 24.8418 45.8235 24.8452 45.3182 24.8452Z" fill="black"></path>
  <path d="M66.2611 34.2643C65.0819 34.253 63.9533 34.0333 62.8983 33.5016C61.9826 33.0401 61.2268 32.3936 60.6604 31.5324C60.5976 31.4368 60.5957 31.3798 60.6839 31.2997C61.3485 30.6952 62.0088 30.086 62.6705 29.4786C62.7864 29.372 62.9098 29.2725 63.0166 29.1574C63.1139 29.0527 63.1767 29.0755 63.2591 29.173C63.5195 29.4815 63.805 29.7658 64.1142 30.0254C64.6126 30.4436 65.1668 30.7502 65.8189 30.8509C66.179 30.9064 66.5393 30.9144 66.893 30.811C67.0592 30.7624 67.2189 30.6925 67.3027 30.5253C67.3868 30.3573 67.3536 30.1672 67.2228 30.0229C67.0815 29.8672 66.896 29.7809 66.7063 29.7049C66.1042 29.4634 65.4894 29.2539 64.8996 28.9819C64.2134 28.6653 63.5681 28.2867 63.0411 27.7345C62.4393 27.104 62.1339 26.3485 62.1024 25.4792C62.0799 24.8598 62.1662 24.2604 62.4151 23.6889C62.7556 22.9069 63.3207 22.3303 64.0592 21.9209C64.8284 21.4945 65.6627 21.3102 66.5378 21.2775C67.4594 21.2433 68.3594 21.3474 69.2326 21.65C70.2226 21.9932 71.0591 22.5623 71.7403 23.3592C71.7948 23.423 71.7946 23.4623 71.7359 23.5207C70.9774 24.2758 70.2197 25.0316 69.4651 25.7909C69.3802 25.8762 69.337 25.8315 69.2751 25.7711C68.8153 25.3218 68.2978 24.9627 67.6789 24.7657C67.3391 24.6576 66.992 24.6029 66.6378 24.6711C66.3684 24.7229 66.2401 24.8505 66.2071 25.0778C66.1724 25.3167 66.2988 25.4765 66.4868 25.5939C66.7759 25.7748 67.1025 25.8725 67.4188 25.9904C68.2541 26.3013 69.0803 26.6303 69.8188 27.1417C70.4321 27.5663 70.9398 28.0816 71.2199 28.789C71.4666 29.4121 71.492 30.0559 71.3514 30.701C70.9872 32.3728 69.9442 33.4307 68.3389 33.9617C67.6638 34.1851 66.9649 34.2577 66.2611 34.2643Z" fill="#FCD31B"></path>
  <path d="M21.6492 34.2695C20.6294 34.2619 19.624 34.157 18.6579 33.8053C17.8708 33.5188 17.1849 33.0861 16.6885 32.3948C16.3098 31.8676 16.1082 31.2721 16.0338 30.6307C15.9307 29.7399 16.0818 28.8697 16.2397 27.9985C16.5293 26.4011 16.8107 24.8022 17.0935 23.2035C17.3402 21.8097 17.5841 20.4156 17.829 19.0216C17.9363 18.4112 18.0466 17.801 18.1468 17.1894C18.17 17.0474 18.2258 16.9995 18.3715 17C19.7017 17.0051 21.0322 17.0029 22.3625 17.0032C22.5546 17.0032 22.5588 17.0086 22.5241 17.2012C22.1765 19.1313 21.8284 21.0614 21.4813 22.9918C21.1471 24.8493 20.8122 26.7064 20.483 28.5646C20.4355 28.8321 20.3974 29.1012 20.4377 29.3781C20.4976 29.7905 20.713 30.0775 21.0853 30.251C21.4617 30.4263 21.8668 30.4786 22.275 30.4994C22.7656 30.5243 23.2567 30.5331 23.748 30.5268C23.9294 30.5243 23.9328 30.5322 23.9022 30.7052C23.7135 31.7803 23.5229 32.8551 23.3393 33.9312C23.3144 34.0776 23.2696 34.1526 23.1036 34.1719C22.6201 34.2281 22.1371 34.277 21.6492 34.2695Z" fill="black"></path>
</svg>
