<?xml version="1.0" standalone="no"?>
<!DOCTYPE svg PUBLIC "-//W3C//DTD SVG 20010904//EN"
 "http://www.w3.org/TR/2001/REC-SVG-20010904/DTD/svg10.dtd">
<svg version="1.0" xmlns="http://www.w3.org/2000/svg"
 width="820.000000pt" height="226.000000pt" viewBox="0 0 820.000000 226.000000"
 preserveAspectRatio="xMidYMid meet">

<g transform="translate(0.000000,226.000000) scale(0.100000,-0.100000)"
fill="#000000" stroke="none">
<path d="M1215 1130 l-720 -720 215 0 215 0 320 320 c176 176 323 320 327 320
5 0 8 -144 8 -320 l0 -320 180 0 180 0 0 720 c0 396 -1 720 -3 720 -1 0 -326
-324 -722 -720z"/>
<path d="M2010 1690 l0 -160 3045 0 3046 0 -3 158 -3 157 -3042 3 -3043 2 0
-160z"/>
<path d="M2010 915 l0 -505 725 0 725 0 0 325 0 325 -142 0 -143 0 180 180
180 180 -763 0 -762 0 0 -505z m790 209 c0 -3 -76 -81 -170 -173 -93 -91 -170
-170 -170 -174 0 -4 144 -7 320 -7 l320 0 0 -35 0 -35 -365 0 -365 0 0 208 c0
115 3 212 7 215 8 8 423 9 423 1z"/>
<path d="M3601 1416 c2 -3 123 -125 269 -271 l265 -266 3 -238 3 -237 179
-179 180 -180 0 415 0 415 264 270 263 270 -211 3 -210 2 -146 -145 -145 -145
-145 145 -145 145 -214 0 c-118 0 -212 -2 -210 -4z"/>
<path d="M4982 1277 l-142 -142 0 -183 0 -182 540 0 c297 0 540 -4 540 -8 0
-5 -13 -20 -28 -35 l-28 -27 -646 0 -645 0 -7 -77 c-3 -42 -6 -107 -6 -145 l0
-68 723 0 722 0 143 143 142 142 0 183 0 182 -542 0 -542 0 34 35 34 35 491 0
490 0 145 145 145 145 -710 0 -710 0 -143 -143z"/>
<path d="M6532 1277 l-142 -142 0 -183 0 -182 540 0 c297 0 540 -4 540 -8 0
-5 -13 -20 -28 -35 l-28 -27 -490 0 -489 0 -145 -145 -145 -145 705 0 705 0
143 143 142 142 0 183 0 182 -542 0 -542 0 34 35 34 35 491 0 490 0 145 145
145 145 -710 0 -710 0 -143 -143z"/>
<path d="M285 210 c-88 -82 -161 -154 -163 -159 -3 -8 639 -11 2137 -11 1178
0 2141 4 2141 8 0 5 -69 77 -154 160 l-155 152 -1823 -1 -1823 0 -160 -149z"/>
</g>
</svg>
