<?xml version="1.0" encoding="UTF-8"?>
<svg xmlns="http://www.w3.org/2000/svg" width="200" height="80" viewBox="0 0 200 80" fill="none">
  <rect width="200" height="80" fill="white"></rect>
  <g clip-path="url(#clip0_7936_9243)">
    <path d="M40.3893 46.7551V46.3524C42.2517 46.2518 42.5034 45.8994 42.5034 44.1377V34.6243L36.5638 46.7551H36.2114L30.3221 35.1276V43.584C30.3221 45.8994 30.6745 46.3021 32.4866 46.3524V46.7551H27V46.3524C28.9631 46.2518 29.2651 45.9498 29.2651 43.584V35.1276C29.2651 33.5169 29.0134 33.2149 27.0503 33.1142V32.7115H31.6812L37.1174 43.3826L42.302 32.7115H46.9329V33.1142C45.2718 33.1142 44.9195 33.5169 44.9195 35.1276V44.3894C44.9195 45.8994 45.2718 46.2518 46.9329 46.4028V46.7551H40.3893ZM56.5973 46.7551V46.4531C58.1074 46.2014 58.2584 46.0504 58.2584 44.943V39.7081C58.2584 38.8021 58.057 38.4498 57.453 38.4498C57.2013 38.4498 56.9497 38.4498 56.6477 38.5504V38.1981C58.057 37.7954 58.8624 37.4934 60.1208 37.0404L60.2215 37.0907V39.0538C61.4295 37.5437 62.0839 37.0404 63.0403 37.0404C63.8456 37.0404 64.349 37.4934 64.349 38.1981C64.349 38.8021 63.9966 39.1545 63.443 39.1545C63.1409 39.1545 62.8893 39.0538 62.4866 38.7014C62.2349 38.5001 61.9832 38.3994 61.8826 38.3994C61.2282 38.3994 60.2215 39.4565 60.2215 40.1108V44.8927C60.2215 46.1008 60.6242 46.4028 62.2349 46.5034V46.8055L56.5973 46.7551ZM97.0168 46.7551V46.4531C98.3758 46.3021 98.6275 46.0504 98.6275 44.5907V40.4128C98.6275 38.9028 98.0235 38.1477 96.8658 38.1477C95.9597 38.1477 95.255 38.5001 94.2483 39.5068V44.5907C94.2483 46.1008 94.5 46.3021 95.8591 46.4531V46.7551H90.8255V46.4531C92.1342 46.3021 92.2852 46.1008 92.2852 44.5907V34.6243C92.2852 33.7182 92.0839 33.5169 91.0772 33.5169H90.8255V33.2149L91.4295 33.0135L94.1476 32.2585L94.2483 32.3592V38.8021C95.3557 37.4934 96.3121 36.99 97.7215 36.99C99.6342 36.99 100.591 38.1477 100.591 40.3625V44.5907C100.591 46.1008 100.742 46.2518 102 46.4531V46.7551H97.0168ZM109.299 33.8189V39.0538H110.054C111.362 39.0538 112.168 37.6444 112.168 35.631C112.168 33.5672 111.513 32.3088 110.356 32.3088C109.601 32.3088 109.299 32.9632 109.299 33.7685V33.8189ZM113.174 46.7551C112.923 46.7551 112.822 46.6545 112.671 46.4028L110.658 40.4632C110.406 39.7585 109.953 39.7081 109.701 39.7081C109.5 39.7081 109.299 39.8088 109.299 40.1612V43.8357C109.256 44.4873 109.469 45.1299 109.892 45.6277C110.314 46.1255 110.914 46.4395 111.564 46.5034V46.7551H102.151V46.5034C103.359 46.5034 104.668 45.6477 104.668 43.8357V34.4229C104.668 32.9128 103.309 32.0571 102.654 32.0571V31.8055H111.815C114.332 31.8055 116.799 33.0638 116.799 35.5806C116.799 38.1477 114.433 39.0538 113.174 39.3055V39.3558C114.081 39.3558 114.685 39.8592 115.188 40.5135C116.295 41.9229 116.698 44.4397 117.352 45.4464C117.805 46.1008 118.309 46.5538 118.46 46.5538V46.7551H113.174ZM149.315 46.7551V46.6041C149.644 46.5253 149.936 46.3387 150.146 46.0741C150.356 45.8095 150.471 45.4821 150.473 45.1444V40.1612C150.473 38.9531 149.668 38.7518 149.366 38.7518V38.5504L153.946 37.0404C154.248 36.99 154.45 36.99 154.45 37.3927V39.0034C155.154 38.0974 156.161 37.141 157.319 37.141C157.853 37.141 158.365 37.3532 158.742 37.7307C159.12 38.1083 159.332 38.6205 159.332 39.1545C159.332 39.6884 159.12 40.2006 158.742 40.5782C158.365 40.9557 157.853 41.1679 157.319 41.1679C156.312 41.1679 155.809 40.5638 155.557 40.0102C155.406 39.6578 155.305 39.3055 155.154 39.3055C155.003 39.3055 154.752 39.5068 154.45 40.1108V45.1444C154.45 46.2518 155.104 46.5538 155.356 46.6041V46.8055L149.315 46.7551ZM142.067 41.9229C142.067 44.4397 142.067 46.5538 143.426 46.5538C144.584 46.5538 144.785 44.49 144.785 41.9229C144.785 39.4061 144.634 37.3927 143.477 37.3927C142.369 37.3927 142.067 39.4061 142.067 41.9229ZM137.99 41.9229C137.99 39.2048 140.406 36.9397 143.426 36.9397C146.446 36.9397 148.913 39.2048 148.913 41.9732C148.913 44.7417 146.446 46.9565 143.426 46.9565C140.406 46.9565 137.99 44.7417 137.99 41.9229ZM50.104 42.5269C49.847 42.7195 49.6399 42.9708 49.4998 43.2597C49.3597 43.5487 49.2907 43.867 49.2987 44.188C49.2987 45.2954 50.0034 45.7987 50.9094 45.7987C51.4128 45.7987 51.9161 45.6981 52.2685 45.4464C52.9732 45.0437 53.1242 44.7417 53.1242 44.1377V41.1175C51.6141 41.6209 50.7081 42.0236 50.104 42.5269ZM53.1242 45.4967C52.6941 45.9777 52.1662 46.3612 51.5759 46.6216C50.9856 46.882 50.3465 47.0134 49.7013 47.0068C48.2416 47.0068 47.2349 46.2518 47.2349 44.8424C47.2349 43.735 47.9899 42.8793 48.896 42.3256C50.2378 41.6006 51.6559 41.0267 53.1242 40.6142V39.4565C53.1242 38.1477 52.3188 37.5437 51.2617 37.5437C50.3557 37.5437 49.651 38.0471 49.651 38.6008C49.651 39.0034 49.802 39.0538 49.802 39.5068C49.802 39.9095 49.2987 40.3625 48.6946 40.3625C48.1913 40.3625 47.6879 39.9598 47.6879 39.3558C47.6879 38.8524 48.0906 38.1477 48.896 37.6947C49.7311 37.2477 50.667 37.0224 51.6141 37.0404C52.9228 37.0404 53.7785 37.3927 54.3322 38.0471C54.9362 38.6511 55.0369 39.0538 55.0369 40.3625V44.3894C55.0369 45.3961 55.3389 45.8491 55.7416 45.8491C56.094 45.8491 56.3456 45.6981 56.7483 45.4464V46.0001C56.0436 46.8055 55.4396 47.0068 54.6342 47.0068C53.7785 47.0068 53.2752 46.6041 53.1242 45.4967ZM66.2114 44.339V37.8961H64.9027L64.8523 37.7451C64.8523 37.6444 64.953 37.4934 65.255 37.3424C65.8591 37.0404 66.6141 36.235 67.5201 35.0773L67.9732 34.4732C68.0738 34.4732 68.1242 34.5236 68.1242 34.7753V37.2417H70.4899V37.8961H68.1242V43.9363C68.1242 45.3457 68.4765 45.8994 69.3825 45.8994C69.8859 45.8994 70.2383 45.6981 70.7416 45.1444L71.094 45.3961C70.2886 46.4531 69.3825 47.0068 68.2248 47.0068C66.8658 47.0068 66.2114 46.0504 66.2114 44.2887V44.339ZM73.057 40.2618H77.8389C77.5872 38.5504 77.0839 37.8457 75.5235 37.8457C74.2148 37.8457 73.3087 38.6511 73.057 40.2618ZM71.3456 42.2249C71.3456 39.2048 73.2081 37.0404 76.1778 37.0404C77.6376 37.0404 78.6946 37.5437 79.4497 38.5504C79.953 39.1041 80.1544 39.8088 80.255 40.9665H73.0067C73.1074 42.5773 73.2584 43.3826 74.1141 44.3894C74.7685 45.1947 75.6242 45.5471 76.6812 45.5471C78.2919 45.5471 79.198 44.8927 80.3054 43.3323L80.6577 43.4833C79.7517 45.7987 78.1409 47.0068 75.7752 47.0068C73.0067 47.0068 71.3456 45.1444 71.3456 42.2249ZM81.4127 42.3256C81.3888 41.5188 81.5592 40.7181 81.9096 39.991C82.2601 39.2639 82.7802 38.6317 83.4262 38.1477C84.3322 37.443 85.4396 37.0404 86.547 37.0404C88.5604 37.0404 90.1711 38.0471 90.1711 39.2551C90.1711 39.7585 89.6678 40.1108 89.0638 40.1108C88.5604 40.1108 88.1577 39.7585 87.9564 39.1545L87.8054 38.6511C87.5537 37.8961 87.302 37.6444 86.4463 37.6444C84.5336 37.6444 83.2248 39.1545 83.2248 41.3692C83.2248 43.7853 84.7349 45.4967 86.849 45.4967C88.2081 45.4967 89.0638 44.9934 90.1711 43.4833L90.5235 43.6847C90.0683 44.6473 89.3964 45.4915 88.5604 46.1511C87.7952 46.7387 86.8574 47.0572 85.8926 47.0571C83.2752 47.0571 81.4127 45.0437 81.4127 42.3256ZM121.178 40.2115V40.7149H123.342C123.695 40.7149 123.695 40.4632 123.695 39.7585C123.695 38.5504 123.393 37.3927 122.587 37.3927C121.983 37.3927 121.178 38.0974 121.178 40.2115ZM117.453 42.2249C117.453 39.2048 119.869 36.99 122.889 36.99C125.557 36.99 127.419 38.9028 127.419 40.8155C127.419 41.0169 127.319 41.2182 127.017 41.2182H121.178C121.43 43.433 122.285 44.792 124.198 44.792C125.859 44.792 126.966 43.3826 127.218 43.0303C127.319 42.9296 127.47 43.0303 127.47 43.131C127.268 43.9363 125.809 47.0571 122.436 47.0571C119.567 47.0571 117.453 45.1947 117.453 42.2249ZM163.611 41.4196C163.611 44.2383 164.366 45.5471 165.221 45.5471C165.674 45.5471 166.027 45.1947 166.329 44.641V38.5504C166.027 37.9464 165.624 37.5437 165.121 37.5437C164.215 37.5437 163.611 38.5504 163.611 41.3692V41.4196ZM159.584 42.6276C159.584 39.3558 162 37.0907 164.265 37.0907C165.171 37.0907 165.826 37.292 166.279 37.7451V34.3726C166.279 33.1645 165.523 32.9632 165.272 32.9632V32.7618L169.752 31.2518C170.003 31.2518 170.255 31.2014 170.255 31.6041V45.1444C170.255 46.2014 170.859 46.5538 171.262 46.5538V46.7551H166.581C166.379 46.7551 166.329 46.6545 166.329 46.5034V45.4967C165.989 45.9779 165.535 46.3675 165.008 46.6309C164.481 46.8944 163.898 47.0235 163.309 47.0068C161.446 47.0068 159.584 45.3457 159.584 42.5773V42.6276ZM128.326 42.3759C128.326 38.9531 130.993 37.0907 133.56 37.0907C135.674 37.0907 136.782 38.0974 136.782 39.3558C136.782 40.3625 136.027 41.2182 134.919 41.2182C134.47 41.2055 134.042 41.0212 133.723 40.7029C133.405 40.3847 133.221 39.9567 133.208 39.5068C133.208 38.1981 134.114 37.9967 134.114 37.7451C134.114 37.5437 133.963 37.443 133.661 37.443C133.057 37.443 131.748 38.6008 131.748 40.8155C131.748 43.0303 132.956 44.641 134.668 44.641C136.178 44.641 137.084 43.3826 137.285 42.98C137.336 42.9296 137.436 42.98 137.537 43.0303C137.034 44.6914 135.523 47.0571 132.856 47.0571C130.49 47.0571 128.326 45.5471 128.326 42.3759ZM172.369 45.2954C172.369 44.1377 173.376 43.433 174.433 43.433C175.49 43.433 176.547 44.188 176.547 45.2954C176.547 46.4028 175.54 47.1578 174.433 47.1578C173.376 47.1578 172.369 46.4028 172.369 45.2954Z" fill="#231F20"></path>
  </g>
  <defs>
    <clipPath id="clip0_7936_9243">
      <rect width="150" height="16.1074" fill="white" transform="translate(27 31)"></rect>
    </clipPath>
  </defs>
</svg>
