<?xml version="1.0" encoding="UTF-8"?>
<svg xmlns="http://www.w3.org/2000/svg" width="140" height="54" viewBox="0 0 140 54" fill="none">
  <g clip-path="url(#clip0_6990_11192)">
    <mask id="mask0_6990_11192" style="mask-type:luminance" maskUnits="userSpaceOnUse" x="15" y="18" width="110" height="17">
      <path d="M125 18H15V34.383H125V18Z" fill="white"></path>
    </mask>
    <g mask="url(#mask0_6990_11192)">
      <path d="M31.3151 20.9384H29.7647V34.1265H26.9037L19.914 25.1412V31.1881H21.4644V34.1265H15V31.1881H16.5504V20.9384H15V18H19.9083L26.4011 26.3637V20.9384H24.8507V18H31.3151V20.9384ZM41.6286 28.3583C41.6286 28.5939 41.6286 28.8309 41.6073 29.0874H34.5451C34.3634 31.3149 35.2068 31.9896 36.5144 31.9896C37.6062 31.9896 38.417 31.2912 38.417 30.1817H41.4611C41.3957 32.1331 40.3408 34.3844 36.3214 34.3844C32.3018 34.3844 30.4021 31.5323 30.4021 28.3374C30.4021 25.4855 32.3458 22.4397 36.2561 22.4397C40.1662 22.4397 41.6286 24.992 41.6286 28.3583ZM59.2016 25.4715H58.168L55.5498 34.1279H52.0713L50.4244 29.3857L48.9676 34.1279H45.418L42.4791 25.4715H41.4454V22.5401H47.5932V25.4715H46.0428L47.6443 30.0813L49.7541 22.5401H51.6454L54.2351 30.0799L55.6123 25.4715H54.0619V22.5401H59.203V25.4715H59.2016ZM63.5235 25.5914C63.5235 25.9998 63.8515 26.2786 65.0086 26.6424L66.6684 27.1791C68.1976 27.6726 70.0319 28.7877 70.0319 30.8243C70.0319 33.226 68.1976 34.3844 65.9472 34.3844C64.1567 34.3844 62.7412 33.5257 62.3692 33.141L62.365 34.1279H59.3592V30.1176H62.2996C62.3877 31.4264 63.5661 32.1122 64.6594 32.1122C65.5326 32.1122 65.9486 31.7484 65.9486 31.2982C65.9486 30.7616 65.6206 30.4618 64.1354 29.9907L62.6717 29.5181C61.1865 29.047 59.504 27.975 59.504 26.0235C59.504 23.6427 61.6451 22.4425 63.4795 22.4425C65.3139 22.4425 66.2879 22.961 66.7465 23.4754L66.7564 22.5749H69.7678V26.1991H66.6698C66.6258 25.2122 65.6433 24.7801 64.6608 24.7801C63.897 24.7801 63.525 25.123 63.525 25.5942M88.0693 25.4743H87.0342L84.4161 34.1307H80.9375L79.2906 29.3885L77.8338 34.1307H74.2843L71.3453 25.4743H70.3117V22.5429H76.4608V25.4743H74.909L76.5105 30.0841L78.6204 22.5429H80.5116L83.1013 30.0827L84.4786 25.4743H82.9281V22.5429H88.0693V25.4743ZM98.9674 28.3361C98.9674 28.5716 98.9674 28.8072 98.9464 29.0651H91.8843C91.7025 31.2926 92.5459 31.9673 93.8536 31.9673C94.945 31.9673 95.7564 31.2689 95.7564 30.1594H98.8005C98.735 32.1109 97.6802 34.3621 93.6601 34.3621C89.641 34.3621 87.7413 31.5101 87.7413 28.3152C87.7413 25.4632 89.685 22.4174 93.5954 22.4174C97.5055 22.4174 98.9674 24.9697 98.9674 28.3361ZM110.61 28.311C110.61 28.5466 110.61 28.7821 110.589 29.04H103.527C103.345 31.2676 104.188 31.9422 105.496 31.9422C106.588 31.9422 107.398 31.2438 107.398 30.1342H110.443C110.377 32.0858 109.322 34.3369 105.303 34.3369C101.284 34.3369 99.384 31.485 99.384 28.2901C99.384 25.4381 101.327 22.3923 105.237 22.3923C109.148 22.3923 110.61 24.9446 110.61 28.311ZM123.419 34.1084H119.866L116.183 29.3759L114.979 30.2542V31.17H116.03V34.107H110.576V31.1811H111.61V20.8841H110.06V18H114.979V27.26L117.444 25.491H115.893V22.5401H122.536V25.491H121.502L118.906 27.384L121.869 31.1755H123.419V34.1042L123.419 34.1084ZM125.002 33.4672C125.002 33.5871 124.97 33.6986 124.91 33.8017C124.849 33.9048 124.766 33.9871 124.662 34.047C124.555 34.107 124.442 34.1362 124.321 34.1362C124.2 34.1362 124.087 34.107 123.982 34.047C123.877 33.9871 123.793 33.9048 123.732 33.8017C123.672 33.6986 123.639 33.5871 123.639 33.4672C123.639 33.3473 123.671 33.2358 123.732 33.1326C123.793 33.0281 123.876 32.9472 123.982 32.8873C124.087 32.8274 124.2 32.798 124.321 32.798C124.442 32.798 124.557 32.8274 124.662 32.8873C124.766 32.9472 124.849 33.0281 124.91 33.1326C124.97 33.2358 125.002 33.3473 125.002 33.4672ZM124.709 33.8477C124.817 33.7432 124.87 33.6149 124.87 33.4672C124.87 33.3194 124.815 33.1912 124.709 33.0866C124.602 32.9807 124.473 32.9277 124.321 32.9277C124.169 32.9277 124.04 32.9807 123.932 33.0866C123.826 33.1912 123.772 33.3194 123.772 33.4672C123.772 33.6149 123.826 33.7432 123.932 33.8477C124.04 33.9523 124.169 34.0066 124.321 34.0066C124.473 34.0066 124.602 33.9537 124.709 33.8477ZM124.42 33.5104C124.449 33.5201 124.469 33.5327 124.482 33.5439C124.5 33.5591 124.519 33.5843 124.54 33.6163C124.54 33.6191 124.581 33.6888 124.658 33.824H124.444C124.374 33.6874 124.328 33.6052 124.304 33.5787C124.28 33.5522 124.256 33.5396 124.233 33.5396C124.228 33.5396 124.221 33.5396 124.21 33.5425V33.824H124.039V33.1089H124.354C124.446 33.1089 124.501 33.127 124.543 33.1633C124.584 33.1995 124.604 33.2497 124.604 33.3097C124.604 33.357 124.588 33.3988 124.557 33.4337C124.526 33.4686 124.487 33.4936 124.42 33.5104M124.398 33.3863C124.42 33.3696 124.43 33.3487 124.43 33.3222C124.43 33.2957 124.42 33.2748 124.399 33.2581C124.378 33.2413 124.344 33.233 124.294 33.233H124.209V33.41H124.287C124.34 33.41 124.375 33.4016 124.398 33.3849M103.532 27.1512H107.388C107.388 25.5231 106.309 24.8735 105.502 24.8735C104.572 24.8735 103.597 25.629 103.532 27.1512ZM34.5522 27.2014H38.4085C38.4085 25.5733 37.328 24.9237 36.5215 24.9237C35.5901 24.9237 34.6161 25.6792 34.5508 27.2014M91.8871 27.1763H95.7447C95.7447 25.5482 94.6642 24.8986 93.8575 24.8986C92.9278 24.8986 91.9524 25.6527 91.8871 27.1763Z" fill="#F72210"></path>
    </g>
  </g>
  <defs>
    <clipPath id="clip0_6990_11192">
      <rect width="110" height="16.383" fill="white" transform="translate(15 18)"></rect>
    </clipPath>
  </defs>
</svg>
