<?xml version="1.0" encoding="UTF-8"?>
<svg xmlns="http://www.w3.org/2000/svg" width="140" height="54" viewBox="0 0 140 54" fill="none">
  <path fill-rule="evenodd" clip-rule="evenodd" d="M41.5285 12.4364C35.672 19.3141 30.0568 27.8431 30.0005 34.2182C29.9785 36.6169 30.7443 38.7109 32.5811 40.297C35.2245 42.5812 38.1371 43.3867 41.0354 43.3915C45.2709 43.3974 49.4767 41.6886 52.7697 40.3711C58.3157 38.1532 119.621 11.5307 119.621 11.5307C120.212 11.2344 120.101 10.8651 119.361 11.0494C119.062 11.1241 52.621 29.1298 52.621 29.1298C51.3625 29.4858 50.062 29.672 48.7542 29.6834C43.648 29.7137 39.1044 26.8794 39.1411 20.9067C39.1554 18.5697 39.8707 15.7513 41.5285 12.4364Z" fill="black"></path>
</svg>
