<?xml version="1.0" encoding="UTF-8"?>
<svg xmlns="http://www.w3.org/2000/svg" width="140" height="54" viewBox="0 0 140 54" fill="none">
  <g clip-path="url(#clip0_6990_11157)">
    <path d="M38.2896 9.00265C28.1886 9.00265 20 17.1912 20 27.2923C20 37.1011 27.7221 45.1064 37.4186 45.5606C37.708 45.5743 37.9978 45.582 38.2899 45.582C42.9726 45.582 47.2431 43.8213 50.4789 40.9275C48.335 42.3494 45.8285 43.1675 43.1498 43.1675C38.7942 43.1675 34.8934 41.0067 32.2699 37.5993C30.2475 35.2121 28.9376 31.6832 28.8484 27.7228V26.8615C28.9376 22.9013 30.2475 19.3717 32.2694 16.985C34.8933 13.5776 38.794 11.4169 43.1492 11.4169C45.8286 11.4169 48.3356 12.235 50.4797 13.6577C47.2597 10.7772 43.015 9.02004 38.3584 9.00275C38.3352 9.00275 38.3125 9.00184 38.2893 9.00184L38.2896 9.00265Z" fill="url(#paint0_linear_6990_11157)"></path>
    <path d="M32.2695 16.9861C33.948 15.0047 36.1155 13.8098 38.4837 13.8098C43.8084 13.8098 48.1241 19.8466 48.1241 27.2932C48.1241 34.7398 43.8081 40.7765 38.4837 40.7765C36.1155 40.7765 33.948 39.5822 32.27 37.6007C34.8934 41.0081 38.7939 43.1688 43.1498 43.1688C45.8287 43.1688 48.3353 42.3507 50.479 40.9289C54.2226 37.5798 56.5799 32.7119 56.5799 27.2933C56.5799 21.8753 54.223 17.0077 50.4803 13.659C48.336 12.2362 45.829 11.4182 43.1499 11.4182C38.7943 11.4182 34.893 13.5787 32.2695 16.9861Z" fill="url(#paint1_linear_6990_11157)"></path>
    <path d="M84.9039 34.8698C82.5972 34.8698 80.7204 32.8069 80.7204 30.2708C80.7204 27.7352 82.5972 25.6719 84.9039 25.6719C87.2107 25.6719 89.0875 27.7352 89.0875 30.2708C89.0875 32.8069 87.2107 34.8698 84.9039 34.8698ZM84.9039 24.3971C83.2847 24.3971 81.8892 25.1611 80.9447 26.3699V24.6656H79.6553V39.4865H80.9447V34.1718C81.8892 35.3807 83.2847 36.1441 84.9039 36.1441C87.9132 36.1441 90.3619 33.5093 90.3619 30.2707C90.3619 27.0326 87.9132 24.3971 84.9039 24.3971Z" fill="black"></path>
    <path d="M70.5396 35.2254C66.9089 35.2254 63.9551 32.1019 63.9551 28.2633C63.9551 24.4242 66.9089 21.3013 70.5396 21.3013C74.1704 21.3013 77.1242 24.4244 77.1242 28.2633C77.1242 32.1021 74.1704 35.2254 70.5396 35.2254ZM70.5396 20.0702C66.2305 20.0702 62.7246 23.7456 62.7246 28.2633C62.7246 32.7805 66.2303 36.4558 70.5396 36.4558C74.849 36.4558 78.3546 32.7805 78.3546 28.2633C78.3546 23.7458 74.849 20.0702 70.5396 20.0702Z" fill="black"></path>
    <path d="M108.409 24.443C107.965 24.4625 107.545 24.5795 107.153 24.7878C106.328 25.2278 105.757 25.8985 105.392 26.7525C105.384 26.773 105.374 26.793 105.365 26.8126C105.361 26.8121 105.357 26.8112 105.353 26.8107V24.7574H105.351V24.7364H104.062V35.8408H105.353V35.7657C105.353 33.7684 105.354 32.0108 105.353 30.0133C105.353 29.1939 105.482 28.5287 105.751 27.8794C105.999 27.2784 106.346 26.7442 106.844 26.3179C107.429 25.8165 108.101 25.6009 108.869 25.7233C108.994 25.7433 109.117 25.7706 109.247 25.7956C109.32 25.428 109.495 24.9602 109.57 24.5881C109.212 24.488 108.745 24.4284 108.409 24.443Z" fill="black"></path>
    <path d="M96.9758 25.6896C99.2548 25.6896 100.848 27.2251 101.115 29.5769H92.848C93.161 27.3785 94.8897 25.6896 96.9758 25.6896ZM96.9761 24.4152C93.9668 24.4152 91.5186 27.05 91.5186 30.2886C91.5186 33.5272 93.9668 36.1615 96.9761 36.1615C99.1286 36.1615 100.994 34.8134 101.881 32.8606L100.77 32.2141C100.106 33.7896 98.6568 34.8876 96.9761 34.8876C94.7962 34.8876 93.0027 33.0444 92.8116 30.7017H102.418C102.427 30.5652 102.433 30.4278 102.433 30.2886C102.433 26.8307 100.19 24.4152 96.9761 24.4152Z" fill="black"></path>
    <path d="M114.751 34.8698C112.445 34.8698 110.568 32.8069 110.568 30.2708C110.568 27.7352 112.445 25.6718 114.751 25.6718C117.058 25.6718 118.935 27.7352 118.935 30.2708C118.935 32.8069 117.058 34.8698 114.751 34.8698ZM118.711 24.6662V26.3705C117.766 25.1616 116.371 24.3978 114.751 24.3978C111.742 24.3978 109.294 27.033 109.294 30.2711C109.294 33.5097 111.742 36.1445 114.751 36.1445C116.371 36.1445 117.766 35.3811 118.711 34.1722V35.8411H120V24.6664L118.711 24.6662Z" fill="black"></path>
  </g>
  <defs>
    <linearGradient id="paint0_linear_6990_11157" x1="35.2403" y1="9.59884" x2="35.2403" y2="45.0503" gradientUnits="userSpaceOnUse">
      <stop stop-color="#FF1B2D"></stop>
      <stop offset="0.3" stop-color="#FF1B2D"></stop>
      <stop offset="0.614" stop-color="#FF1B2D"></stop>
      <stop offset="1" stop-color="#A70014"></stop>
    </linearGradient>
    <linearGradient id="paint1_linear_6990_11157" x1="44.4243" y1="11.6888" x2="44.4243" y2="43.0436" gradientUnits="userSpaceOnUse">
      <stop stop-color="#9C0000"></stop>
      <stop offset="0.7" stop-color="#FF4B4B"></stop>
      <stop offset="1" stop-color="#FF4B4B"></stop>
    </linearGradient>
    <clipPath id="clip0_6990_11157">
      <rect width="100" height="36.581" fill="white" transform="translate(20 9)"></rect>
    </clipPath>
  </defs>
</svg>
