<?xml version="1.0" encoding="UTF-8"?>
<svg xmlns="http://www.w3.org/2000/svg" width="140" height="54" viewBox="0 0 140 54" fill="none">
  <g clip-path="url(#clip0_6994_11390)">
    <path d="M67.5856 31.7365C66.3784 31.7365 65.3221 31.1831 64.6178 30.2274V34.3018C64.6178 34.7546 64.2657 35.1067 63.7627 35.1067C63.6566 35.108 63.5514 35.0881 63.4531 35.0482C63.3549 35.0082 63.2656 34.949 63.1906 34.874C63.1156 34.799 63.0564 34.7097 63.0164 34.6114C62.9764 34.5132 62.9565 34.4079 62.9579 34.3018V23.2355C62.9579 22.7827 63.31 22.4306 63.813 22.4306C63.9191 22.4293 64.0243 22.4492 64.1226 22.4891C64.2209 22.5291 64.3101 22.5883 64.3851 22.6633C64.4601 22.7383 64.5194 22.8276 64.5593 22.9259C64.5993 23.0241 64.6192 23.1294 64.6178 23.2355V23.8391C65.2718 22.9336 66.3784 22.33 67.5856 22.33C69.9498 22.33 71.6098 24.0906 71.6098 27.0584C71.6098 29.9256 69.9498 31.7365 67.5856 31.7365ZM67.0826 23.7385C66.0766 23.7385 65.0203 24.3421 64.5675 25.0463V28.8693C65.0203 29.5735 66.0766 30.2274 67.0826 30.2274C68.7929 30.2274 69.7989 28.8693 69.7989 26.9578C69.7989 25.0463 68.8432 23.7385 67.0826 23.7385ZM77.3945 20.2173C77.3945 20.821 76.9418 21.2737 76.3382 21.2737C75.7345 21.2737 75.2818 20.7707 75.2818 20.2173C75.2818 19.6137 75.7848 19.1107 76.3382 19.1107C76.9921 19.1107 77.3945 19.6137 77.3945 20.2173ZM76.3885 31.5856C76.2824 31.5869 76.1771 31.567 76.0789 31.527C75.9806 31.4871 75.8914 31.4278 75.8164 31.3528C75.7413 31.2778 75.6821 31.1886 75.6421 31.0903C75.6022 30.9921 75.5823 30.8868 75.5836 30.7807V23.1852C75.5836 22.7324 75.9357 22.3803 76.4388 22.3803C76.5448 22.379 76.6501 22.3989 76.7484 22.4388C76.8466 22.4788 76.9359 22.538 77.0109 22.613C77.0859 22.688 77.1451 22.7773 77.1851 22.8756C77.225 22.9738 77.2449 23.0791 77.2436 23.1852V30.7807C77.2436 31.2334 76.7909 31.5856 76.3885 31.5856ZM88.7124 30.6298C88.0585 31.2837 87.1027 31.7365 85.7949 31.7365C83.0786 31.7365 81.2174 29.7244 81.2174 27.0081C81.2174 24.3421 83.0786 22.2797 85.7949 22.2797C87.1531 22.2797 88.1591 22.7827 88.813 23.487C88.9136 23.5876 88.9639 23.7385 88.9639 23.8894C88.9588 24.0879 88.8777 24.2769 88.7373 24.4173C88.5969 24.5577 88.4079 24.6388 88.2094 24.6439C88.0082 24.6439 87.8573 24.5936 87.7064 24.4427C87.2034 23.99 86.5997 23.7888 85.9458 23.7888C84.1349 23.7888 82.978 25.1469 82.978 27.0584C82.978 28.9699 84.1349 30.328 85.9458 30.328C86.5997 30.328 87.2034 30.1268 87.7064 29.6741C87.857 29.5785 88.031 29.5263 88.2094 29.5232C88.6118 29.5232 89.0142 29.825 89.0142 30.2274C88.9639 30.2777 88.8633 30.4789 88.7124 30.6298ZM96.8613 31.7365C94.0444 31.7365 92.3341 29.5735 92.3341 27.0081C92.3341 24.4427 94.0947 22.2797 96.8613 22.2797C99.6782 22.2797 101.439 24.3924 101.439 27.0081C101.439 29.6238 99.6782 31.7365 96.8613 31.7365ZM96.8613 23.7385C95.0504 23.7385 94.0444 25.2475 94.0444 27.0081C94.0444 28.7687 95.0504 30.2777 96.8613 30.2777C98.6722 30.2777 99.6782 28.7687 99.6782 27.0081C99.6782 25.2475 98.6722 23.7385 96.8613 23.7385ZM112.706 31.5856C112.6 31.5869 112.495 31.567 112.397 31.527C112.299 31.4871 112.209 31.4278 112.134 31.3528C112.059 31.2778 112 31.1886 111.96 31.0903C111.92 30.9921 111.9 30.8868 111.902 30.7807V30.1771C111.197 31.0825 110.141 31.6862 108.934 31.6862C106.62 31.6862 104.91 29.9256 104.91 26.9578C104.91 24.0403 106.57 22.2294 108.934 22.2294C110.091 22.2294 111.197 22.7827 111.902 23.7385V19.664C111.902 19.2113 112.254 18.8592 112.757 18.8592C112.863 18.8578 112.968 18.8777 113.066 18.9177C113.165 18.9577 113.254 19.0169 113.329 19.0919C113.404 19.1669 113.463 19.2562 113.503 19.3544C113.543 19.4527 113.563 19.558 113.561 19.664V30.7304C113.511 31.2334 113.209 31.5856 112.706 31.5856ZM111.851 25.0463C111.399 24.3421 110.342 23.6882 109.336 23.6882C107.676 23.6882 106.62 25.0463 106.62 26.9578C106.62 28.819 107.676 30.2274 109.336 30.2274C110.392 30.2274 111.399 29.6238 111.851 28.9196V25.0463ZM120 20.2173C120 20.821 119.547 21.2737 118.944 21.2737C118.34 21.2737 117.887 20.7707 117.887 20.2173C117.887 19.6137 118.39 19.1107 118.944 19.1107C119.497 19.1107 120 19.6137 120 20.2173ZM118.893 31.5856C118.787 31.5869 118.682 31.567 118.584 31.527C118.486 31.4871 118.396 31.4278 118.321 31.3528C118.246 31.2778 118.187 31.1886 118.147 31.0903C118.107 30.9921 118.087 30.8868 118.089 30.7807V23.1852C118.089 22.7324 118.441 22.3803 118.944 22.3803C119.05 22.379 119.155 22.3989 119.253 22.4388C119.352 22.4788 119.441 22.538 119.516 22.613C119.591 22.688 119.65 22.7773 119.69 22.8756C119.73 22.9738 119.75 23.0791 119.749 23.1852V30.7807C119.749 31.2334 119.397 31.5856 118.893 31.5856ZM34.2858 24.5936C33.984 24.9457 33.6319 25.2475 33.2798 25.5493C33.1792 25.6499 33.1289 25.8008 33.1289 25.9518C33.1302 26.0981 33.1889 26.2381 33.2924 26.3416C33.3959 26.445 33.5359 26.5038 33.6822 26.5051H34.2355C34.5374 26.5051 34.8392 26.5051 35.141 26.4548C35.0907 25.7505 34.7889 25.0463 34.2858 24.5936Z" fill="black"></path>
    <path d="M48.6724 15.8913C47.8173 13.2253 46.2579 10.9115 44.1453 9.2012C44.0447 9.10059 43.8938 9.05029 43.7429 9.05029C43.5965 9.05161 43.4565 9.11032 43.3531 9.21381C43.2496 9.31729 43.1908 9.45727 43.1895 9.60361C43.1895 9.75452 43.2901 9.90542 43.2398 9.85512C43.5416 10.66 43.7429 11.5654 43.7429 12.4708C43.7429 13.0744 43.6423 13.6781 43.4913 14.2817C43.3404 14.2817 43.1895 14.2314 43.0386 14.2314C42.938 14.2314 42.8374 14.2314 42.7368 14.1811C42.435 14.1811 42.1332 14.1308 41.8314 14.1308C41.3787 14.1308 40.9763 14.1308 40.5235 14.1811H40.4229C40.272 14.1811 40.0708 14.2314 39.9199 14.2314C39.0145 12.8732 37.7066 11.8672 36.1473 11.3642C36.1976 11.3642 36.097 11.3139 35.9461 11.3139C35.6946 11.3139 35.5437 11.5151 35.5437 11.7163C35.5437 11.7666 35.5437 11.8672 35.594 11.9175C36.1504 12.8728 36.5575 13.9075 36.8012 14.9859C36.8515 15.1368 36.8515 15.338 36.9018 15.4889V15.5392C36.9521 15.6901 36.9521 15.841 36.9521 15.9919V16.2435C36.9521 16.3441 36.9521 16.495 37.0024 16.5956V18.4064C37.0024 18.507 37.0024 18.5573 36.9521 18.6579V18.9597C36.9521 19.0604 36.9018 19.161 36.9018 19.2616C36.9018 19.3622 36.8515 19.4125 36.8515 19.5131V19.5634C36.8515 19.664 36.8012 19.7646 36.8012 19.8652C36.8012 19.9658 36.7509 20.0161 36.7509 20.1167C36.7006 20.2173 36.7006 20.3179 36.6503 20.4185C36.6503 20.5191 36.6 20.5694 36.6 20.67C36.5497 20.7706 36.5497 20.8712 36.4994 20.9718C36.4491 21.0221 36.4491 21.1227 36.3988 21.173L36.2479 21.4748C36.1976 21.5251 36.1976 21.6257 36.1473 21.676L35.9964 21.9779C35.9461 22.0282 35.9461 22.0785 35.8958 22.1791L35.7449 22.4809C35.6946 22.5312 35.6946 22.5815 35.6443 22.6821C35.594 22.7827 35.5437 22.8833 35.4431 22.9839C35.3928 23.0342 35.3928 23.0845 35.3425 23.1348C35.2922 23.2354 35.1915 23.336 35.1412 23.4366C35.0909 23.4869 35.0406 23.5372 35.0406 23.5875C34.9903 23.6881 34.8897 23.7887 34.8394 23.839L34.6885 23.9899C34.6382 24.0905 34.5376 24.1408 34.4873 24.2414L34.3867 24.342C34.8897 24.8451 35.2418 25.499 35.2922 26.2535V26.2032C36.3485 25.7002 37.3042 25.0463 38.1091 24.2414C38.4612 23.8893 38.763 23.5372 39.0648 23.1348C39.0648 23.0845 39.1151 23.0845 39.1151 23.0342C39.266 22.8833 39.3666 22.6821 39.4672 22.4809C39.4672 22.4306 39.5175 22.4306 39.5175 22.3803C39.6181 22.1791 39.769 21.9779 39.8696 21.7767V21.7263C39.9702 21.5251 40.0708 21.2736 40.1714 21.0221C40.1714 20.9718 40.2217 20.9718 40.2217 20.9215C40.3223 20.7203 40.3726 20.5191 40.4229 20.3682C40.4229 20.3179 40.4732 20.2173 40.4732 20.167C40.5235 20.0161 40.5738 19.8149 40.6241 19.664C40.6241 19.6137 40.6744 19.5131 40.6744 19.4628L40.8254 18.7585C41.0266 17.3501 42.2841 16.2938 43.7429 16.2938H44.1453C44.1956 16.2938 44.2459 16.2938 44.3465 16.3441C44.3968 16.3441 44.4471 16.3441 44.4974 16.3944C44.5477 16.3944 44.598 16.3944 44.6483 16.4447C44.6986 16.4447 44.7489 16.495 44.7992 16.495C44.8495 16.495 44.8998 16.5453 44.8998 16.5453C44.9501 16.5453 45.0004 16.5956 45.0507 16.5956C45.101 16.5956 45.101 16.6459 45.1513 16.6459C45.2016 16.6962 45.2519 16.6962 45.3022 16.7465C45.3525 16.7465 45.3525 16.7968 45.4028 16.7968C45.4531 16.8471 45.5034 16.8471 45.5537 16.8974L46.0064 17.3501C46.0567 17.4004 46.107 17.4507 46.1573 17.5513V17.6016C46.2076 17.6519 46.2579 17.7525 46.3082 17.8028C46.3585 17.8531 46.4089 17.9537 46.4089 18.0543C46.4592 18.1549 46.4592 18.2052 46.5095 18.3058C46.6101 18.6076 46.7107 18.9597 46.7107 19.3119C46.7107 19.664 46.761 19.9658 46.761 20.3179C46.761 21.0724 46.7107 21.7767 46.5598 22.5312L49.1755 21.9779C49.2761 21.3742 49.3264 20.7203 49.3264 20.0664C49.3264 18.7082 49.0748 17.2495 48.6724 15.8913Z" fill="#FF7F32"></path>
    <path d="M46.6597 19.4628C46.6597 19.1107 46.6094 18.7586 46.4585 18.4568C46.4082 18.3562 46.4082 18.3059 46.3579 18.2053C46.3076 18.1047 46.2573 18.0544 46.2573 17.9538C46.207 17.9035 46.1567 17.8029 46.1064 17.7525V17.7022C46.0561 17.6519 46.0058 17.5513 45.9555 17.501L45.5028 17.0483C45.4525 16.998 45.4022 16.9477 45.3519 16.9477C45.3016 16.9477 45.3016 16.8974 45.2513 16.8974C45.201 16.8471 45.1507 16.8471 45.1004 16.7968C45.0501 16.7968 45.0501 16.7465 44.9998 16.7465C44.9495 16.7465 44.8992 16.6962 44.8489 16.6962C44.7986 16.6962 44.7483 16.6459 44.7483 16.6459C44.698 16.6459 44.6477 16.5956 44.5973 16.5956C44.547 16.5956 44.4967 16.5453 44.4464 16.5453C44.3961 16.5453 44.3458 16.5453 44.2955 16.495C44.2452 16.495 44.1949 16.495 44.0943 16.4447H43.6919C42.2332 16.4447 41.0259 17.501 40.7744 18.9095L40.6235 19.6137C40.6235 19.664 40.5732 19.7646 40.5732 19.8149L40.4223 20.3179C40.4223 20.3682 40.372 20.4688 40.372 20.5191C40.3217 20.7204 40.2211 20.9216 40.1708 21.0725C40.1708 21.1228 40.1205 21.1228 40.1205 21.1731L39.8187 21.8773V21.9276C39.7181 22.1288 39.6175 22.33 39.4666 22.5312C39.4666 22.5815 39.4163 22.5815 39.4163 22.6318C39.3157 22.833 39.1648 22.9839 39.0641 23.1851C39.0641 23.2354 39.0138 23.2354 39.0138 23.2857C38.712 23.6882 38.4102 24.0403 38.0581 24.3924C37.2533 25.1972 36.2975 25.8511 35.2412 26.3542V26.4045C38.2593 26.2033 41.0259 25.0966 43.2392 23.336C43.2392 23.336 43.4907 23.1851 43.8428 22.833C44.2452 22.4809 44.547 22.1288 44.7483 21.9276C44.1949 21.5252 44.0943 20.9216 44.0943 20.9216C44.0943 20.9216 44.4464 21.4246 44.9495 21.7264C45.4022 22.0785 46.0561 22.0785 46.0561 22.0785C46.0561 22.0785 45.5028 22.33 44.8489 21.9779C44.7986 22.1288 44.698 22.2797 44.5973 22.4809C44.2955 22.9336 44.1446 23.0845 44.044 23.1851L46.6597 22.6318C46.7603 21.9276 46.8609 21.1731 46.8609 20.4185C46.71 20.1167 46.71 19.8149 46.6597 19.4628ZM42.8368 19.8149C42.7307 19.8163 42.6255 19.7964 42.5272 19.7564C42.4289 19.7164 42.3397 19.6572 42.2647 19.5822C42.1897 19.5072 42.1304 19.4179 42.0905 19.3197C42.0505 19.2214 42.0306 19.1162 42.032 19.0101C42.032 18.7966 42.1168 18.5919 42.2677 18.441C42.4186 18.2901 42.6233 18.2053 42.8368 18.2053C43.0502 18.2053 43.255 18.2901 43.4059 18.441C43.5568 18.5919 43.6416 18.7966 43.6416 19.0101C43.643 19.1162 43.6231 19.2214 43.5831 19.3197C43.5431 19.4179 43.4839 19.5072 43.4089 19.5822C43.3339 19.6572 43.2446 19.7164 43.1464 19.7564C43.0481 19.7964 42.9429 19.8163 42.8368 19.8149Z" fill="white"></path>
    <path d="M42.8371 19.8149C43.2816 19.8149 43.6419 19.4545 43.6419 19.01C43.6419 18.5655 43.2816 18.2052 42.8371 18.2052C42.3926 18.2052 42.0322 18.5655 42.0322 19.01C42.0322 19.4545 42.3926 19.8149 42.8371 19.8149Z" fill="black"></path>
    <path d="M44.8489 21.8269C44.3962 21.4748 43.9938 21.0221 43.9938 21.0221C43.9938 21.0221 44.0944 21.6257 44.6477 22.0281L43.7423 22.9336C43.3902 23.2857 43.1387 23.4366 43.1387 23.4366L43.8932 23.2857C43.8932 23.2857 44.0944 23.1348 44.4465 22.5815C44.5502 22.4245 44.6346 22.2556 44.698 22.0784C45.352 22.4808 45.9053 22.179 45.9053 22.179C45.9053 22.179 45.3017 22.179 44.8489 21.8269Z" fill="black"></path>
    <path d="M31.72 36.6156L29.2049 31.5352L27.5449 40.6901L50.0801 44.6639L55.1606 39.3319L52.7964 33.9496L31.72 36.6156ZM51.388 39.5331C51.1745 39.5331 50.9698 39.4483 50.8189 39.2974C50.6679 39.1465 50.5831 38.9418 50.5831 38.7283C50.5831 38.5149 50.6679 38.3101 50.8189 38.1592C50.9698 38.0083 51.1745 37.9235 51.388 37.9235C51.494 37.9221 51.5993 37.942 51.6976 37.982C51.7958 38.022 51.8851 38.0812 51.9601 38.1562C52.0351 38.2312 52.0943 38.3205 52.1343 38.4187C52.1743 38.517 52.1942 38.6222 52.1928 38.7283C52.1928 39.181 51.7401 39.5331 51.388 39.5331Z" fill="#9E2A2B"></path>
    <path d="M38.159 28.0643C37.656 28.1649 37.3542 28.6176 37.5051 29.2213C37.6057 29.7746 38.0584 30.0764 38.5614 29.9758C39.0644 29.8752 39.3159 29.4225 39.2153 28.8692C39.1147 28.2152 38.662 27.9134 38.159 28.0643ZM44.1449 30.7806C43.6419 30.8812 43.3904 31.3339 43.491 31.9376C43.5916 32.5412 44.0443 32.7927 44.5473 32.6921C45.0503 32.5915 45.3522 32.1388 45.2012 31.5855C45.1006 30.9818 44.6479 30.68 44.1449 30.7806ZM50.4829 21.8269L43.1389 23.3863C40.6741 25.348 37.6057 26.505 34.2355 26.505H33.6821C33.5358 26.5037 33.3958 26.4449 33.2923 26.3415C33.1888 26.238 33.1301 26.098 33.1288 25.9517C33.1288 25.8007 33.1791 25.6498 33.2797 25.5492L33.33 25.4989L28.0986 26.6056L30.664 38.678L53.0483 33.8993L55.7646 27.008L50.4829 21.8269ZM36.5996 29.4225C36.3984 28.4164 36.9518 27.4607 38.0584 27.2092C39.165 26.9577 40.0705 27.6116 40.2717 28.6176C40.4729 29.6237 39.9196 30.5291 38.8129 30.7806C37.7063 31.0321 36.8008 30.4285 36.5996 29.4225ZM40.0705 34.503C39.8693 34.5533 39.668 34.4527 39.6177 34.2515V34.0502L42.485 26.4547C42.5353 26.3541 42.6359 26.2535 42.7365 26.2535C42.9377 26.2032 43.1389 26.3541 43.1892 26.505V26.7062L40.322 34.3018C40.2717 34.4024 40.1208 34.4527 40.0705 34.503ZM44.6982 33.5472C43.5916 33.7987 42.6862 33.1448 42.485 32.1388C42.2837 31.1327 42.8371 30.177 43.9437 29.9255C45.0503 29.674 45.9558 30.3279 46.157 31.3339C46.4085 32.34 45.8552 33.2957 44.6982 33.5472ZM51.6399 28.7686C51.5338 28.7699 51.4285 28.75 51.3303 28.71C51.232 28.6701 51.1428 28.6108 51.0678 28.5358C50.9928 28.4608 50.9335 28.3716 50.8936 28.2733C50.8536 28.1751 50.8337 28.0698 50.835 27.9637C50.835 27.7503 50.9198 27.5456 51.0708 27.3946C51.2217 27.2437 51.4264 27.1589 51.6399 27.1589C51.8533 27.1589 52.058 27.2437 52.209 27.3946C52.3599 27.5456 52.4447 27.7503 52.4447 27.9637C52.4461 28.0698 52.4262 28.1751 52.3862 28.2733C52.3462 28.3716 52.287 28.4608 52.212 28.5358C52.137 28.6108 52.0477 28.6701 51.9495 28.71C51.8512 28.75 51.7459 28.7699 51.6399 28.7686Z" fill="#E5161E"></path>
    <path d="M38.8124 30.7807C37.7058 31.0322 36.8003 30.3783 36.5991 29.3723C36.3979 28.3662 36.9512 27.4105 38.0579 27.159C39.1645 26.9075 40.0699 27.5614 40.2712 28.5675C40.4221 29.6238 39.8687 30.5292 38.8124 30.7807ZM38.6112 29.9256C39.1142 29.825 39.3657 29.3723 39.2651 28.819C39.1142 28.2153 38.7118 27.9135 38.2088 28.0141C37.7058 28.1147 37.404 28.5675 37.5549 29.1711C37.7058 29.7747 38.1082 30.0262 38.6112 29.9256ZM40.3215 34.2516C40.2712 34.3522 40.1706 34.4528 40.0699 34.4528C39.8687 34.5031 39.6675 34.4025 39.6172 34.2013V34L42.4844 26.4045C42.5347 26.3039 42.6353 26.2033 42.7359 26.2033C42.9372 26.153 43.1384 26.3039 43.1887 26.4548V26.656L40.3215 34.2516ZM44.6977 33.5473C43.5911 33.7988 42.6856 33.1449 42.4844 32.1389C42.2832 31.1328 42.8365 30.1771 43.9432 29.9256C45.0498 29.6741 45.9553 30.328 46.1565 31.3341C46.408 32.3401 45.8547 33.2958 44.6977 33.5473ZM44.5971 32.6922C45.1001 32.5916 45.4019 32.1389 45.251 31.5856C45.1001 30.9819 44.6977 30.6801 44.1947 30.7807C43.6917 30.8813 43.4402 31.3341 43.5408 31.9377C43.6414 32.491 44.0941 32.7928 44.5971 32.6922ZM32.8265 10.0061C32.8768 9.95579 32.9271 9.90548 32.9271 9.80488C32.9293 9.77128 32.9243 9.73759 32.9125 9.70606C32.9006 9.67454 32.8822 9.64592 32.8584 9.6221C32.8345 9.59829 32.8059 9.57984 32.7744 9.56798C32.7429 9.55613 32.7092 9.55115 32.6756 9.55337H32.6253C29.8587 10.0061 27.4945 11.0121 25.4824 12.823C25.8848 14.2817 26.9915 15.2878 28.4502 15.5896C29.5569 13.5272 31.0156 11.5151 32.8265 10.0061C32.8265 10.0564 32.8265 10.0564 32.8265 10.0061Z" fill="white"></path>
    <path d="M33.0789 9.05029C25.7852 10.2072 20.1514 16.5956 20.1514 24.2414C20.1514 30.0261 23.3707 35.1066 28.0991 37.7223L28.9039 33.2958C27.3445 30.6298 26.4391 27.5614 26.4391 24.2414C26.4391 18.4567 29.2057 13.3259 33.4813 10.1066C33.582 10.006 33.6826 9.80482 33.6826 9.65391C33.6826 9.3018 33.431 9.05029 33.0789 9.05029ZM32.8274 10.006C32.8274 10.0563 32.8274 10.0563 32.8274 10.006C30.9663 11.4648 29.5075 13.4769 28.3506 15.5895C26.8918 15.2877 25.7852 14.2817 25.3828 12.8229C27.3948 11.0121 29.759 10.006 32.5759 9.55331H32.6262C32.6598 9.55109 32.6935 9.55607 32.725 9.56792C32.7566 9.57978 32.7852 9.59823 32.809 9.62204C32.8328 9.64585 32.8513 9.67448 32.8631 9.706C32.875 9.73753 32.8799 9.77122 32.8777 9.80482C32.9783 9.90542 32.928 9.95573 32.8274 10.006Z" fill="#FF7F32"></path>
  </g>
  <defs>
    <clipPath id="clip0_6994_11390">
      <rect width="100" height="35.664" fill="white" transform="translate(20 9)"></rect>
    </clipPath>
  </defs>
</svg>
