<?xml version="1.0" encoding="UTF-8"?>
<svg xmlns="http://www.w3.org/2000/svg" width="200" height="80" viewBox="0 0 200 80" fill="none">
  <rect width="200" height="80" fill="white"></rect>
  <g clip-path="url(#clip0_7936_8950)">
    <path d="M61.6523 17.4315V31.7539L66.741 31.1761V17.4315H61.6523Z" fill="#00847F"></path>
    <path d="M61.6523 52.6125H66.741V38.8609L61.6523 38.2842V52.6125Z" fill="#00847F"></path>
    <path d="M81.086 28.4747C81.0313 27.8911 81.0064 27.3065 81.0113 26.7205C81.0096 26.1478 81.0595 25.5796 81.1608 25.0157C81.2473 24.5064 81.4222 24.0287 81.6854 23.5826C81.9473 23.1564 82.2963 22.8185 82.7327 22.5693C83.1822 22.3059 83.7566 22.1742 84.4551 22.1742C85.7517 22.1742 86.6748 22.5943 87.2242 23.4344C87.7732 24.2747 88.048 25.2713 88.048 26.4242V27.5601H93.1348V25.0908C93.1334 24.0869 92.9343 23.1232 92.5361 22.1999C92.1268 21.2428 91.5527 20.3945 90.8148 19.6557C90.0356 18.8745 89.1381 18.2651 88.1218 17.8274C87.0159 17.3513 85.8598 17.121 84.6537 17.1361C83.1908 17.1361 81.9103 17.3912 80.8118 17.9015C79.749 18.3822 78.8428 19.066 78.0928 19.953C77.3446 20.8658 76.804 21.8863 76.471 23.0148C76.0984 24.2387 75.9156 25.4897 75.9225 26.7679C75.9125 27.8894 76.0289 28.9979 76.2715 30.0935L81.3653 29.5157C81.2135 29.1834 81.1207 28.8358 81.087 28.4727" fill="#00847F"></path>
    <path d="M88.0464 42.631C88.0464 43.4212 88.0129 44.1455 87.9466 44.8039C87.9034 45.3881 87.7447 45.9399 87.4718 46.4595C87.2138 46.9172 86.8481 47.2631 86.3747 47.4974C85.8912 47.7451 85.2173 47.8683 84.3537 47.8679C83.0572 47.8679 82.1342 47.4974 81.5849 46.7567C81.3138 46.3964 81.1077 46.0027 80.9666 45.5754C80.8257 45.1484 80.7572 44.7101 80.7612 44.2608V42.6805H75.6744V44.5569C75.6697 44.9693 75.6962 45.3798 75.7541 45.7881C75.8121 46.1965 75.9006 46.5981 76.0201 46.9932C76.1393 47.3883 76.2881 47.7722 76.4659 48.1453C76.644 48.518 76.8493 48.8752 77.0819 49.2175C77.3146 49.5594 77.5718 49.8821 77.8537 50.1856C78.1357 50.4892 78.4391 50.7698 78.7638 51.0281C79.0888 51.2858 79.4314 51.5184 79.7917 51.725C80.1522 51.9317 80.5261 52.1104 80.9137 52.2609C82.0189 52.6994 83.1664 52.9138 84.3569 52.904C85.9858 52.904 87.3665 52.6406 88.4979 52.1138C89.588 51.6256 90.4944 50.9092 91.217 49.9647C91.8973 49.0639 92.3874 47.9781 92.6872 46.7072C92.9967 45.349 93.1466 43.9732 93.1359 42.5806C93.1359 42.3307 93.1359 42.0869 93.1262 41.8528L88.0153 41.273C88.0352 41.6779 88.0464 42.1274 88.0464 42.6301" fill="#00847F"></path>
    <path d="M102.067 52.6125H107.157V43.4441L102.067 42.8671V52.6125Z" fill="#00847F"></path>
    <path d="M102.067 17.4313V27.1699L107.157 26.594V17.4313H102.067Z" fill="#00847F"></path>
    <path d="M122.899 23.0395C123.068 22.9008 123.247 22.7777 123.438 22.6699C123.628 22.5621 123.827 22.4713 124.032 22.3975C124.239 22.3239 124.45 22.2684 124.666 22.2309C124.882 22.1935 125.1 22.1748 125.319 22.1748C125.538 22.1748 125.756 22.1935 125.972 22.2309C126.188 22.2684 126.399 22.3239 126.605 22.3975C126.812 22.4713 127.01 22.5621 127.201 22.6699C127.391 22.7777 127.571 22.9008 127.739 23.0395C128.098 23.3491 128.357 23.7263 128.514 24.1715L133.632 23.5916C133.455 22.7605 133.153 21.9767 132.726 21.24C132.299 20.5033 131.768 19.8499 131.132 19.2794C130.321 18.5716 129.405 18.0363 128.388 17.6735C127.897 17.4938 127.393 17.3582 126.878 17.2669C126.362 17.1756 125.843 17.13 125.319 17.13C124.796 17.13 124.276 17.1756 123.761 17.2669C123.245 17.3582 122.742 17.4938 122.251 17.6735C121.233 18.0361 120.318 18.5715 119.505 19.2794C118.651 20.0359 117.994 20.9336 117.534 21.9729C117.063 22.999 116.817 24.1755 116.792 25.4968L121.935 24.9132C122.059 24.1007 122.38 23.4751 122.899 23.0366" fill="#00847F"></path>
    <path d="M127.738 47.0035C127.569 47.1423 127.39 47.2655 127.2 47.3735C127.01 47.4813 126.811 47.5719 126.605 47.6456C126.399 47.7195 126.188 47.775 125.971 47.8124C125.755 47.8498 125.538 47.8684 125.318 47.8684C125.099 47.8684 124.881 47.8498 124.666 47.8124C124.449 47.775 124.238 47.7195 124.032 47.6456C123.825 47.5719 123.627 47.4813 123.437 47.3735C123.246 47.2655 123.067 47.1423 122.898 47.0035C122.378 46.5637 122.056 45.9356 121.934 45.1191L116.791 44.5364C116.815 45.8907 117.063 47.0759 117.534 48.0921C117.999 49.12 118.656 50.0091 119.505 50.7587C120.316 51.4683 121.231 52.0041 122.251 52.3668C122.742 52.5463 123.245 52.682 123.761 52.7733C124.276 52.8646 124.796 52.9102 125.319 52.9102C125.843 52.9102 126.363 52.8646 126.878 52.7733C127.393 52.682 127.897 52.5463 128.388 52.3668C129.406 52.0044 130.321 51.469 131.133 50.7608C131.981 50.011 132.638 49.1221 133.103 48.094C133.346 47.5661 133.525 47.0181 133.641 46.4494L128.516 45.8679C128.359 46.3154 128.101 46.6946 127.74 47.0054" fill="#00847F"></path>
    <path d="M156.105 52.6125H160.896V49.5379L154.716 48.8367L156.105 52.6125Z" fill="#00847F"></path>
    <path d="M143.132 52.6125H148.222V48.1009L143.132 47.523V52.6125Z" fill="#00847F"></path>
    <path d="M155.805 17.4314V21.0769L160.896 20.5002V17.4314H155.805Z" fill="#00847F"></path>
    <path d="M143.132 17.4313V22.5149L149.599 21.781L148.022 17.4313H143.132Z" fill="#00847F"></path>
    <path d="M61.6514 31.7537V38.2842L66.7411 38.8621V31.176L61.6514 31.7537Z" fill="#F36C3E"></path>
    <path d="M92.1629 36.4798C91.7699 35.6889 91.2292 35.0138 90.5414 34.4541C89.8444 33.8779 88.9311 33.3755 87.8006 32.9468L83.9106 31.414C83.3569 31.2086 82.8329 30.9453 82.3387 30.6238C81.9773 30.3846 81.686 30.0798 81.465 29.7092C81.4301 29.648 81.4001 29.5828 81.3653 29.5177L76.2715 30.0954C76.4393 30.8544 76.6971 31.5824 77.0446 32.2791C77.7932 33.7455 79.265 34.9233 81.46 35.8121L85.1024 37.2937C85.6273 37.5052 86.1345 37.7523 86.6246 38.0344C86.9991 38.256 87.2984 38.5523 87.5221 38.9234C87.7375 39.2861 87.879 39.7639 87.9463 40.3565C87.976 40.6262 87.9978 40.9342 88.015 41.272L93.1245 41.8518C93.1106 40.9466 93.0475 40.0448 92.9352 39.1465C92.8238 38.216 92.5662 37.3271 92.162 36.4798" fill="#F36C3E"></path>
    <path d="M102.067 27.1709V42.8671L107.157 43.4441V26.5931L102.067 27.1709Z" fill="#F36C3E"></path>
    <path d="M133.852 25.7327C133.855 25.0113 133.782 24.2975 133.632 23.5914L128.515 24.1722C128.69 24.6778 128.773 25.1981 128.762 25.7327V44.3112C128.772 44.8436 128.691 45.3617 128.516 45.8659L133.641 46.4475C133.785 45.7428 133.855 45.0309 133.852 44.3122V25.7327Z" fill="#F36C3E"></path>
    <path d="M121.876 44.3112V25.7318C121.875 25.4586 121.895 25.187 121.936 24.9168L116.792 25.5016V44.5363L121.936 45.1191C121.896 44.8512 121.876 44.5818 121.877 44.3112" fill="#F36C3E"></path>
    <path d="M155.805 21.0778V38.6287H155.705L149.598 21.781L143.132 22.5139V47.5229L148.221 48.1009V31.4642H148.321L154.715 48.8376L160.896 49.5378V20.5L155.805 21.0778Z" fill="#F36C3E"></path>
    <path d="M51.0957 19.5753C50.3509 18.824 49.4942 18.2314 48.5254 17.7976C47.5189 17.3448 46.463 17.1226 45.3576 17.1308C44.3592 17.1349 43.378 17.2666 42.4143 17.5259C41.4195 17.7873 40.5231 18.2399 39.7253 18.8841C38.9275 19.5266 38.2704 20.3751 37.7545 21.4292C37.2385 22.4834 36.9809 23.8174 36.9814 25.4313V44.6071C36.9814 46.2218 37.2392 47.5557 37.7545 48.6093C38.2699 49.6628 38.9268 50.5109 39.7253 51.1534C40.5238 51.7993 41.4215 52.2523 42.4183 52.5126C43.382 52.7719 44.363 52.9036 45.3616 52.9077C46.4671 52.9159 47.5231 52.6934 48.5294 52.2402C49.4983 51.8063 50.3552 51.2137 51.0997 50.4623C51.8423 49.7075 52.4161 48.8428 52.8212 47.8686C53.2407 46.872 53.4485 45.8339 53.4446 44.7542V41.5791L48.3029 40.7119V42.2525C48.3029 43.2867 48.319 45.6433 47.7235 46.5727C47.5807 46.7989 47.4101 47.0023 47.2118 47.1831C46.9201 47.4156 46.5953 47.5865 46.2374 47.6958C45.9751 47.7771 45.7071 47.8308 45.4334 47.8567C45.3576 47.8567 45.2808 47.8665 45.199 47.8665H45.1641C43.9992 47.8665 43.1927 47.5207 42.7445 46.8286C42.2963 46.1365 42.0716 45.2805 42.0703 44.2605V25.775C42.0703 24.7537 42.295 23.8978 42.7445 23.207C43.194 22.5163 44.0005 22.1703 45.1641 22.1689H45.199C45.2799 22.1689 45.3567 22.1749 45.4334 22.1799C45.7053 22.2065 45.9716 22.2602 46.2324 22.3408C46.59 22.4506 46.9145 22.6218 47.2059 22.8544C47.404 23.0349 47.5744 23.2381 47.7176 23.4638C48.3159 24.3942 48.2971 26.7508 48.2971 27.785V29.3277L53.4416 28.4586V25.2812C53.4454 24.202 53.2377 23.1642 52.8182 22.1681C52.4129 21.1938 51.8387 20.3297 51.0957 19.5753Z" fill="#00847F"></path>
    <path d="M163.44 19.1944C163.437 18.9541 163.484 18.7236 163.581 18.503C163.67 18.2918 163.798 18.1054 163.961 17.9431C164.126 17.7809 164.314 17.6551 164.527 17.5657C164.748 17.473 164.98 17.4266 165.22 17.4266C165.46 17.4266 165.691 17.473 165.913 17.5657C166.126 17.655 166.315 17.7808 166.479 17.9429C166.643 18.105 166.77 18.2918 166.861 18.503C166.953 18.7226 166.999 18.9514 166.999 19.1894C166.999 19.4274 166.953 19.6562 166.861 19.8758C166.77 20.087 166.643 20.2738 166.479 20.4358C166.315 20.598 166.126 20.7238 165.913 20.8131C165.691 20.9058 165.46 20.9521 165.22 20.9521C164.98 20.9521 164.748 20.9058 164.527 20.8131C164.314 20.7239 164.126 20.5981 163.962 20.4358C163.798 20.2736 163.671 20.0869 163.581 19.8758C163.484 19.6552 163.437 19.4247 163.44 19.1844M166.646 19.1844C166.647 18.9904 166.609 18.804 166.532 18.6254C166.46 18.4536 166.359 18.3008 166.228 18.1672C166.098 18.0351 165.947 17.9321 165.777 17.858C165.599 17.7816 165.414 17.7434 165.221 17.7434C165.028 17.7434 164.842 17.7816 164.666 17.858C164.494 17.9321 164.344 18.0351 164.213 18.1672C164.082 18.3008 163.981 18.4536 163.908 18.6254C163.833 18.8044 163.794 18.991 163.794 19.185C163.794 19.3789 163.833 19.5654 163.908 19.7445C163.981 19.9162 164.082 20.0691 164.213 20.2028C164.344 20.3348 164.494 20.4379 164.666 20.5119C164.842 20.5883 165.028 20.6266 165.221 20.6266C165.414 20.6266 165.599 20.5883 165.777 20.5119C165.947 20.4379 166.098 20.3348 166.228 20.2028C166.359 20.0689 166.46 19.9161 166.532 19.7445C166.609 19.5654 166.647 19.3788 166.646 19.1844ZM164.547 18.1584H165.334C165.809 18.1584 166.046 18.3512 166.045 18.7371C166.049 18.8222 166.034 18.9049 166.005 18.9849C165.979 19.0503 165.941 19.1072 165.89 19.1558C165.84 19.2017 165.783 19.2366 165.72 19.2605C165.655 19.2854 165.589 19.3025 165.521 19.312L166.118 20.2127H165.726L165.127 19.3237H164.877V20.2127H164.552L164.547 18.1584ZM164.871 19.0294H165.24C165.367 19.0369 165.487 19.0132 165.602 18.9583C165.691 18.9041 165.731 18.8254 165.722 18.7222C165.729 18.6324 165.693 18.5636 165.616 18.5158C165.531 18.4675 165.44 18.4454 165.343 18.4497H164.871V19.0294Z" fill="#00847F"></path>
  </g>
  <path d="M61.2276 63.2048C61.3022 62.9622 61.2607 62.7344 61.2626 62.5128C61.271 61.4247 61.2657 60.3366 61.2638 59.2486C61.2634 59.0151 61.2958 58.974 61.5357 58.9717C61.9478 58.9679 62.3602 58.977 62.7723 58.9698C62.957 58.9664 63.0164 59.0456 63.0157 59.22C63.008 61.1181 63.0039 63.0159 63 64.914C62.9993 65.2811 63.0096 65.6479 63.005 66.015C63.0016 66.2755 62.9772 66.2923 62.7167 66.2953C62.4059 66.2987 62.0952 66.2983 61.7844 66.3063C61.6408 66.3102 61.5327 66.2675 61.4386 66.1525C60.9119 65.5077 60.3783 64.8679 59.8493 64.225C59.2845 63.5384 58.7213 62.8502 58.1584 62.162C58.1344 62.1327 58.1169 62.0893 58.0735 62.0992C58.0156 62.1125 58.0285 62.17 58.0266 62.21C58.0186 62.4183 58.0099 62.627 58.0102 62.8357C58.0118 63.8987 58.0156 64.9612 58.019 66.0241C58.0198 66.2473 57.9802 66.2942 57.757 66.2957C57.3575 66.2983 56.958 66.2983 56.5589 66.2953C56.3201 66.2934 56.2885 66.2576 56.2892 66.0146C56.2919 64.604 56.2968 63.193 56.2972 61.7823C56.2972 60.9723 56.2877 60.1626 56.2862 59.3525C56.2854 58.9732 56.2907 58.9709 56.6628 58.9698C56.9671 58.9687 57.2714 58.9728 57.5757 58.969C57.6926 58.9675 57.7707 59.0079 57.8472 59.1031C58.3698 59.7513 58.9026 60.3915 59.4281 61.0374C59.9461 61.6738 60.4591 62.3147 60.9766 62.9511C61.0471 63.0376 61.1335 63.1111 61.2272 63.2051L61.2276 63.2048Z" fill="#00847F"></path>
  <path d="M45.5978 62.6023C45.5978 61.4891 45.5978 60.3763 45.5978 59.2631C45.5978 58.982 45.6085 58.9717 45.8975 58.9713C46.9631 58.9706 48.0287 58.9569 49.0939 58.9736C49.8213 58.985 50.4928 59.2094 51.064 59.6664C51.5572 60.0617 51.8436 60.5918 51.911 61.2194C51.9503 61.5824 51.9617 61.9518 51.8661 62.3136C51.697 62.9549 51.3539 63.4679 50.77 63.805C50.4909 63.9661 50.4878 63.9657 50.6706 64.2315C51.0953 64.8496 51.5214 65.4666 51.9491 66.0828C51.9819 66.13 52.0329 66.1754 52.0074 66.2329C51.9777 66.2991 51.9011 66.2949 51.8402 66.2949C51.3394 66.2972 50.8382 66.293 50.3374 66.2991C50.1953 66.3006 50.1352 66.202 50.0727 66.1129C49.6789 65.5511 49.2882 64.9875 48.9035 64.4197C48.843 64.3305 48.7786 64.2837 48.6739 64.2845C48.2808 64.2875 47.8874 64.2932 47.4944 64.2894C47.3638 64.2883 47.3375 64.345 47.3383 64.4612C47.3413 64.9864 47.3318 65.5112 47.3386 66.0363C47.3409 66.218 47.291 66.3022 47.0926 66.2968C46.6554 66.2858 46.2182 66.2892 45.781 66.2946C45.6447 66.2965 45.5974 66.2313 45.597 66.1121C45.5959 65.8151 45.5978 65.518 45.5978 65.221C45.5978 64.3481 45.5978 63.4748 45.5978 62.6019C45.5978 62.6019 45.5986 62.6019 45.5989 62.6019L45.5978 62.6023ZM48.2393 60.3698C47.9735 60.3698 47.7625 60.3881 47.5561 60.3645C47.3691 60.3427 47.3344 60.4334 47.3344 60.5785C47.3341 61.28 47.3379 61.9811 47.3329 62.6826C47.3318 62.8559 47.4182 62.8997 47.5675 62.8978C47.8459 62.894 48.1247 62.894 48.4031 62.894C48.6438 62.894 48.8852 62.8959 49.1217 62.8464C49.4481 62.7779 49.7456 62.6659 49.947 62.3688C50.1908 62.0097 50.201 61.6129 50.1112 61.224C50.0289 60.8679 49.7821 60.6067 49.4218 60.4875C49.0193 60.3542 48.6011 60.3496 48.2393 60.3702V60.3698Z" fill="#00847F"></path>
  <path d="M88.4761 64.2337C88.7137 63.7458 88.8569 63.2702 89.0295 62.8063C89.2203 62.2929 89.3916 61.7723 89.5996 61.265C89.659 61.1199 89.6898 60.9634 89.7394 60.8137C89.7752 60.7052 89.8498 60.661 89.9709 60.6633C90.3316 60.6709 90.6926 60.6709 91.0533 60.6656C91.1987 60.6637 91.2715 60.7341 91.3157 60.8613C91.5796 61.6219 91.8466 62.3817 92.1097 63.1426C92.2362 63.5082 92.3523 63.8772 92.5317 64.2695C92.6745 63.8947 92.8078 63.5566 92.932 63.2153C93.2214 62.4201 93.5055 61.623 93.7934 60.8274C93.8342 60.7147 93.9157 60.658 94.0414 60.6622C94.4081 60.6743 94.7749 60.6424 95.142 60.6785C95.2879 60.693 95.3134 60.7467 95.2799 60.8712C95.1976 61.1763 95.0803 61.4688 94.9721 61.7651C94.7604 62.3447 94.554 62.9263 94.3415 63.5055C94.1221 64.1031 93.8902 64.6964 93.6807 65.2974C93.5893 65.5594 93.4834 65.8153 93.3958 66.0777C93.3391 66.2487 93.2458 66.3093 93.0664 66.3036C92.6928 66.291 92.3177 66.2864 91.9441 66.3043C91.7506 66.3135 91.6702 66.2206 91.6158 66.0671C91.3378 65.2841 91.0658 64.4991 90.7794 63.7192C90.6991 63.5002 90.6271 63.2728 90.479 63.0687C90.3674 63.2081 90.3335 63.3692 90.2767 63.52C89.9576 64.3693 89.6362 65.2174 89.3197 66.0675C89.2633 66.219 89.1829 66.3062 89.004 66.3021C88.6048 66.2922 88.2049 66.2918 87.8054 66.3005C87.6664 66.3036 87.5983 66.2522 87.5541 66.1276C87.3606 65.5834 87.163 65.0407 86.9657 64.4976C86.76 63.9321 86.5513 63.368 86.348 62.8017C86.1587 62.2746 85.9751 61.7453 85.7889 61.217C85.7432 61.0872 85.6982 60.9569 85.6502 60.8278C85.6179 60.7406 85.6423 60.698 85.7378 60.6881C86.1872 60.6424 86.637 60.6862 87.0864 60.674C87.1809 60.6713 87.2189 60.7391 87.2452 60.8126C87.3808 61.1919 87.5175 61.5708 87.6482 61.9521C87.8294 62.4807 88.0035 63.0116 88.203 63.5337C88.2876 63.7546 88.3519 63.9835 88.4753 64.2341L88.4761 64.2337Z" fill="#00847F"></path>
  <path d="M73.2841 64.2674C73.4391 63.8515 73.582 63.4683 73.7248 63.0852C73.9617 62.4496 74.1985 61.814 74.4358 61.1783C74.4381 61.1726 74.4438 61.1673 74.4438 61.1616C74.4689 60.7008 74.7675 60.6273 75.1495 60.6547C75.4016 60.6726 75.6556 60.6695 75.9085 60.6783C76.0022 60.6817 76.0548 60.7373 76.0845 60.8242C76.324 61.5245 76.5975 62.2127 76.8256 62.9173C76.9665 63.3522 77.1402 63.7764 77.3119 64.2392C77.4902 63.9981 77.5416 63.746 77.6276 63.5133C77.8908 62.8049 78.1357 62.0897 78.3901 61.3779C78.4598 61.1833 78.5428 60.9932 78.6121 60.7986C78.6418 60.7156 78.6864 60.6832 78.7759 60.6745C79.1685 60.6364 79.56 60.6752 79.9519 60.6844C80.0547 60.6867 80.1241 60.708 80.0829 60.8584C79.9835 61.2218 79.8293 61.5638 79.7044 61.9168C79.3967 62.7893 79.0855 63.6607 78.7534 64.5248C78.5641 65.0168 78.4053 65.5207 78.2366 66.0207C78.1738 66.2074 78.0732 66.3125 77.8542 66.303C77.4997 66.2877 77.1428 66.2793 76.7894 66.3041C76.5537 66.3205 76.4482 66.2032 76.3899 66.0196C76.1119 65.1433 75.76 64.2932 75.4686 63.4219C75.4271 63.2981 75.3822 63.1747 75.2984 63.0536C75.135 63.2356 75.0836 63.4611 75.0093 63.6649C74.8045 64.227 74.5984 64.7883 74.3798 65.3448C74.2766 65.6079 74.1723 65.8703 74.0748 66.1358C74.0348 66.2447 73.975 66.298 73.8523 66.2969C73.4212 66.2927 72.9901 66.2927 72.559 66.2984C72.4063 66.3003 72.3716 66.1975 72.3328 66.0878C72.1869 65.678 72.0418 65.2682 71.8944 64.8588C71.4892 63.733 71.0825 62.608 70.6784 61.4819C70.6026 61.2705 70.5383 61.0549 70.4678 60.8421C70.4331 60.7377 70.4689 60.6844 70.5794 60.6817C71.0208 60.6699 71.4626 60.6402 71.9036 60.6859C72.022 60.6981 72.046 60.812 72.075 60.8927C72.2974 61.5154 72.5004 62.1449 72.7289 62.7657C72.9086 63.2539 73.0255 63.765 73.2834 64.2674H73.2841Z" fill="#00847F"></path>
  <path d="M37.9893 62.619C37.9893 61.5187 37.9893 60.4188 37.9893 59.3186C37.9893 59.2554 37.9942 59.1921 37.995 59.1289C37.9969 59.0177 38.0559 58.9709 38.1641 58.972C38.2593 58.9732 38.3541 58.969 38.4493 58.969C39.3687 58.969 40.288 58.9804 41.207 58.9671C41.9211 58.9568 42.5925 59.1 43.2038 59.4683C43.6642 59.7459 43.9849 60.1507 44.1722 60.6569C44.4072 61.2913 44.3893 61.9235 44.1776 62.5622C43.9616 63.2138 43.5168 63.6526 42.9174 63.9473C42.337 64.2326 41.7135 64.308 41.0722 64.2871C40.7111 64.2752 40.3497 64.289 39.9883 64.2874C39.8421 64.2867 39.7655 64.3263 39.7503 64.4973C39.7072 64.9775 39.772 65.457 39.7366 65.9365C39.732 65.9993 39.7347 66.0625 39.7305 66.1254C39.7221 66.2469 39.6642 66.2994 39.5336 66.2975C39.1093 66.2914 38.6847 66.2971 38.26 66.2968C37.9954 66.2968 37.9908 66.291 37.9912 66.0149C37.9923 65.0472 37.9934 64.0799 37.9946 63.1122C37.9946 62.9476 37.9946 62.7835 37.9946 62.619H37.9893ZM39.7541 61.711C39.7541 62.0458 39.7579 62.3806 39.7522 62.7153C39.7499 62.8437 39.7948 62.8913 39.9266 62.8894C40.357 62.8833 40.7884 62.9016 41.218 62.884C41.9333 62.8547 42.3579 62.5782 42.5175 61.9967C42.7094 61.2982 42.4181 60.6005 41.6301 60.4253C41.063 60.2989 40.4712 60.3419 39.8889 60.3731C39.7746 60.3792 39.7666 60.4497 39.7541 60.538C39.6985 60.9292 39.7739 61.3207 39.7541 61.7114V61.711Z" fill="#00847F"></path>
  <path d="M106.608 60.595C107.016 60.5683 107.519 60.7111 108.001 60.9613C108.318 61.1262 108.571 61.3677 108.787 61.637C109.267 62.2345 109.44 62.9307 109.366 63.6897C109.339 63.9711 109.325 63.9852 109.047 63.9845C108.463 63.9833 107.881 63.9788 107.298 63.9776C106.67 63.9765 106.042 63.9749 105.415 63.9791C105.178 63.981 105.139 64.0317 105.257 64.2313C105.426 64.5161 105.651 64.7522 105.981 64.8627C106.533 65.0474 107.072 65.0246 107.605 64.7888C107.725 64.7359 107.816 64.6521 107.915 64.5763C108.024 64.4937 108.124 64.4906 108.218 64.5923C108.446 64.8379 108.671 65.0859 108.898 65.3315C108.976 65.4145 108.962 65.4858 108.886 65.5612C108.493 65.9561 108.022 66.1918 107.474 66.308C107.089 66.3899 106.704 66.4013 106.321 66.3765C105.107 66.2977 103.912 65.6141 103.563 64.3455C103.296 63.3793 103.41 62.4501 104.06 61.6583C104.673 60.9107 105.497 60.5698 106.607 60.5954L106.608 60.595ZM106.486 62.976C106.806 62.9985 107.147 62.9794 107.489 62.9745C107.785 62.9699 107.817 62.917 107.691 62.6466C107.683 62.6294 107.669 62.6153 107.66 62.5986C107.287 61.9294 106.505 61.7554 105.889 62.0094C105.549 62.1492 105.316 62.3994 105.188 62.7399C105.121 62.9181 105.157 62.9562 105.345 62.9699C105.718 62.9969 106.091 62.9905 106.486 62.976Z" fill="#00847F"></path>
  <path d="M68.9616 63.9794C68.1572 63.9794 67.3529 63.9798 66.5485 63.979C66.4156 63.979 66.2831 63.9744 66.1502 63.9695C65.9887 63.9634 65.9483 64.0327 66.0066 64.1793C66.1148 64.4501 66.3155 64.6337 66.5623 64.7723C67.0116 65.0244 67.5003 65.0176 67.9828 64.9334C68.246 64.8877 68.5042 64.7719 68.7056 64.5823C68.813 64.4813 68.8995 64.4966 68.9825 64.5853C69.2194 64.8389 69.4498 65.0991 69.6825 65.3565C69.7442 65.4243 69.7168 65.4791 69.6635 65.5378C69.3812 65.8489 69.0343 66.0622 68.6409 66.2005C67.9596 66.4396 67.255 66.4636 66.563 66.3056C64.8938 65.9236 63.9402 64.6078 64.2654 62.8925C64.5023 61.6433 65.3203 60.9029 66.5287 60.6508C67.394 60.4699 68.2669 60.5731 69.0115 61.1238C69.6794 61.6178 70.0591 62.2911 70.1281 63.1259C70.1464 63.346 70.1532 63.5673 70.1353 63.7893C70.125 63.9154 70.0751 63.9748 69.9498 63.9748C69.6204 63.9741 69.291 63.9748 68.9616 63.9748C68.9616 63.9767 68.9616 63.9786 68.9616 63.9809V63.9794ZM67.268 62.9812C67.5848 62.9812 67.9017 62.9827 68.2185 62.9808C68.5773 62.9789 68.6001 62.9469 68.4303 62.619C68.1222 62.0245 67.4538 61.7911 66.8528 61.943C66.4198 62.0523 66.1216 62.3056 65.9731 62.7215C65.8988 62.929 65.9289 62.9721 66.1479 62.9785C66.5211 62.9896 66.8947 62.9816 67.2683 62.9812H67.268Z" fill="#00847F"></path>
  <path d="M83.0575 60.6078C83.7468 60.5732 84.3413 60.6783 84.9167 60.8973C84.964 60.9152 85.0131 60.93 85.0573 60.9536C85.2785 61.0724 85.2736 61.1174 85.1978 61.3543C85.1201 61.5972 84.964 61.7987 84.8882 62.0421C84.8124 62.2862 84.713 62.3018 84.4498 62.1864C83.837 61.9175 83.2037 61.8181 82.5422 61.9735C82.271 62.0371 82.1389 62.2001 82.1602 62.4488C82.172 62.5871 82.383 62.7287 82.6401 62.7759C83.0944 62.8594 83.5503 62.9374 84.0023 63.0323C84.3359 63.1023 84.6456 63.2173 84.9415 63.4112C85.4206 63.7254 85.5489 64.4962 85.4495 64.9144C85.2732 65.657 84.7267 65.9884 84.0766 66.2127C83.401 66.4454 82.7082 66.4183 82.0117 66.3178C81.5714 66.2542 81.1475 66.1396 80.7385 65.9674C80.7039 65.9529 80.6681 65.9392 80.6353 65.9209C80.3596 65.7678 80.3466 65.7271 80.4837 65.4483C80.6083 65.1954 80.7183 64.9361 80.8589 64.6904C80.9183 64.5861 80.9735 64.5579 81.0801 64.6139C81.4111 64.7883 81.7599 64.9151 82.129 64.9814C82.605 65.0671 83.0822 65.1235 83.5552 64.9658C83.7746 64.8927 83.8401 64.7891 83.8283 64.5712C83.8184 64.3842 83.7011 64.3218 83.5366 64.2807C83.0083 64.1489 82.4664 64.0914 81.9344 63.979C81.4446 63.8754 81.0192 63.669 80.7305 63.2604C80.5309 62.9774 80.459 62.6396 80.5005 62.2854C80.5687 61.6985 80.8665 61.2632 81.373 60.9708C81.7504 60.7529 82.1667 60.6489 82.5978 60.6101C82.7737 60.5941 82.9527 60.6074 83.0575 60.6074V60.6078Z" fill="#00847F"></path>
  <path d="M101.044 61.2157C101.367 60.8916 101.768 60.7495 102.188 60.6421C102.362 60.5976 102.539 60.5976 102.715 60.5964C102.819 60.5957 102.884 60.6486 102.885 60.7583C102.888 61.1498 102.893 61.5417 102.891 61.9332C102.89 62.0695 102.818 62.132 102.672 62.1267C102.425 62.1179 102.184 62.1438 101.943 62.2192C101.418 62.3834 101.173 62.7596 101.087 63.2688C101.038 63.5571 101.06 63.85 101.061 64.1402C101.064 64.7655 101.037 65.3909 101.067 66.0162C101.078 66.2489 101.026 66.2954 100.798 66.2958C100.411 66.2958 100.025 66.2965 99.6382 66.2958C99.4063 66.2958 99.377 66.2691 99.3705 66.0349C99.364 65.801 99.3625 65.5668 99.3625 65.333C99.3613 63.9102 99.361 62.4873 99.3617 61.0645C99.3617 60.6806 99.3876 60.6543 99.7704 60.6555C100.075 60.6562 100.379 60.6585 100.682 60.6719C100.97 60.6844 101 60.7252 101.006 61.0173C101.007 61.0725 100.991 61.1304 101.044 61.2149L101.044 61.2157Z" fill="#00847F"></path>
  <path d="M97.8744 63.4948C97.8744 64.3102 97.8744 65.1256 97.874 65.941C97.874 66.0103 97.8671 66.0796 97.8637 66.1493C97.8587 66.2468 97.8138 66.2997 97.7094 66.2993C97.2661 66.2967 96.8225 66.294 96.3792 66.2963C96.1827 66.297 96.1975 66.1554 96.1956 66.0331C96.1895 65.6671 96.1895 65.3008 96.1895 64.9348C96.1887 63.8223 96.1903 62.7099 96.1884 61.5974C96.1884 61.3766 96.1769 61.1557 96.1739 60.9348C96.1716 60.7642 96.2303 60.6735 96.4306 60.6781C96.8038 60.6869 97.1774 60.6655 97.551 60.6606C97.8328 60.6571 97.8721 60.7021 97.8713 60.974C97.869 61.8145 97.8705 62.655 97.8705 63.4956C97.8721 63.4956 97.8732 63.4956 97.8747 63.4956L97.8744 63.4948Z" fill="#00847F"></path>
  <path d="M97.1387 58.1218C97.3688 58.0928 97.6018 58.2208 97.8334 58.4169C98.1175 58.6576 98.1525 59.3107 97.8692 59.6116C97.4335 60.074 96.7137 60.0747 96.2716 59.6904C95.7883 59.2708 95.9364 58.4645 96.5256 58.2143C96.7012 58.1397 96.8782 58.1214 97.1391 58.1218H97.1387Z" fill="#00847F"></path>
  <defs>
    <clipPath id="clip0_7936_8950">
      <rect width="130.019" height="35.7805" fill="white" transform="translate(36.9814 17.1296)"></rect>
    </clipPath>
  </defs>
</svg>
