<?xml version="1.0" encoding="UTF-8"?>
<svg xmlns="http://www.w3.org/2000/svg" width="140" height="54" viewBox="0 0 140 54" fill="none">
  <path fill-rule="evenodd" clip-rule="evenodd" d="M75.3199 26.4789C75.3199 26.4789 74.2497 25.8172 73.588 25.5611C73.588 25.5611 71.5395 24.6117 71.1331 24.16C71.1331 24.16 70.3348 23.4076 70.8023 22.5338C70.8023 22.5338 70.9979 21.9619 71.8416 21.9619C71.8416 21.9619 72.9399 22.0223 72.9399 22.925V24.1985H76.8762L76.8693 22.323C76.8693 22.323 77.172 19.2517 72.2329 19.1165C72.2329 19.1165 68.3481 18.8611 67.234 20.9535C67.234 20.9535 66.7967 21.4203 66.7967 23.0459V24.2204C66.7967 24.2204 66.7521 25.5755 67.444 26.4487C67.444 26.4487 67.8353 27.0212 68.7991 27.6528C68.7991 27.6528 70.7563 28.7065 71.9308 29.3099C71.9308 29.3099 73.1164 29.9868 72.9605 31.0639C72.9605 31.0639 72.8637 32.1698 71.7187 32.1245C71.7187 32.1245 70.6718 32.0778 70.6718 30.9932V29.7204H66.4775V31.5691C66.4775 31.5691 66.3601 35.1045 71.7496 35.1045C71.7496 35.1045 76.8995 35.2088 77.1398 31.4764V29.971C77.1391 29.971 77.3217 27.6837 75.3199 26.4789ZM55.1678 19.5565L53.8498 27.8162H53.5416L52.2826 19.6307H45.7075L45.378 34.5882H49.271L49.3177 23.3184H49.6239L51.6874 34.5862H55.7829L57.821 23.3225H58.0922L58.1862 34.5882H62.0998L61.6783 19.5565H55.1678ZM31.9939 19.619L29.4038 34.5711H33.5947L35.129 22.9779H35.4736L37.0072 34.5711H41.1974L38.608 19.619H31.9939ZM119.932 26.273V28.4786H121.007V30.8463C121.007 32.0037 120.018 32.0249 120.018 32.0249C118.816 32.0249 118.861 30.9252 118.861 30.9252V22.7356C118.861 21.8919 119.928 21.8466 119.928 21.8466C120.953 21.8466 120.959 22.853 120.959 22.853V24.0982H124.905C125.034 21.6674 124.55 21.0791 124.55 21.0791C123.571 18.881 119.868 19.0012 119.868 19.0012C114.178 19.0012 114.809 23.3671 114.809 23.3671V31.2856C114.931 35.3804 120.539 34.9644 120.633 34.961C123.127 34.685 123.88 33.8921 123.88 33.8921C124.574 33.3773 124.752 32.664 124.752 32.664C124.951 32.2487 125 30.9252 125 30.9252V26.273H119.932ZM106.853 28.7065H106.681L102.677 19.5606H97.8864V34.5896H101.786L101.552 25.4451H101.727L105.875 34.5896H110.52V19.5593H106.572L106.853 28.7065ZM88.3684 30.8449C88.3684 30.8449 88.4247 32.0785 87.281 32.0785C87.281 32.0785 86.0783 32.143 86.0783 30.8758L86.066 19.5696H81.7893V30.7859C81.7893 30.7859 81.3506 35.031 87.3415 35.031C87.3415 35.031 92.5477 35.0928 92.5477 30.9808V19.5702H88.3684V30.8449ZM23.8406 26.4789C23.8406 26.4789 22.7718 25.8172 22.1093 25.5618C22.1093 25.5618 20.0623 24.6131 19.6559 24.1607C19.6559 24.1607 18.8575 23.4069 19.3257 22.5351C19.3257 22.5351 19.5206 21.9633 20.3636 21.9633C20.3636 21.9633 21.4627 22.023 21.4627 22.9257V24.1991H25.4003L25.3927 22.323C25.3927 22.323 25.6934 19.2517 20.7563 19.1172C20.7563 19.1172 20.3842 19.0932 19.8385 19.1206C19.8385 19.1206 16.8475 19.2812 15.778 20.9219C15.7718 20.9343 15.7629 20.9432 15.7567 20.9542C15.7567 20.9542 15.3201 21.4203 15.3201 23.0466V24.2211C15.3201 24.2211 15.2748 25.5762 15.9674 26.4494C15.9674 26.4494 16.3587 27.0219 17.3225 27.6535C17.3225 27.6535 19.279 28.7072 20.4535 29.3106C20.4535 29.3106 21.6405 29.9861 21.4833 31.0646C21.4833 31.0646 21.3865 32.1705 20.2421 32.1252C20.2421 32.1252 19.1952 32.0785 19.1952 30.9939V29.7204H15.0002V31.5705C15.0002 31.5705 14.8828 35.1058 20.2723 35.1058C20.2723 35.1058 25.4209 35.2102 25.6632 31.4778V29.9738C25.6632 29.9724 25.8431 27.6837 23.8406 26.4789Z" fill="black"></path>
</svg>
