<?xml version="1.0" encoding="UTF-8"?>
<svg xmlns="http://www.w3.org/2000/svg" width="140" height="54" viewBox="0 0 140 54" fill="none">
  <g clip-path="url(#clip0_6990_11054)">
    <mask id="mask0_6990_11054" style="mask-type:luminance" maskUnits="userSpaceOnUse" x="104" y="16" width="16" height="22">
      <path d="M104.294 16H120V37.259H104.294V16Z" fill="white"></path>
    </mask>
    <g mask="url(#mask0_6990_11054)">
      <path d="M104.429 15.9995C104.484 16.0546 104.54 16.1103 104.595 16.1653C108.294 19.5886 111.994 23.0124 115.695 26.4363C115.695 23.1777 115.695 19.8646 115.695 16.6072C117.13 16.6072 118.565 16.6072 120.001 16.6072C120.001 23.5093 120.001 30.3564 120.001 37.2591C116.246 33.7802 112.492 30.2456 108.681 26.7673C108.681 30.0259 108.681 33.2833 108.681 36.5413C107.245 36.5413 105.864 36.5413 104.429 36.5413C104.429 29.7487 104.429 22.8466 104.429 15.9995Z" fill="black"></path>
    </g>
    <mask id="mask1_6990_11054" style="mask-type:luminance" maskUnits="userSpaceOnUse" x="20" y="16" width="17" height="22">
      <path d="M20 16.1533H36.0924V37.2591H20V16.1533Z" fill="white"></path>
    </mask>
    <g mask="url(#mask1_6990_11054)">
      <path d="M21.4907 19.2025C22.6503 17.4902 24.6936 16.5521 26.6812 16.3312C29.7183 16.0546 33.0314 16.5521 35.4058 18.6499C34.412 19.5886 33.3631 20.4723 32.3687 21.411C31.2647 20.4172 29.774 19.9203 28.2827 19.9203C27.1781 19.8646 26.0185 20.2513 25.4114 21.1901C24.9696 21.8528 25.1355 22.8466 25.7425 23.3435C26.7363 24.1721 28.0061 24.5582 29.2214 25.0001C30.9881 25.5526 32.7554 26.1597 34.191 27.3744C36.1787 28.9765 36.6205 32.2339 35.0747 34.2772C33.7492 36.0445 31.5958 36.9832 29.4423 37.1478C27.5092 37.2029 25.5767 37.1478 23.7543 36.4863C22.3744 36.0445 21.1596 35.271 20 34.4418C20.9938 33.5037 22.0427 32.5649 23.0371 31.6262C24.7487 32.9517 26.9572 33.6695 29.1113 33.3935C30.0494 33.2283 31.0438 32.7308 31.3749 31.7921C31.5958 30.9641 31.0989 30.1355 30.3811 29.7488C28.1725 28.4784 25.5767 28.2036 23.4232 26.8224C22.2636 26.1046 21.2698 25.0001 20.883 23.6752C20.4418 22.1288 20.6071 20.4723 21.4907 19.2025Z" fill="black"></path>
    </g>
    <path d="M43.3574 16.6621C44.7931 16.6621 46.2287 16.6621 47.6643 16.6621C47.6643 19.3125 47.6643 21.9077 47.6643 24.5581C50.5912 24.5581 53.4625 24.5581 56.3888 24.5581C56.3888 21.9077 56.3888 19.3125 56.3888 16.6621C57.8251 16.6621 59.3152 16.6621 60.7514 16.6621C60.7514 23.3433 60.7514 29.9695 60.7514 36.6508C59.3152 36.6508 57.8251 36.6508 56.3888 36.6508C56.3888 33.725 56.3888 30.7424 56.3888 27.8167C53.4625 27.8167 50.5912 27.8167 47.6643 27.8167C47.6643 30.7424 47.6643 33.725 47.6643 36.6508C46.2287 36.6508 44.7931 36.6508 43.3574 36.6508C43.3574 30.0258 43.3574 23.3433 43.3574 16.6621Z" fill="black"></path>
    <path d="M69.1992 16.6621C74.1138 16.6621 78.9732 16.6621 83.8878 16.6621C83.8878 17.711 83.8878 18.8156 83.8878 19.8644C80.4089 19.8644 76.9299 19.8644 73.4516 19.8644C73.4516 21.4659 73.4516 23.0123 73.4516 24.6137C76.8743 24.6137 80.2987 24.6137 83.7219 24.6137C83.7219 25.6626 83.7219 26.7115 83.7219 27.761C80.2987 27.761 76.8743 27.761 73.4516 27.761C73.4516 29.5834 73.4516 31.4057 73.4516 33.2281C76.9299 33.2281 80.4089 33.2281 83.8878 33.2281C83.8878 34.3872 83.8878 35.4917 83.8878 36.6508C78.9732 36.6508 74.1138 36.6508 69.1992 36.6508C69.1992 30.0258 69.1992 23.3433 69.1992 16.6621Z" fill="black"></path>
    <path d="M91.5625 16.6621C92.9981 16.6621 94.4344 16.6621 95.87 16.6621C95.87 23.3433 95.87 29.9695 95.87 36.6508C94.4344 36.6508 92.9981 36.6508 91.5625 36.6508C91.5625 30.0258 91.5625 23.3433 91.5625 16.6621Z" fill="black"></path>
  </g>
  <defs>
    <clipPath id="clip0_6990_11054">
      <rect width="100" height="21.2589" fill="white" transform="translate(20 16)"></rect>
    </clipPath>
  </defs>
</svg>
