<?xml version="1.0" encoding="UTF-8"?>
<svg xmlns="http://www.w3.org/2000/svg" width="140" height="54" viewBox="0 0 140 54" fill="none">
  <g clip-path="url(#clip0_7936_9283)">
    <path d="M44.1423 31.3621C43.6671 31.3621 43.1742 31.2723 42.6634 31.0986C42.1442 30.9171 41.6659 30.6337 41.2561 30.2647C40.8463 29.8958 40.5131 29.4486 40.2757 28.949C40.0203 28.422 39.8956 27.8173 39.8956 27.1526V10.2129H34.3066V27.1286C34.3066 28.8591 34.6095 30.3621 35.2154 31.6255C35.8212 32.895 36.5992 33.9369 37.5555 34.7572C38.5117 35.5775 39.563 36.1823 40.7034 36.5835C41.8497 36.9847 42.9663 37.1883 44.0472 37.1883C45.1282 37.1883 46.2508 36.9847 47.4149 36.5835C53.6216 34.4398 53.9363 28.6915 53.9363 25.8173H48.3949C48.383 27.0508 48.288 28.2723 47.9376 28.949C47.6703 29.4699 47.3377 29.913 46.9397 30.2663C46.1645 30.9525 45.1737 31.3406 44.1423 31.3621Z" stroke="#5B5B5B" stroke-width="0.0393597"></path>
    <path d="M44.1423 31.3621C43.6671 31.3621 43.1742 31.2723 42.6634 31.0986C42.1442 30.9171 41.6659 30.6337 41.2561 30.2647C40.8463 29.8958 40.5131 29.4486 40.2757 28.949C40.0203 28.422 39.8956 27.8173 39.8956 27.1526V10.2129H34.3066V27.1286C34.3066 28.8591 34.6095 30.3621 35.2154 31.6255C35.8212 32.895 36.5992 33.9369 37.5555 34.7572C38.5117 35.5775 39.563 36.1823 40.7034 36.5835C41.8497 36.9847 42.9663 37.1883 44.0472 37.1883C45.1282 37.1883 46.2508 36.9847 47.4149 36.5835C53.6216 34.4398 53.9363 28.6915 53.9363 25.8173H48.3949C48.383 27.0508 48.288 28.2723 47.9376 28.949C47.6703 29.4699 47.3377 29.913 46.9397 30.2663C46.1645 30.9525 45.1737 31.3406 44.1423 31.3621Z" fill="#5B5B5B"></path>
    <path d="M48.644 17.5001H39.4201V17.3145H48.644L48.7331 17.4103L48.644 17.5001ZM48.644 17.3145H48.7331V17.4103L48.644 17.3145ZM48.549 23.1047V17.4103H48.7331V23.1047L48.644 23.2005L48.549 23.1047ZM48.7331 23.1047V23.2005H48.644L48.7331 23.1047ZM39.4201 23.0149H48.644V23.2005H39.4201L39.3311 23.1047L39.4201 23.0149ZM39.4201 23.2005H39.3311V23.1047L39.4201 23.2005ZM39.5152 17.4103V23.1047H39.3311V17.4103L39.4201 17.3145L39.5152 17.4103ZM39.3311 17.4103V17.3145H39.4201L39.3311 17.4103Z" fill="#5B5B5B"></path>
    <path d="M39.4209 17.4104H48.6448V23.1049H39.4209V17.4104Z" fill="#5B5B5B"></path>
    <path d="M79.5173 27.2782C79.5173 26.7992 79.4282 26.3022 79.256 25.7873C79.0778 25.2723 78.8164 24.8052 78.4482 24.3921C78.0779 23.9693 77.6276 23.6253 77.1237 23.3801C76.5951 23.1226 76.0012 22.9969 75.336 22.9969H71.018V31.5177H75.336C76.0012 31.5177 76.5951 31.3799 77.1237 31.1045C78.0898 30.6054 78.8402 29.7658 79.2322 28.7453C79.4223 28.2483 79.5173 27.7633 79.5173 27.2782ZM65.4766 17.3623H75.3122C77.0346 17.3623 78.5195 17.6677 79.7786 18.2785C81.0378 18.8892 82.0712 19.6736 82.8849 20.6377C84.4227 22.4681 85.2759 24.7838 85.2963 27.1824C85.2745 29.6129 84.4158 31.9602 82.8671 33.823C82.0164 34.8434 80.9621 35.6718 79.7727 36.2541C78.3929 36.9136 76.8731 37.22 75.3478 37.1463H71.018V44.176H65.4766V17.3623Z" stroke="#5B5B5B" stroke-width="0.0393597"></path>
    <path d="M79.5173 27.2782C79.5173 26.7992 79.4282 26.3022 79.256 25.7873C79.0778 25.2723 78.8164 24.8052 78.4482 24.3921C78.0779 23.9693 77.6276 23.6253 77.1237 23.3801C76.5951 23.1226 76.0012 22.9969 75.336 22.9969H71.018V31.5177H75.336C76.0012 31.5177 76.5951 31.3799 77.1237 31.1045C78.0898 30.6054 78.8402 29.7658 79.2322 28.7453C79.4223 28.2483 79.5173 27.7633 79.5173 27.2782ZM65.4766 17.3623H75.3122C77.0346 17.3623 78.5195 17.6677 79.7786 18.2785C81.0378 18.8892 82.0712 19.6736 82.8849 20.6377C84.4227 22.4681 85.2759 24.7838 85.2963 27.1824C85.2745 29.6129 84.4158 31.9602 82.8671 33.823C82.0164 34.8434 80.9621 35.6718 79.7727 36.2541C78.3929 36.9136 76.8731 37.22 75.3478 37.1463H71.018V44.176H65.4766V17.3623Z" fill="#5B5B5B"></path>
    <path d="M79.5173 27.2782C79.5173 26.7992 79.4282 26.3022 79.256 25.7873C79.0778 25.2723 78.8164 24.8052 78.4482 24.3921C78.0779 23.9693 77.6276 23.6253 77.1237 23.3801C76.5951 23.1226 76.0012 22.9969 75.336 22.9969H71.018V31.5177H75.336C76.0012 31.5177 76.5951 31.3799 77.1237 31.1045C78.0898 30.6054 78.8402 29.7658 79.2322 28.7453C79.4223 28.2483 79.5173 27.7633 79.5173 27.2782ZM65.4766 17.3623H75.3122C77.0346 17.3623 78.5195 17.6677 79.7786 18.2785C81.0378 18.8892 82.0712 19.6736 82.8849 20.6377C84.4227 22.4681 85.2759 24.7838 85.2963 27.1824C85.2745 29.6129 84.4158 31.9602 82.8671 33.823C82.0164 34.8434 80.9621 35.6718 79.7727 36.2541C78.3929 36.9136 76.8731 37.22 75.3478 37.1463H71.018V44.176H65.4766V17.3623Z" stroke="#5B5B5B" stroke-width="0.0393597"></path>
    <path d="M79.5174 27.2783C79.5174 26.7992 79.4283 26.3022 79.2561 25.7873C79.0779 25.2723 78.8165 24.8053 78.4483 24.3921C78.078 23.9693 77.6277 23.6253 77.1238 23.3802C76.5952 23.1227 76.0013 22.9969 75.3361 22.9969H71.0181V31.5177H75.3361C76.0013 31.5177 76.5952 31.38 77.1238 31.1045C78.0899 30.6055 78.8403 29.7658 79.2323 28.7453C79.4224 28.2483 79.5174 27.7633 79.5174 27.2783ZM65.4767 17.3623H75.3123C77.0347 17.3623 78.5196 17.6677 79.7787 18.2785C81.0379 18.8893 82.0713 19.6737 82.885 20.6377C84.4228 22.4682 85.276 24.7838 85.2964 27.1825C85.2746 29.6129 84.4159 31.9603 82.8672 33.823C82.0165 34.8435 80.9622 35.6718 79.7728 36.2541C78.393 36.9136 76.8732 37.2201 75.3479 37.1463H71.0181V44.1761H65.4767V17.3623ZM56.7992 17.4402V37.2122H56.3359V17.4402L56.5676 17.2126L56.7992 17.4402ZM56.3359 17.4402V17.2126H56.5676L56.3359 17.4402ZM61.7467 17.6737H56.5676V17.2126H61.7467L61.9784 17.4402L61.7467 17.6737ZM61.7467 17.2126H61.9784V17.4402L61.7467 17.2126ZM61.521 37.2122V17.4402H61.9784V37.2122L61.7467 37.4457L61.521 37.2122ZM61.9784 37.2122V37.4457H61.7467L61.9784 37.2122ZM56.5676 36.9786H61.7467V37.4457H56.5676L56.3359 37.2122L56.5676 36.9786ZM56.5676 37.4457H56.3359V37.2122L56.5676 37.4457Z" fill="#5B5B5B"></path>
    <path d="M56.5674 37.2122V17.4402H61.7465V37.2122H56.5674Z" fill="#5B5B5B"></path>
    <path d="M79.5173 27.2782C79.5173 26.7992 79.4282 26.3022 79.256 25.7873C79.0778 25.2723 78.8164 24.8052 78.4482 24.3921C78.0779 23.9693 77.6276 23.6253 77.1237 23.3801C76.5951 23.1226 76.0012 22.9969 75.336 22.9969H71.018V31.5177H75.336C76.0012 31.5177 76.5951 31.3799 77.1237 31.1045C78.0898 30.6054 78.8402 29.7658 79.2322 28.7453C79.4223 28.2483 79.5173 27.7633 79.5173 27.2782ZM65.4766 17.3623H75.3122C77.0346 17.3623 78.5195 17.6677 79.7786 18.2785C81.0378 18.8892 82.0712 19.6736 82.8849 20.6377C84.4227 22.4681 85.2759 24.7838 85.2963 27.1824C85.2745 29.6129 84.4158 31.9602 82.8671 33.823C82.0164 34.8434 80.9621 35.6718 79.7727 36.2541C78.3929 36.9136 76.8731 37.22 75.3478 37.1463H71.018V44.176H65.4766V17.3623Z" stroke="#5B5B5B" stroke-width="0.0393597"></path>
    <path d="M79.5173 27.2782C79.5173 26.7992 79.4282 26.3022 79.256 25.7873C79.0778 25.2723 78.8164 24.8052 78.4482 24.3921C78.0779 23.9693 77.6276 23.6253 77.1237 23.3801C76.5951 23.1226 76.0012 22.9969 75.336 22.9969H71.018V31.5177H75.336C76.0012 31.5177 76.5951 31.3799 77.1237 31.1045C78.0898 30.6054 78.8402 29.7658 79.2322 28.7453C79.4223 28.2483 79.5173 27.7633 79.5173 27.2782ZM65.4766 17.3623H75.3122C77.0346 17.3623 78.5195 17.6677 79.7786 18.2785C81.0378 18.8892 82.0712 19.6736 82.8849 20.6377C84.4227 22.4681 85.2759 24.7838 85.2963 27.1824C85.2745 29.6129 84.4158 31.9602 82.8671 33.823C82.0164 34.8434 80.9621 35.6718 79.7727 36.2541C78.3929 36.9136 76.8731 37.22 75.3478 37.1463H71.018V44.176H65.4766V17.3623Z" fill="#5B5B5B"></path>
    <path d="M97.1865 37.2122V17.4402H102.366V37.2122H97.1865Z" stroke="#5B5B5B" stroke-width="0.0393597"></path>
    <path d="M97.1865 37.2122V17.4402H102.366V37.2122H97.1865Z" fill="#5B5B5B"></path>
    <path d="M87.9805 37.2122V10.2129H93.1656V37.2122H87.9805Z" stroke="#5B5B5B" stroke-width="0.0393597"></path>
    <path d="M87.9805 37.2122V10.2129H93.1656V37.2122H87.9805Z" fill="#5B5B5B"></path>
    <path d="M109.606 36.6493L112.974 39.8528L111.964 40.9187L110.948 41.9127L109.927 42.8468L108.893 43.715L107.86 44.5174L106.815 45.2479L105.769 45.9185L104.706 46.5233L103.643 47.0562L102.568 47.5173L101.481 47.9125L100.394 48.2299L99.2954 48.4814L98.1966 48.655L97.0918 48.7568L95.9931 48.7867L94.8883 48.7388L93.7895 48.6191L92.6908 48.4275L91.6038 48.158L90.5229 47.8227L89.4478 47.4215L88.3847 46.9485L87.3334 46.4096L86.2821 45.8108L85.2487 45.1461L84.2212 44.4156L83.1996 43.6252L82.184 42.7749L81.1802 41.8648L80.1764 40.8947L79.1846 39.8648L82.5284 36.6313L83.4194 37.5595L84.3103 38.4157L85.1893 39.2181L86.0683 39.9546L86.9355 40.6253L87.8026 41.236L88.6579 41.7869L89.5072 42.2719L90.3447 42.7031L91.1762 43.0743L92.0018 43.3797L92.8155 43.6372L93.6292 43.8348L94.431 43.9725L95.2328 44.0623L96.0287 44.0982L96.8305 44.0743L97.6323 44.0024L98.4341 43.8767L99.2419 43.6911L100.062 43.4515L100.887 43.1521L101.719 42.7869L102.562 42.3677L103.411 41.8827L104.273 41.3378L105.146 40.7211L106.025 40.0444L106.91 39.296L107.801 38.4816L108.703 37.6014L109.606 36.6493Z" fill="#EF7F1A"></path>
    <path d="M56.5674 10.1531H61.7465V15.3805H56.5674V10.1531Z" stroke="#5B5B5B" stroke-width="0.152519"></path>
    <path d="M56.5674 10.1531H61.7465V15.3805H56.5674V10.1531Z" fill="#5B5B5B"></path>
    <path d="M96.9492 9.98535H102.604V15.6858H96.9492V9.98535Z" fill="#EF7F1A"></path>
  </g>
  <defs>
    <clipPath id="clip0_7936_9283">
      <rect width="80" height="40" fill="white" transform="translate(33 10)"></rect>
    </clipPath>
  </defs>
</svg>
